<svg width="793" height="128" viewBox="0 0 793 128" fill="none" xmlns="http://www.w3.org/2000/svg">
<mask id="path-1-outside-1_24_552" maskUnits="userSpaceOnUse" x="33.5" y="20" width="88" height="47" fill="black">
<rect fill="white" x="33.5" y="20" width="88" height="47"/>
<path d="M55.634 30.9C54.022 30.9 52.658 31.086 51.542 31.334C50.426 31.582 49.496 32.202 48.814 33.07C48.07 33.938 47.574 35.24 47.264 36.914C46.954 38.588 46.83 40.82 46.83 43.672C46.83 46.4 46.954 48.632 47.264 50.244C47.574 51.918 48.07 53.22 48.814 54.088C49.496 55.018 50.426 55.638 51.542 55.886C52.658 56.196 54.022 56.32 55.634 56.32C57.184 56.32 58.548 56.196 59.664 55.886C60.78 55.638 61.648 55.018 62.392 54.088C63.074 53.22 63.57 51.918 63.88 50.244C64.19 48.632 64.376 46.4 64.376 43.672C64.376 40.82 64.19 38.588 63.88 36.914C63.57 35.24 63.074 33.938 62.392 33.07C61.648 32.202 60.78 31.582 59.664 31.334C58.548 31.086 57.184 30.9 55.634 30.9ZM55.634 65.93C52.038 65.93 49 65.62 46.458 64.876C43.854 64.194 41.746 63.016 40.134 61.28C38.46 59.606 37.22 57.312 36.476 54.46C35.67 51.608 35.298 48.012 35.298 43.672C35.298 39.208 35.67 35.488 36.538 32.574C37.406 29.722 38.646 27.428 40.382 25.754C42.056 24.08 44.164 22.902 46.706 22.282C49.248 21.662 52.224 21.29 55.634 21.29C58.982 21.29 61.958 21.662 64.5 22.282C67.042 22.902 69.15 24.08 70.824 25.754C72.498 27.428 73.738 29.722 74.606 32.574C75.474 35.488 75.908 39.208 75.908 43.672C75.908 48.012 75.474 51.608 74.73 54.46C73.924 57.312 72.684 59.606 71.072 61.28C69.46 63.016 67.352 64.194 64.81 64.876C62.206 65.62 59.168 65.93 55.634 65.93ZM99.7092 65.93C96.3612 65.93 93.4472 65.62 90.9672 65C88.4872 64.38 86.3792 63.388 84.7052 61.962C83.0312 60.598 81.7912 58.8 81.0472 56.568C80.2412 54.336 79.9312 51.67 80.0552 48.508H91.5252C91.5252 51.36 92.0832 53.406 93.3232 54.584C94.5012 55.762 96.6092 56.32 99.5852 56.32C102.685 56.32 104.855 55.824 106.095 54.708C107.273 53.654 107.893 52.166 107.893 50.182C107.893 49.376 107.769 48.632 107.583 47.888C107.335 47.206 106.963 46.586 106.343 46.09C105.723 45.594 104.793 45.222 103.615 44.974C102.437 44.726 100.887 44.54 98.9652 44.54H94.5632V38.154L102.189 31.396H82.2252V22.22H116.201V29.66L105.909 38.216L107.459 38.278C111.055 38.464 114.031 39.58 116.263 41.688C118.495 43.796 119.611 46.772 119.611 50.616C119.611 53.034 119.239 55.204 118.619 57.064C117.937 58.986 116.821 60.598 115.271 61.9C113.721 63.202 111.675 64.194 109.133 64.876C106.591 65.62 103.429 65.93 99.7092 65.93Z"/>
</mask>
<path d="M48.814 33.07L49.5733 33.7208L49.5871 33.7046L49.6003 33.6878L48.814 33.07ZM47.264 36.914L48.2473 37.0961V37.0961L47.264 36.914ZM47.264 50.244L48.2473 50.0619L48.246 50.0552L47.264 50.244ZM48.814 54.088L49.6204 53.4966L49.598 53.466L49.5733 53.4372L48.814 54.088ZM51.542 55.886L51.8096 54.9225L51.7845 54.9155L51.7589 54.9098L51.542 55.886ZM59.664 55.886L59.4471 54.9098L59.4215 54.9155L59.3964 54.9225L59.664 55.886ZM62.392 54.088L63.1729 54.7127L63.1783 54.7058L62.392 54.088ZM63.88 50.244L62.898 50.0551L62.8967 50.0619L63.88 50.244ZM63.88 36.914L62.8967 37.0961V37.0961L63.88 36.914ZM62.392 33.07L63.1783 32.4522L63.1651 32.4354L63.1513 32.4192L62.392 33.07ZM46.458 64.876L46.7389 63.9163L46.7252 63.9122L46.7114 63.9086L46.458 64.876ZM40.134 61.28L40.8668 60.5995L40.8542 60.586L40.8411 60.5729L40.134 61.28ZM36.476 54.46L37.4436 54.2076L37.4411 54.1978L37.4383 54.188L36.476 54.46ZM36.538 32.574L35.5813 32.2828L35.5796 32.2885L36.538 32.574ZM40.382 25.754L41.0761 26.4738L41.0827 26.4675L41.0891 26.4611L40.382 25.754ZM46.706 22.282L46.943 23.2535L46.943 23.2535L46.706 22.282ZM64.5 22.282L64.263 23.2535L64.263 23.2535L64.5 22.282ZM70.824 25.754L71.5311 25.0469L71.5311 25.0469L70.824 25.754ZM74.606 32.574L75.5644 32.2885L75.5627 32.2828L74.606 32.574ZM74.73 54.46L75.6923 54.732L75.6951 54.7222L75.6976 54.7124L74.73 54.46ZM71.072 61.28L70.3517 60.5864L70.3454 60.5929L70.3392 60.5995L71.072 61.28ZM64.81 64.876L64.5509 63.9102L64.5431 63.9123L64.5353 63.9145L64.81 64.876ZM55.634 29.9C53.944 29.9 52.5072 30.0951 51.3251 30.3578L51.7589 32.3102C52.8088 32.0769 54.1 31.9 55.634 31.9V29.9ZM51.3251 30.3578C49.9694 30.6591 48.8431 31.4143 48.0277 32.4522L49.6003 33.6878C50.1489 32.9897 50.8826 32.5049 51.7589 32.3102L51.3251 30.3578ZM48.0547 32.4192C47.1431 33.4828 46.6037 34.9876 46.2807 36.7319L48.2473 37.0961C48.5443 35.4924 48.9969 34.3932 49.5733 33.7208L48.0547 32.4192ZM46.2807 36.7319C45.9535 38.4986 45.83 40.8049 45.83 43.672H47.83C47.83 40.8351 47.9545 38.6774 48.2473 37.0961L46.2807 36.7319ZM45.83 43.672C45.83 46.4139 45.9533 48.7239 46.282 50.4328L48.246 50.0552C47.9547 48.5401 47.83 46.3861 47.83 43.672H45.83ZM46.2807 50.4261C46.6037 52.1704 47.1431 53.6752 48.0547 54.7388L49.5733 53.4372C48.9969 52.7648 48.5443 51.6656 48.2473 50.0619L46.2807 50.4261ZM48.0076 54.6794C48.8281 55.7982 49.9645 56.5598 51.3251 56.8622L51.7589 54.9098C50.8875 54.7162 50.1639 54.2378 49.6204 53.4966L48.0076 54.6794ZM51.2744 56.8495C52.5157 57.1943 53.9823 57.32 55.634 57.32V55.32C54.0618 55.32 52.8003 55.1977 51.8096 54.9225L51.2744 56.8495ZM55.634 57.32C57.2257 57.32 58.6915 57.194 59.9316 56.8495L59.3964 54.9225C58.4045 55.198 57.1423 55.32 55.634 55.32V57.32ZM59.8809 56.8622C61.2649 56.5546 62.3185 55.7806 63.1729 54.7127L61.6111 53.4633C60.9775 54.2554 60.2951 54.7214 59.4471 54.9098L59.8809 56.8622ZM63.1783 54.7058C64.0027 53.6566 64.5396 52.174 64.8633 50.4261L62.8967 50.0619C62.6004 51.662 62.1453 52.7834 61.6057 53.4702L63.1783 54.7058ZM64.862 50.4328C65.188 48.7375 65.376 46.4375 65.376 43.672H63.376C63.376 46.3625 63.192 48.5265 62.898 50.0552L64.862 50.4328ZM65.376 43.672C65.376 40.782 65.1879 38.485 64.8633 36.7319L62.8967 37.0961C63.1921 38.691 63.376 40.858 63.376 43.672H65.376ZM64.8633 36.7319C64.5396 34.984 64.0027 33.5014 63.1783 32.4522L61.6057 33.6878C62.1453 34.3746 62.6004 35.496 62.8967 37.0961L64.8633 36.7319ZM63.1513 32.4192C62.3048 31.4317 61.2592 30.6641 59.8809 30.3578L59.4471 32.3102C60.3008 32.4999 60.9912 32.9723 61.6327 33.7208L63.1513 32.4192ZM59.8809 30.3578C58.7005 30.0955 57.2637 29.9 55.634 29.9V31.9C57.1044 31.9 58.3955 32.0765 59.4471 32.3102L59.8809 30.3578ZM55.634 64.93C52.0866 64.93 49.1538 64.6231 46.7389 63.9163L46.1771 65.8357C48.8462 66.6169 51.9894 66.93 55.634 66.93V64.93ZM46.7114 63.9086C44.2575 63.2659 42.3277 62.1728 40.8668 60.5995L39.4012 61.9605C41.1643 63.8592 43.4505 65.1221 46.2046 65.8434L46.7114 63.9086ZM40.8411 60.5729C39.318 59.0498 38.1527 56.9257 37.4436 54.2076L35.5084 54.7124C36.2873 57.6983 37.602 60.1622 39.4269 61.9871L40.8411 60.5729ZM37.4383 54.188C36.6672 51.4596 36.298 47.9654 36.298 43.672H34.298C34.298 48.0586 34.6728 51.7564 35.5137 54.732L37.4383 54.188ZM36.298 43.672C36.298 39.2495 36.6682 35.6397 37.4964 32.8595L35.5796 32.2885C34.6718 35.3363 34.298 39.1665 34.298 43.672H36.298ZM37.4947 32.8652C38.3307 30.1183 39.4999 27.9938 41.0761 26.4738L39.6879 25.0342C37.7921 26.8622 36.4813 29.3257 35.5813 32.2828L37.4947 32.8652ZM41.0891 26.4611C42.6255 24.9247 44.5675 23.8329 46.943 23.2535L46.469 21.3105C43.7605 21.9711 41.4865 23.2353 39.6749 25.0469L41.0891 26.4611ZM46.943 23.2535C49.4003 22.6542 52.2962 22.29 55.634 22.29V20.29C52.1518 20.29 49.0957 20.6698 46.469 21.3105L46.943 23.2535ZM55.634 22.29C58.9089 22.29 61.8049 22.654 64.263 23.2535L64.737 21.3105C62.1111 20.67 59.0551 20.29 55.634 20.29V22.29ZM64.263 23.2535C66.6385 23.8329 68.5805 24.9247 70.1169 26.4611L71.5311 25.0469C69.7195 23.2353 67.4455 21.9711 64.737 21.3105L64.263 23.2535ZM70.1169 26.4611C71.6417 27.9859 72.8133 30.1183 73.6493 32.8652L75.5627 32.2828C74.6627 29.3257 73.3543 26.8701 71.5311 25.0469L70.1169 26.4611ZM73.6476 32.8595C74.4782 35.648 74.908 39.2631 74.908 43.672H76.908C76.908 39.1529 76.4698 35.328 75.5644 32.2885L73.6476 32.8595ZM74.908 43.672C74.908 47.9497 74.4798 51.4575 73.7624 54.2076L75.6976 54.7124C76.4682 51.7585 76.908 48.0743 76.908 43.672H74.908ZM73.7677 54.188C72.9954 56.9206 71.8245 59.0569 70.3517 60.5864L71.7923 61.9736C73.5435 60.1551 74.8526 57.7034 75.6923 54.732L73.7677 54.188ZM70.3392 60.5995C68.8768 62.1745 66.9447 63.2679 64.5509 63.9102L65.0691 65.8418C67.7593 65.1201 70.0432 63.8575 71.8048 61.9605L70.3392 60.5995ZM64.5353 63.9145C62.0532 64.6236 59.1164 64.93 55.634 64.93V66.93C59.2196 66.93 62.3588 66.6164 65.0847 65.8375L64.5353 63.9145ZM90.9672 65L91.2098 64.0299L90.9672 65ZM84.7052 61.962L85.3537 61.2008L85.3454 61.1937L85.3369 61.1868L84.7052 61.962ZM81.0472 56.568L81.9959 56.2518L81.992 56.24L81.9878 56.2284L81.0472 56.568ZM80.0552 48.508V47.508H79.0937L79.056 48.4688L80.0552 48.508ZM91.5252 48.508H92.5252V47.508H91.5252V48.508ZM93.3232 54.584L94.0303 53.8769L94.0213 53.8678L94.012 53.859L93.3232 54.584ZM106.095 54.708L105.428 53.9628L105.426 53.9647L106.095 54.708ZM107.583 47.888L108.553 47.6455L108.541 47.5951L108.523 47.5463L107.583 47.888ZM106.343 46.09L105.719 46.8709L105.719 46.8709L106.343 46.09ZM94.5632 44.54H93.5632V45.54H94.5632V44.54ZM94.5632 38.154L93.9 37.4056L93.5632 37.704V38.154H94.5632ZM102.189 31.396L102.852 32.1444L104.825 30.396H102.189V31.396ZM82.2252 31.396H81.2252V32.396H82.2252V31.396ZM82.2252 22.22V21.22H81.2252V22.22H82.2252ZM116.201 22.22H117.201V21.22H116.201V22.22ZM116.201 29.66L116.84 30.429L117.201 30.1291V29.66H116.201ZM105.909 38.216L105.27 37.447L103.268 39.1112L105.869 39.2152L105.909 38.216ZM107.459 38.278L107.511 37.2793L107.499 37.2788L107.459 38.278ZM118.619 57.064L119.562 57.3984L119.565 57.3893L119.568 57.3802L118.619 57.064ZM115.271 61.9L114.628 61.1343L115.271 61.9ZM109.133 64.876L108.874 63.9102L108.863 63.9131L108.852 63.9163L109.133 64.876ZM99.7092 64.93C96.4193 64.93 93.5904 64.625 91.2098 64.0299L90.7247 65.9701C93.3041 66.615 96.3031 66.93 99.7092 66.93V64.93ZM91.2098 64.0299C88.8421 63.4379 86.8842 62.5045 85.3537 61.2008L84.0568 62.7232C85.8743 64.2715 88.1323 65.3221 90.7247 65.9701L91.2098 64.0299ZM85.3369 61.1868C83.8169 59.9483 82.6828 58.3125 81.9959 56.2518L80.0985 56.8842C80.8996 59.2875 82.2455 61.2477 84.0735 62.7372L85.3369 61.1868ZM81.9878 56.2284C81.2395 54.1561 80.9336 51.6287 81.0545 48.5472L79.056 48.4688C78.9288 51.7113 79.243 54.5159 80.1067 56.9076L81.9878 56.2284ZM80.0552 49.508H91.5252V47.508H80.0552V49.508ZM90.5252 48.508C90.5252 51.4302 91.085 53.837 92.6345 55.309L94.012 53.859C93.0814 52.975 92.5252 51.2898 92.5252 48.508H90.5252ZM92.6161 55.2911C94.0898 56.7648 96.5515 57.32 99.5852 57.32V55.32C96.667 55.32 94.9126 54.7592 94.0303 53.8769L92.6161 55.2911ZM99.5852 57.32C102.719 57.32 105.228 56.8342 106.764 55.4513L105.426 53.9647C104.483 54.8138 102.651 55.32 99.5852 55.32V57.32ZM106.762 55.4532C108.192 54.174 108.893 52.3924 108.893 50.182H106.893C106.893 51.9396 106.355 53.134 105.428 53.9628L106.762 55.4532ZM108.893 50.182C108.893 49.2702 108.752 48.4415 108.553 47.6455L106.613 48.1305C106.786 48.8225 106.893 49.4818 106.893 50.182H108.893ZM108.523 47.5463C108.23 46.7393 107.766 45.9477 106.968 45.3091L105.719 46.8709C106.16 47.2243 106.441 47.6727 106.643 48.2297L108.523 47.5463ZM106.968 45.3091C106.174 44.6739 105.07 44.2584 103.821 43.9954L103.409 45.9525C104.516 46.1856 105.273 46.5141 105.719 46.8709L106.968 45.3091ZM103.821 43.9954C102.57 43.7321 100.951 43.54 98.9652 43.54V45.54C100.824 45.54 102.304 45.7199 103.409 45.9525L103.821 43.9954ZM98.9652 43.54H94.5632V45.54H98.9652V43.54ZM95.5632 44.54V38.154H93.5632V44.54H95.5632ZM95.2264 38.9024L102.852 32.1444L101.526 30.6476L93.9 37.4056L95.2264 38.9024ZM102.189 30.396H82.2252V32.396H102.189V30.396ZM83.2252 31.396V22.22H81.2252V31.396H83.2252ZM82.2252 23.22H116.201V21.22H82.2252V23.22ZM115.201 22.22V29.66H117.201V22.22H115.201ZM115.562 28.891L105.27 37.447L106.548 38.985L116.84 30.429L115.562 28.891ZM105.869 39.2152L107.419 39.2772L107.499 37.2788L105.949 37.2168L105.869 39.2152ZM107.408 39.2767C110.822 39.4533 113.554 40.5047 115.577 42.415L116.95 40.961C114.508 38.6552 111.288 37.4747 107.511 37.2793L107.408 39.2767ZM115.577 42.415C117.561 44.2887 118.611 46.9732 118.611 50.616H120.611C120.611 46.5708 119.43 43.3033 116.95 40.961L115.577 42.415ZM118.611 50.616C118.611 52.9319 118.255 54.9947 117.671 56.7478L119.568 57.3802C120.224 55.4133 120.611 53.1361 120.611 50.616H118.611ZM117.677 56.7296C117.054 58.4851 116.041 59.9477 114.628 61.1343L115.914 62.6657C117.602 61.2483 118.821 59.4869 119.562 57.3984L117.677 56.7296ZM114.628 61.1343C113.218 62.3186 111.316 63.2551 108.874 63.9102L109.392 65.8418C112.035 65.1329 114.224 64.0854 115.914 62.6657L114.628 61.1343ZM108.852 63.9163C106.441 64.6221 103.386 64.93 99.7092 64.93V66.93C103.472 66.93 106.742 66.6179 109.414 65.8357L108.852 63.9163Z" fill="url(#paint0_linear_24_552)" mask="url(#path-1-outside-1_24_552)"/>
<mask id="path-3-outside-2_24_552" maskUnits="userSpaceOnUse" x="304.5" y="20" width="120" height="47" fill="black">
<rect fill="white" x="304.5" y="20" width="120" height="47"/>
<path d="M322.952 32.202V41.006H331.694V49.128H322.952V57.932H314.768V49.128H306.026V41.006H314.768V32.202H322.952ZM359.567 35.922C363.101 35.922 366.077 36.232 368.433 36.79C370.789 37.41 372.649 38.278 374.137 39.456C375.563 40.696 376.555 42.184 377.175 43.982C377.795 45.78 378.105 47.888 378.105 50.368C378.105 52.786 377.733 54.956 377.051 56.878C376.307 58.8 375.191 60.412 373.641 61.776C372.029 63.14 369.983 64.132 367.503 64.876C364.961 65.62 361.861 65.93 358.203 65.93C354.855 65.93 351.941 65.62 349.461 65C346.981 64.38 344.873 63.388 343.199 61.962C341.525 60.598 340.285 58.8 339.541 56.568C338.735 54.336 338.425 51.67 338.549 48.508H350.019C350.019 51.36 350.577 53.406 351.817 54.584C352.995 55.762 355.103 56.32 358.079 56.32C359.691 56.32 361.055 56.196 362.171 55.886C363.225 55.638 364.093 55.204 364.713 54.646C365.333 54.088 365.767 53.406 366.015 52.538C366.263 51.732 366.387 50.802 366.387 49.748C366.387 48.756 366.263 47.888 366.077 47.082C365.829 46.338 365.457 45.656 364.899 45.098C364.279 44.54 363.473 44.106 362.481 43.796C361.427 43.548 360.063 43.362 358.451 43.362H342.145V22.22H375.191V31.396H351.383V35.922H359.567ZM402.527 30.9C400.915 30.9 399.551 31.086 398.435 31.334C397.319 31.582 396.389 32.202 395.707 33.07C394.963 33.938 394.467 35.24 394.157 36.914C393.847 38.588 393.723 40.82 393.723 43.672C393.723 46.4 393.847 48.632 394.157 50.244C394.467 51.918 394.963 53.22 395.707 54.088C396.389 55.018 397.319 55.638 398.435 55.886C399.551 56.196 400.915 56.32 402.527 56.32C404.077 56.32 405.441 56.196 406.557 55.886C407.673 55.638 408.541 55.018 409.285 54.088C409.967 53.22 410.463 51.918 410.773 50.244C411.083 48.632 411.269 46.4 411.269 43.672C411.269 40.82 411.083 38.588 410.773 36.914C410.463 35.24 409.967 33.938 409.285 33.07C408.541 32.202 407.673 31.582 406.557 31.334C405.441 31.086 404.077 30.9 402.527 30.9ZM402.527 65.93C398.931 65.93 395.893 65.62 393.351 64.876C390.747 64.194 388.639 63.016 387.027 61.28C385.353 59.606 384.113 57.312 383.369 54.46C382.563 51.608 382.191 48.012 382.191 43.672C382.191 39.208 382.563 35.488 383.431 32.574C384.299 29.722 385.539 27.428 387.275 25.754C388.949 24.08 391.057 22.902 393.599 22.282C396.141 21.662 399.117 21.29 402.527 21.29C405.875 21.29 408.851 21.662 411.393 22.282C413.935 22.902 416.043 24.08 417.717 25.754C419.391 27.428 420.631 29.722 421.499 32.574C422.367 35.488 422.801 39.208 422.801 43.672C422.801 48.012 422.367 51.608 421.623 54.46C420.817 57.312 419.577 59.606 417.965 61.28C416.353 63.016 414.245 64.194 411.703 64.876C409.099 65.62 406.061 65.93 402.527 65.93Z"/>
</mask>
<path d="M322.952 32.202H323.952V31.202H322.952V32.202ZM322.952 41.006H321.952V42.006H322.952V41.006ZM331.694 41.006H332.694V40.006H331.694V41.006ZM331.694 49.128V50.128H332.694V49.128H331.694ZM322.952 49.128V48.128H321.952V49.128H322.952ZM322.952 57.932V58.932H323.952V57.932H322.952ZM314.768 57.932H313.768V58.932H314.768V57.932ZM314.768 49.128H315.768V48.128H314.768V49.128ZM306.026 49.128H305.026V50.128H306.026V49.128ZM306.026 41.006V40.006H305.026V41.006H306.026ZM314.768 41.006V42.006H315.768V41.006H314.768ZM314.768 32.202V31.202H313.768V32.202H314.768ZM321.952 32.202V41.006H323.952V32.202H321.952ZM322.952 42.006H331.694V40.006H322.952V42.006ZM330.694 41.006V49.128H332.694V41.006H330.694ZM331.694 48.128H322.952V50.128H331.694V48.128ZM321.952 49.128V57.932H323.952V49.128H321.952ZM322.952 56.932H314.768V58.932H322.952V56.932ZM315.768 57.932V49.128H313.768V57.932H315.768ZM314.768 48.128H306.026V50.128H314.768V48.128ZM307.026 49.128V41.006H305.026V49.128H307.026ZM306.026 42.006H314.768V40.006H306.026V42.006ZM315.768 41.006V32.202H313.768V41.006H315.768ZM314.768 33.202H322.952V31.202H314.768V33.202ZM368.433 36.79L368.688 35.8229L368.676 35.8198L368.664 35.8169L368.433 36.79ZM374.137 39.456L374.794 38.7014L374.776 38.6863L374.758 38.672L374.137 39.456ZM377.051 56.878L377.984 57.239L377.989 57.2258L377.994 57.2124L377.051 56.878ZM373.641 61.776L374.287 62.5394L374.295 62.5331L374.302 62.5267L373.641 61.776ZM367.503 64.876L367.784 65.8358L367.791 65.8338L367.503 64.876ZM349.461 65L349.704 64.0299L349.461 65ZM343.199 61.962L343.848 61.2008L343.84 61.1937L343.831 61.1868L343.199 61.962ZM339.541 56.568L340.49 56.2518L340.486 56.24L340.482 56.2284L339.541 56.568ZM338.549 48.508V47.508H337.588L337.55 48.4688L338.549 48.508ZM350.019 48.508H351.019V47.508H350.019V48.508ZM351.817 54.584L352.524 53.8769L352.515 53.8678L352.506 53.859L351.817 54.584ZM362.171 55.886L361.942 54.9126L361.923 54.9171L361.904 54.9225L362.171 55.886ZM364.713 54.646L364.044 53.9027V53.9027L364.713 54.646ZM366.015 52.538L365.06 52.2439L365.057 52.2536L365.054 52.2633L366.015 52.538ZM366.077 47.082L367.052 46.8571L367.041 46.8108L367.026 46.7658L366.077 47.082ZM364.899 45.098L365.606 44.3909L365.588 44.3723L365.568 44.3547L364.899 45.098ZM362.481 43.796L362.78 42.8415L362.745 42.8308L362.71 42.8226L362.481 43.796ZM342.145 43.362H341.145V44.362H342.145V43.362ZM342.145 22.22V21.22H341.145V22.22H342.145ZM375.191 22.22H376.191V21.22H375.191V22.22ZM375.191 31.396V32.396H376.191V31.396H375.191ZM351.383 31.396V30.396H350.383V31.396H351.383ZM351.383 35.922H350.383V36.922H351.383V35.922ZM359.567 36.922C363.048 36.922 365.943 37.2279 368.203 37.7631L368.664 35.8169C366.212 35.2361 363.154 34.922 359.567 34.922V36.922ZM368.179 37.7571C370.438 38.3517 372.163 39.1686 373.517 40.24L374.758 38.672C373.136 37.3874 371.14 36.4683 368.688 35.8229L368.179 37.7571ZM373.481 40.2106C374.772 41.3327 375.666 42.6716 376.23 44.308L378.121 43.656C377.445 41.6964 376.355 40.0593 374.794 38.7014L373.481 40.2106ZM376.23 44.308C376.805 45.9759 377.105 47.9687 377.105 50.368H379.105C379.105 47.8073 378.786 45.5841 378.121 43.656L376.23 44.308ZM377.105 50.368C377.105 52.6827 376.749 54.7385 376.109 56.5436L377.994 57.2124C378.717 55.1735 379.105 52.8893 379.105 50.368H377.105ZM376.119 56.517C375.432 58.2913 374.408 59.769 372.981 61.0253L374.302 62.5267C375.974 61.055 377.183 59.3087 377.984 57.239L376.119 56.517ZM372.995 61.0126C371.52 62.261 369.611 63.1996 367.216 63.9182L367.791 65.8338C370.356 65.0644 372.539 64.019 374.287 62.5394L372.995 61.0126ZM367.222 63.9163C364.809 64.6226 361.816 64.93 358.203 64.93V66.93C361.907 66.93 365.113 66.6174 367.784 65.8357L367.222 63.9163ZM358.203 64.93C354.913 64.93 352.085 64.625 349.704 64.0299L349.219 65.9701C351.798 66.615 354.797 66.93 358.203 66.93V64.93ZM349.704 64.0299C347.336 63.4379 345.378 62.5045 343.848 61.2008L342.551 62.7232C344.368 64.2715 346.626 65.3221 349.219 65.9701L349.704 64.0299ZM343.831 61.1868C342.311 59.9483 341.177 58.3125 340.49 56.2518L338.593 56.8842C339.394 59.2875 340.74 61.2477 342.568 62.7372L343.831 61.1868ZM340.482 56.2284C339.734 54.1561 339.428 51.6287 339.549 48.5472L337.55 48.4688C337.423 51.7113 337.737 54.5159 338.601 56.9076L340.482 56.2284ZM338.549 49.508H350.019V47.508H338.549V49.508ZM349.019 48.508C349.019 51.4302 349.579 53.837 351.129 55.309L352.506 53.859C351.576 52.975 351.019 51.2898 351.019 48.508H349.019ZM351.11 55.2911C352.584 56.7648 355.046 57.32 358.079 57.32V55.32C355.161 55.32 353.407 54.7592 352.524 53.8769L351.11 55.2911ZM358.079 57.32C359.731 57.32 361.198 57.1943 362.439 56.8495L361.904 54.9225C360.913 55.1977 359.652 55.32 358.079 55.32V57.32ZM362.4 56.8594C363.582 56.5814 364.612 56.0822 365.382 55.3893L364.044 53.9027C363.574 54.3258 362.869 54.6946 361.942 54.9126L362.4 56.8594ZM365.382 55.3893C366.143 54.7042 366.678 53.8592 366.977 52.8127L365.054 52.2633C364.857 52.9528 364.523 53.4718 364.044 53.9027L365.382 55.3893ZM366.971 52.8321C367.255 51.9105 367.387 50.8779 367.387 49.748H365.387C365.387 50.7261 365.272 51.5535 365.06 52.2439L366.971 52.8321ZM367.387 49.748C367.387 48.669 367.252 47.7249 367.052 46.8571L365.103 47.3069C365.275 48.0511 365.387 48.843 365.387 49.748H367.387ZM367.026 46.7658C366.741 45.9115 366.299 45.0833 365.606 44.3909L364.192 45.8051C364.616 46.2287 364.917 46.7645 365.129 47.3982L367.026 46.7658ZM365.568 44.3547C364.818 43.6798 363.876 43.1842 362.78 42.8415L362.183 44.7505C363.071 45.0278 363.74 45.4002 364.23 45.8413L365.568 44.3547ZM362.71 42.8226C361.58 42.5566 360.139 42.362 358.451 42.362V44.362C359.988 44.362 361.275 44.5394 362.252 44.7694L362.71 42.8226ZM358.451 42.362H342.145V44.362H358.451V42.362ZM343.145 43.362V22.22H341.145V43.362H343.145ZM342.145 23.22H375.191V21.22H342.145V23.22ZM374.191 22.22V31.396H376.191V22.22H374.191ZM375.191 30.396H351.383V32.396H375.191V30.396ZM350.383 31.396V35.922H352.383V31.396H350.383ZM351.383 36.922H359.567V34.922H351.383V36.922ZM395.707 33.07L396.466 33.7208L396.48 33.7046L396.493 33.6878L395.707 33.07ZM394.157 36.914L395.14 37.0961V37.0961L394.157 36.914ZM394.157 50.244L395.14 50.0619L395.139 50.0552L394.157 50.244ZM395.707 54.088L396.513 53.4966L396.491 53.466L396.466 53.4372L395.707 54.088ZM398.435 55.886L398.702 54.9225L398.677 54.9155L398.652 54.9098L398.435 55.886ZM406.557 55.886L406.34 54.9098L406.314 54.9155L406.289 54.9225L406.557 55.886ZM409.285 54.088L410.065 54.7127L410.071 54.7058L409.285 54.088ZM410.773 50.244L409.791 50.0551L409.789 50.0619L410.773 50.244ZM410.773 36.914L409.789 37.0961V37.0961L410.773 36.914ZM409.285 33.07L410.071 32.4522L410.058 32.4354L410.044 32.4192L409.285 33.07ZM393.351 64.876L393.631 63.9163L393.618 63.9122L393.604 63.9086L393.351 64.876ZM387.027 61.28L387.759 60.5995L387.747 60.586L387.734 60.5729L387.027 61.28ZM383.369 54.46L384.336 54.2076L384.334 54.1978L384.331 54.188L383.369 54.46ZM383.431 32.574L382.474 32.2828L382.472 32.2885L383.431 32.574ZM387.275 25.754L387.969 26.4738L387.975 26.4675L387.982 26.4611L387.275 25.754ZM393.599 22.282L393.836 23.2535V23.2535L393.599 22.282ZM411.393 22.282L411.156 23.2535V23.2535L411.393 22.282ZM417.717 25.754L418.424 25.0469V25.0469L417.717 25.754ZM421.499 32.574L422.457 32.2885L422.455 32.2828L421.499 32.574ZM421.623 54.46L422.585 54.732L422.588 54.7222L422.59 54.7124L421.623 54.46ZM417.965 61.28L417.244 60.5864L417.238 60.5929L417.232 60.5995L417.965 61.28ZM411.703 64.876L411.443 63.9102L411.436 63.9123L411.428 63.9145L411.703 64.876ZM402.527 29.9C400.837 29.9 399.4 30.0951 398.218 30.3578L398.652 32.3102C399.701 32.0769 400.993 31.9 402.527 31.9V29.9ZM398.218 30.3578C396.862 30.6591 395.736 31.4143 394.92 32.4522L396.493 33.6878C397.041 32.9897 397.775 32.5049 398.652 32.3102L398.218 30.3578ZM394.947 32.4192C394.036 33.4828 393.496 34.9876 393.173 36.7319L395.14 37.0961C395.437 35.4924 395.889 34.3932 396.466 33.7208L394.947 32.4192ZM393.173 36.7319C392.846 38.4986 392.723 40.8049 392.723 43.672H394.723C394.723 40.8351 394.847 38.6774 395.14 37.0961L393.173 36.7319ZM392.723 43.672C392.723 46.4139 392.846 48.7239 393.175 50.4328L395.139 50.0552C394.847 48.5401 394.723 46.3861 394.723 43.672H392.723ZM393.173 50.4261C393.496 52.1704 394.036 53.6752 394.947 54.7388L396.466 53.4372C395.889 52.7648 395.437 51.6656 395.14 50.0619L393.173 50.4261ZM394.9 54.6794C395.721 55.7982 396.857 56.5598 398.218 56.8622L398.652 54.9098C397.78 54.7162 397.056 54.2378 396.513 53.4966L394.9 54.6794ZM398.167 56.8495C399.408 57.1943 400.875 57.32 402.527 57.32V55.32C400.954 55.32 399.693 55.1977 398.702 54.9225L398.167 56.8495ZM402.527 57.32C404.118 57.32 405.584 57.194 406.824 56.8495L406.289 54.9225C405.297 55.198 404.035 55.32 402.527 55.32V57.32ZM406.774 56.8622C408.157 56.5546 409.211 55.7806 410.065 54.7127L408.504 53.4633C407.87 54.2554 407.188 54.7214 406.34 54.9098L406.774 56.8622ZM410.071 54.7058C410.895 53.6566 411.432 52.174 411.756 50.4261L409.789 50.0619C409.493 51.662 409.038 52.7834 408.498 53.4702L410.071 54.7058ZM411.755 50.4328C412.081 48.7375 412.269 46.4375 412.269 43.672H410.269C410.269 46.3625 410.085 48.5265 409.791 50.0552L411.755 50.4328ZM412.269 43.672C412.269 40.782 412.081 38.485 411.756 36.7319L409.789 37.0961C410.085 38.691 410.269 40.858 410.269 43.672H412.269ZM411.756 36.7319C411.432 34.984 410.895 33.5014 410.071 32.4522L408.498 33.6878C409.038 34.3746 409.493 35.496 409.789 37.0961L411.756 36.7319ZM410.044 32.4192C409.197 31.4317 408.152 30.6641 406.774 30.3578L406.34 32.3102C407.193 32.4999 407.884 32.9723 408.525 33.7208L410.044 32.4192ZM406.774 30.3578C405.593 30.0955 404.156 29.9 402.527 29.9V31.9C403.997 31.9 405.288 32.0765 406.34 32.3102L406.774 30.3578ZM402.527 64.93C398.979 64.93 396.046 64.6231 393.631 63.9163L393.07 65.8357C395.739 66.6169 398.882 66.93 402.527 66.93V64.93ZM393.604 63.9086C391.15 63.2659 389.22 62.1728 387.759 60.5995L386.294 61.9605C388.057 63.8592 390.343 65.1221 393.097 65.8434L393.604 63.9086ZM387.734 60.5729C386.211 59.0498 385.045 56.9257 384.336 54.2076L382.401 54.7124C383.18 57.6983 384.495 60.1622 386.319 61.9871L387.734 60.5729ZM384.331 54.188C383.56 51.4596 383.191 47.9654 383.191 43.672H381.191C381.191 48.0586 381.565 51.7564 382.406 54.732L384.331 54.188ZM383.191 43.672C383.191 39.2495 383.561 35.6397 384.389 32.8595L382.472 32.2885C381.564 35.3363 381.191 39.1665 381.191 43.672H383.191ZM384.387 32.8652C385.223 30.1183 386.392 27.9938 387.969 26.4738L386.58 25.0342C384.685 26.8622 383.374 29.3257 382.474 32.2828L384.387 32.8652ZM387.982 26.4611C389.518 24.9247 391.46 23.8329 393.836 23.2535L393.362 21.3105C390.653 21.9711 388.379 23.2353 386.567 25.0469L387.982 26.4611ZM393.836 23.2535C396.293 22.6542 399.189 22.29 402.527 22.29V20.29C399.044 20.29 395.988 20.6698 393.362 21.3105L393.836 23.2535ZM402.527 22.29C405.802 22.29 408.698 22.654 411.156 23.2535L411.63 21.3105C409.004 20.67 405.948 20.29 402.527 20.29V22.29ZM411.156 23.2535C413.531 23.8329 415.473 24.9247 417.009 26.4611L418.424 25.0469C416.612 23.2353 414.338 21.9711 411.63 21.3105L411.156 23.2535ZM417.009 26.4611C418.534 27.9859 419.706 30.1183 420.542 32.8652L422.455 32.2828C421.555 29.3257 420.247 26.8701 418.424 25.0469L417.009 26.4611ZM420.54 32.8595C421.371 35.648 421.801 39.2631 421.801 43.672H423.801C423.801 39.1529 423.362 35.328 422.457 32.2885L420.54 32.8595ZM421.801 43.672C421.801 47.9497 421.372 51.4575 420.655 54.2076L422.59 54.7124C423.361 51.7585 423.801 48.0743 423.801 43.672H421.801ZM420.66 54.188C419.888 56.9206 418.717 59.0569 417.244 60.5864L418.685 61.9736C420.436 60.1551 421.745 57.7034 422.585 54.732L420.66 54.188ZM417.232 60.5995C415.769 62.1745 413.837 63.2679 411.443 63.9102L411.962 65.8418C414.652 65.1201 416.936 63.8575 418.697 61.9605L417.232 60.5995ZM411.428 63.9145C408.946 64.6236 406.009 64.93 402.527 64.93V66.93C406.112 66.93 409.251 66.6164 411.977 65.8375L411.428 63.9145Z" fill="url(#paint1_linear_24_552)" mask="url(#path-3-outside-2_24_552)"/>
<mask id="path-5-outside-3_24_552" maskUnits="userSpaceOnUse" x="607.5" y="20" width="146" height="47" fill="black">
<rect fill="white" x="607.5" y="20" width="146" height="47"/>
<path d="M625.952 32.202V41.006H634.694V49.128H625.952V57.932H617.768V49.128H609.026V41.006H617.768V32.202H625.952ZM661.451 65H649.981V38.836H642.293V30.776H645.083C646.881 30.776 648.245 30.28 649.237 29.226C650.167 28.234 650.663 26.622 650.663 24.452V22.22H661.451V65ZM687.544 30.9C685.932 30.9 684.568 31.086 683.452 31.334C682.336 31.582 681.406 32.202 680.724 33.07C679.98 33.938 679.484 35.24 679.174 36.914C678.864 38.588 678.74 40.82 678.74 43.672C678.74 46.4 678.864 48.632 679.174 50.244C679.484 51.918 679.98 53.22 680.724 54.088C681.406 55.018 682.336 55.638 683.452 55.886C684.568 56.196 685.932 56.32 687.544 56.32C689.094 56.32 690.458 56.196 691.574 55.886C692.69 55.638 693.558 55.018 694.302 54.088C694.984 53.22 695.48 51.918 695.79 50.244C696.1 48.632 696.286 46.4 696.286 43.672C696.286 40.82 696.1 38.588 695.79 36.914C695.48 35.24 694.984 33.938 694.302 33.07C693.558 32.202 692.69 31.582 691.574 31.334C690.458 31.086 689.094 30.9 687.544 30.9ZM687.544 65.93C683.948 65.93 680.91 65.62 678.368 64.876C675.764 64.194 673.656 63.016 672.044 61.28C670.37 59.606 669.13 57.312 668.386 54.46C667.58 51.608 667.208 48.012 667.208 43.672C667.208 39.208 667.58 35.488 668.448 32.574C669.316 29.722 670.556 27.428 672.292 25.754C673.966 24.08 676.074 22.902 678.616 22.282C681.158 21.662 684.134 21.29 687.544 21.29C690.892 21.29 693.868 21.662 696.41 22.282C698.952 22.902 701.06 24.08 702.734 25.754C704.408 27.428 705.648 29.722 706.516 32.574C707.384 35.488 707.818 39.208 707.818 43.672C707.818 48.012 707.384 51.608 706.64 54.46C705.834 57.312 704.594 59.606 702.982 61.28C701.37 63.016 699.262 64.194 696.72 64.876C694.116 65.62 691.078 65.93 687.544 65.93ZM731.743 30.9C730.131 30.9 728.767 31.086 727.651 31.334C726.535 31.582 725.605 32.202 724.923 33.07C724.179 33.938 723.683 35.24 723.373 36.914C723.063 38.588 722.939 40.82 722.939 43.672C722.939 46.4 723.063 48.632 723.373 50.244C723.683 51.918 724.179 53.22 724.923 54.088C725.605 55.018 726.535 55.638 727.651 55.886C728.767 56.196 730.131 56.32 731.743 56.32C733.293 56.32 734.657 56.196 735.773 55.886C736.889 55.638 737.757 55.018 738.501 54.088C739.183 53.22 739.679 51.918 739.989 50.244C740.299 48.632 740.485 46.4 740.485 43.672C740.485 40.82 740.299 38.588 739.989 36.914C739.679 35.24 739.183 33.938 738.501 33.07C737.757 32.202 736.889 31.582 735.773 31.334C734.657 31.086 733.293 30.9 731.743 30.9ZM731.743 65.93C728.147 65.93 725.109 65.62 722.567 64.876C719.963 64.194 717.855 63.016 716.243 61.28C714.569 59.606 713.329 57.312 712.585 54.46C711.779 51.608 711.407 48.012 711.407 43.672C711.407 39.208 711.779 35.488 712.647 32.574C713.515 29.722 714.755 27.428 716.491 25.754C718.165 24.08 720.273 22.902 722.815 22.282C725.357 21.662 728.333 21.29 731.743 21.29C735.091 21.29 738.067 21.662 740.609 22.282C743.151 22.902 745.259 24.08 746.933 25.754C748.607 27.428 749.847 29.722 750.715 32.574C751.583 35.488 752.017 39.208 752.017 43.672C752.017 48.012 751.583 51.608 750.839 54.46C750.033 57.312 748.793 59.606 747.181 61.28C745.569 63.016 743.461 64.194 740.919 64.876C738.315 65.62 735.277 65.93 731.743 65.93Z"/>
</mask>
<path d="M625.952 32.202H626.952V31.202H625.952V32.202ZM625.952 41.006H624.952V42.006H625.952V41.006ZM634.694 41.006H635.694V40.006H634.694V41.006ZM634.694 49.128V50.128H635.694V49.128H634.694ZM625.952 49.128V48.128H624.952V49.128H625.952ZM625.952 57.932V58.932H626.952V57.932H625.952ZM617.768 57.932H616.768V58.932H617.768V57.932ZM617.768 49.128H618.768V48.128H617.768V49.128ZM609.026 49.128H608.026V50.128H609.026V49.128ZM609.026 41.006V40.006H608.026V41.006H609.026ZM617.768 41.006V42.006H618.768V41.006H617.768ZM617.768 32.202V31.202H616.768V32.202H617.768ZM624.952 32.202V41.006H626.952V32.202H624.952ZM625.952 42.006H634.694V40.006H625.952V42.006ZM633.694 41.006V49.128H635.694V41.006H633.694ZM634.694 48.128H625.952V50.128H634.694V48.128ZM624.952 49.128V57.932H626.952V49.128H624.952ZM625.952 56.932H617.768V58.932H625.952V56.932ZM618.768 57.932V49.128H616.768V57.932H618.768ZM617.768 48.128H609.026V50.128H617.768V48.128ZM610.026 49.128V41.006H608.026V49.128H610.026ZM609.026 42.006H617.768V40.006H609.026V42.006ZM618.768 41.006V32.202H616.768V41.006H618.768ZM617.768 33.202H625.952V31.202H617.768V33.202ZM661.451 65V66H662.451V65H661.451ZM649.981 65H648.981V66H649.981V65ZM649.981 38.836H650.981V37.836H649.981V38.836ZM642.293 38.836H641.293V39.836H642.293V38.836ZM642.293 30.776V29.776H641.293V30.776H642.293ZM649.237 29.226L649.966 29.9114L649.967 29.9099L649.237 29.226ZM650.663 22.22V21.22H649.663V22.22H650.663ZM661.451 22.22H662.451V21.22H661.451V22.22ZM661.451 64H649.981V66H661.451V64ZM650.981 65V38.836H648.981V65H650.981ZM649.981 37.836H642.293V39.836H649.981V37.836ZM643.293 38.836V30.776H641.293V38.836H643.293ZM642.293 31.776H645.083V29.776H642.293V31.776ZM645.083 31.776C647.076 31.776 648.735 31.2185 649.966 29.9114L648.509 28.5406C647.755 29.3415 646.687 29.776 645.083 29.776V31.776ZM649.967 29.9099C651.144 28.654 651.663 26.7426 651.663 24.452H649.663C649.663 26.5014 649.19 27.814 648.508 28.5421L649.967 29.9099ZM651.663 24.452V22.22H649.663V24.452H651.663ZM650.663 23.22H661.451V21.22H650.663V23.22ZM660.451 22.22V65H662.451V22.22H660.451ZM680.724 33.07L681.483 33.7208L681.497 33.7046L681.51 33.6878L680.724 33.07ZM679.174 36.914L680.157 37.0961V37.0961L679.174 36.914ZM679.174 50.244L680.157 50.0619L680.156 50.0552L679.174 50.244ZM680.724 54.088L681.531 53.4966L681.508 53.466L681.483 53.4372L680.724 54.088ZM683.452 55.886L683.72 54.9225L683.695 54.9155L683.669 54.9098L683.452 55.886ZM691.574 55.886L691.357 54.9098L691.332 54.9155L691.307 54.9225L691.574 55.886ZM694.302 54.088L695.083 54.7127L695.088 54.7058L694.302 54.088ZM695.79 50.244L694.808 50.0551L694.807 50.0619L695.79 50.244ZM695.79 36.914L694.807 37.0961V37.0961L695.79 36.914ZM694.302 33.07L695.088 32.4522L695.075 32.4354L695.061 32.4192L694.302 33.07ZM678.368 64.876L678.649 63.9163L678.635 63.9122L678.622 63.9086L678.368 64.876ZM672.044 61.28L672.777 60.5995L672.764 60.586L672.751 60.5729L672.044 61.28ZM668.386 54.46L669.354 54.2076L669.351 54.1978L669.348 54.188L668.386 54.46ZM668.448 32.574L667.491 32.2828L667.49 32.2885L668.448 32.574ZM672.292 25.754L672.986 26.4738L672.993 26.4675L672.999 26.4611L672.292 25.754ZM678.616 22.282L678.853 23.2535V23.2535L678.616 22.282ZM696.41 22.282L696.173 23.2535V23.2535L696.41 22.282ZM702.734 25.754L703.441 25.0469V25.0469L702.734 25.754ZM706.516 32.574L707.475 32.2885L707.473 32.2828L706.516 32.574ZM706.64 54.46L707.602 54.732L707.605 54.7222L707.608 54.7124L706.64 54.46ZM702.982 61.28L702.262 60.5864L702.256 60.5929L702.249 60.5995L702.982 61.28ZM696.72 64.876L696.461 63.9102L696.453 63.9123L696.445 63.9145L696.72 64.876ZM687.544 29.9C685.854 29.9 684.417 30.0951 683.235 30.3578L683.669 32.3102C684.719 32.0769 686.01 31.9 687.544 31.9V29.9ZM683.235 30.3578C681.88 30.6591 680.753 31.4143 679.938 32.4522L681.51 33.6878C682.059 32.9897 682.793 32.5049 683.669 32.3102L683.235 30.3578ZM679.965 32.4192C679.053 33.4828 678.514 34.9876 678.191 36.7319L680.157 37.0961C680.454 35.4924 680.907 34.3932 681.483 33.7208L679.965 32.4192ZM678.191 36.7319C677.864 38.4986 677.74 40.8049 677.74 43.672H679.74C679.74 40.8351 679.865 38.6774 680.157 37.0961L678.191 36.7319ZM677.74 43.672C677.74 46.4139 677.864 48.7239 678.192 50.4328L680.156 50.0552C679.865 48.5401 679.74 46.3861 679.74 43.672H677.74ZM678.191 50.4261C678.514 52.1704 679.053 53.6752 679.965 54.7388L681.483 53.4372C680.907 52.7648 680.454 51.6656 680.157 50.0619L678.191 50.4261ZM679.918 54.6794C680.738 55.7982 681.875 56.5598 683.235 56.8622L683.669 54.9098C682.798 54.7162 682.074 54.2378 681.531 53.4966L679.918 54.6794ZM683.185 56.8495C684.426 57.1943 685.892 57.32 687.544 57.32V55.32C685.972 55.32 684.711 55.1977 683.72 54.9225L683.185 56.8495ZM687.544 57.32C689.136 57.32 690.602 57.194 691.842 56.8495L691.307 54.9225C690.315 55.198 689.052 55.32 687.544 55.32V57.32ZM691.791 56.8622C693.175 56.5546 694.229 55.7806 695.083 54.7127L693.521 53.4633C692.888 54.2554 692.205 54.7214 691.357 54.9098L691.791 56.8622ZM695.088 54.7058C695.913 53.6566 696.45 52.174 696.773 50.4261L694.807 50.0619C694.511 51.662 694.055 52.7834 693.516 53.4702L695.088 54.7058ZM696.772 50.4328C697.098 48.7375 697.286 46.4375 697.286 43.672H695.286C695.286 46.3625 695.102 48.5265 694.808 50.0552L696.772 50.4328ZM697.286 43.672C697.286 40.782 697.098 38.485 696.773 36.7319L694.807 37.0961C695.102 38.691 695.286 40.858 695.286 43.672H697.286ZM696.773 36.7319C696.45 34.984 695.913 33.5014 695.088 32.4522L693.516 33.6878C694.055 34.3746 694.511 35.496 694.807 37.0961L696.773 36.7319ZM695.061 32.4192C694.215 31.4317 693.169 30.6641 691.791 30.3578L691.357 32.3102C692.211 32.4999 692.901 32.9723 693.543 33.7208L695.061 32.4192ZM691.791 30.3578C690.611 30.0955 689.174 29.9 687.544 29.9V31.9C689.015 31.9 690.306 32.0765 691.357 32.3102L691.791 30.3578ZM687.544 64.93C683.997 64.93 681.064 64.6231 678.649 63.9163L678.087 65.8357C680.756 66.6169 683.9 66.93 687.544 66.93V64.93ZM678.622 63.9086C676.168 63.2659 674.238 62.1728 672.777 60.5995L671.311 61.9605C673.075 63.8592 675.361 65.1221 678.115 65.8434L678.622 63.9086ZM672.751 60.5729C671.228 59.0498 670.063 56.9257 669.354 54.2076L667.419 54.7124C668.197 57.6983 669.512 60.1622 671.337 61.9871L672.751 60.5729ZM669.348 54.188C668.577 51.4596 668.208 47.9654 668.208 43.672H666.208C666.208 48.0586 666.583 51.7564 667.424 54.732L669.348 54.188ZM668.208 43.672C668.208 39.2495 668.578 35.6397 669.407 32.8595L667.49 32.2885C666.582 35.3363 666.208 39.1665 666.208 43.672H668.208ZM669.405 32.8652C670.241 30.1183 671.41 27.9938 672.986 26.4738L671.598 25.0342C669.702 26.8622 668.391 29.3257 667.491 32.2828L669.405 32.8652ZM672.999 26.4611C674.536 24.9247 676.478 23.8329 678.853 23.2535L678.379 21.3105C675.671 21.9711 673.397 23.2353 671.585 25.0469L672.999 26.4611ZM678.853 23.2535C681.311 22.6542 684.206 22.29 687.544 22.29V20.29C684.062 20.29 681.006 20.6698 678.379 21.3105L678.853 23.2535ZM687.544 22.29C690.819 22.29 693.715 22.654 696.173 23.2535L696.647 21.3105C694.021 20.67 690.965 20.29 687.544 20.29V22.29ZM696.173 23.2535C698.549 23.8329 700.491 24.9247 702.027 26.4611L703.441 25.0469C701.63 23.2353 699.356 21.9711 696.647 21.3105L696.173 23.2535ZM702.027 26.4611C703.552 27.9859 704.723 30.1183 705.559 32.8652L707.473 32.2828C706.573 29.3257 705.264 26.8701 703.441 25.0469L702.027 26.4611ZM705.558 32.8595C706.388 35.648 706.818 39.2631 706.818 43.672H708.818C708.818 39.1529 708.38 35.328 707.475 32.2885L705.558 32.8595ZM706.818 43.672C706.818 47.9497 706.39 51.4575 705.673 54.2076L707.608 54.7124C708.378 51.7585 708.818 48.0743 708.818 43.672H706.818ZM705.678 54.188C704.906 56.9206 703.735 59.0569 702.262 60.5864L703.702 61.9736C705.454 60.1551 706.763 57.7034 707.602 54.732L705.678 54.188ZM702.249 60.5995C700.787 62.1745 698.855 63.2679 696.461 63.9102L696.979 65.8418C699.669 65.1201 701.953 63.8575 703.715 61.9605L702.249 60.5995ZM696.445 63.9145C693.963 64.6236 691.027 64.93 687.544 64.93V66.93C691.13 66.93 694.269 66.6164 696.995 65.8375L696.445 63.9145ZM724.923 33.07L725.683 33.7208L725.697 33.7046L725.71 33.6878L724.923 33.07ZM723.373 36.914L724.357 37.0961V37.0961L723.373 36.914ZM723.373 50.244L724.357 50.0619L724.355 50.0552L723.373 50.244ZM724.923 54.088L725.73 53.4966L725.707 53.466L725.683 53.4372L724.923 54.088ZM727.651 55.886L727.919 54.9225L727.894 54.9155L727.868 54.9098L727.651 55.886ZM735.773 55.886L735.556 54.9098L735.531 54.9155L735.506 54.9225L735.773 55.886ZM738.501 54.088L739.282 54.7127L739.288 54.7058L738.501 54.088ZM739.989 50.244L739.007 50.0551L739.006 50.0619L739.989 50.244ZM739.989 36.914L739.006 37.0961V37.0961L739.989 36.914ZM738.501 33.07L739.288 32.4522L739.275 32.4354L739.261 32.4192L738.501 33.07ZM722.567 64.876L722.848 63.9163L722.835 63.9122L722.821 63.9086L722.567 64.876ZM716.243 61.28L716.976 60.5995L716.964 60.586L716.95 60.5729L716.243 61.28ZM712.585 54.46L713.553 54.2076L713.55 54.1978L713.548 54.188L712.585 54.46ZM712.647 32.574L711.691 32.2828L711.689 32.2885L712.647 32.574ZM716.491 25.754L717.186 26.4738L717.192 26.4675L717.198 26.4611L716.491 25.754ZM722.815 22.282L723.052 23.2535V23.2535L722.815 22.282ZM740.609 22.282L740.372 23.2535V23.2535L740.609 22.282ZM746.933 25.754L747.64 25.0469V25.0469L746.933 25.754ZM750.715 32.574L751.674 32.2885L751.672 32.2828L750.715 32.574ZM750.839 54.46L751.802 54.732L751.804 54.7222L751.807 54.7124L750.839 54.46ZM747.181 61.28L746.461 60.5864L746.455 60.5929L746.449 60.5995L747.181 61.28ZM740.919 64.876L740.66 63.9102L740.652 63.9123L740.645 63.9145L740.919 64.876ZM731.743 29.9C730.053 29.9 728.617 30.0951 727.434 30.3578L727.868 32.3102C728.918 32.0769 730.209 31.9 731.743 31.9V29.9ZM727.434 30.3578C726.079 30.6591 724.952 31.4143 724.137 32.4522L725.71 33.6878C726.258 32.9897 726.992 32.5049 727.868 32.3102L727.434 30.3578ZM724.164 32.4192C723.252 33.4828 722.713 34.9876 722.39 36.7319L724.357 37.0961C724.654 35.4924 725.106 34.3932 725.683 33.7208L724.164 32.4192ZM722.39 36.7319C722.063 38.4986 721.939 40.8049 721.939 43.672H723.939C723.939 40.8351 724.064 38.6774 724.357 37.0961L722.39 36.7319ZM721.939 43.672C721.939 46.4139 722.063 48.7239 722.391 50.4328L724.355 50.0552C724.064 48.5401 723.939 46.3861 723.939 43.672H721.939ZM722.39 50.4261C722.713 52.1704 723.253 53.6752 724.164 54.7388L725.683 53.4372C725.106 52.7648 724.654 51.6656 724.357 50.0619L722.39 50.4261ZM724.117 54.6794C724.937 55.7982 726.074 56.5598 727.434 56.8622L727.868 54.9098C726.997 54.7162 726.273 54.2378 725.73 53.4966L724.117 54.6794ZM727.384 56.8495C728.625 57.1943 730.092 57.32 731.743 57.32V55.32C730.171 55.32 728.91 55.1977 727.919 54.9225L727.384 56.8495ZM731.743 57.32C733.335 57.32 734.801 57.194 736.041 56.8495L735.506 54.9225C734.514 55.198 733.252 55.32 731.743 55.32V57.32ZM735.99 56.8622C737.374 56.5546 738.428 55.7806 739.282 54.7127L737.721 53.4633C737.087 54.2554 736.404 54.7214 735.556 54.9098L735.99 56.8622ZM739.288 54.7058C740.112 53.6566 740.649 52.174 740.973 50.4261L739.006 50.0619C738.71 51.662 738.255 52.7834 737.715 53.4702L739.288 54.7058ZM740.971 50.4328C741.297 48.7375 741.485 46.4375 741.485 43.672H739.485C739.485 46.3625 739.301 48.5265 739.007 50.0552L740.971 50.4328ZM741.485 43.672C741.485 40.782 741.297 38.485 740.973 36.7319L739.006 37.0961C739.301 38.691 739.485 40.858 739.485 43.672H741.485ZM740.973 36.7319C740.649 34.984 740.112 33.5014 739.288 32.4522L737.715 33.6878C738.255 34.3746 738.71 35.496 739.006 37.0961L740.973 36.7319ZM739.261 32.4192C738.414 31.4317 737.369 30.6641 735.99 30.3578L735.556 32.3102C736.41 32.4999 737.101 32.9723 737.742 33.7208L739.261 32.4192ZM735.99 30.3578C734.81 30.0955 733.373 29.9 731.743 29.9V31.9C733.214 31.9 734.505 32.0765 735.556 32.3102L735.99 30.3578ZM731.743 64.93C728.196 64.93 725.263 64.6231 722.848 63.9163L722.286 65.8357C724.956 66.6169 728.099 66.93 731.743 66.93V64.93ZM722.821 63.9086C720.367 63.2659 718.437 62.1728 716.976 60.5995L715.511 61.9605C717.274 63.8592 719.56 65.1221 722.314 65.8434L722.821 63.9086ZM716.95 60.5729C715.427 59.0498 714.262 56.9257 713.553 54.2076L711.618 54.7124C712.397 57.6983 713.711 60.1622 715.536 61.9871L716.95 60.5729ZM713.548 54.188C712.777 51.4596 712.407 47.9654 712.407 43.672H710.407C710.407 48.0586 710.782 51.7564 711.623 54.732L713.548 54.188ZM712.407 43.672C712.407 39.2495 712.778 35.6397 713.606 32.8595L711.689 32.2885C710.781 35.3363 710.407 39.1665 710.407 43.672H712.407ZM713.604 32.8652C714.44 30.1183 715.609 27.9938 717.186 26.4738L715.797 25.0342C713.901 26.8622 712.591 29.3257 711.691 32.2828L713.604 32.8652ZM717.198 26.4611C718.735 24.9247 720.677 23.8329 723.052 23.2535L722.578 21.3105C719.87 21.9711 717.596 23.2353 715.784 25.0469L717.198 26.4611ZM723.052 23.2535C725.51 22.6542 728.406 22.29 731.743 22.29V20.29C728.261 20.29 725.205 20.6698 722.578 21.3105L723.052 23.2535ZM731.743 22.29C735.018 22.29 737.914 22.654 740.372 23.2535L740.846 21.3105C738.22 20.67 735.164 20.29 731.743 20.29V22.29ZM740.372 23.2535C742.748 23.8329 744.69 24.9247 746.226 26.4611L747.64 25.0469C745.829 23.2353 743.555 21.9711 740.846 21.3105L740.372 23.2535ZM746.226 26.4611C747.751 27.9859 748.923 30.1183 749.759 32.8652L751.672 32.2828C750.772 29.3257 749.464 26.8701 747.64 25.0469L746.226 26.4611ZM749.757 32.8595C750.588 35.648 751.017 39.2631 751.017 43.672H753.017C753.017 39.1529 752.579 35.328 751.674 32.2885L749.757 32.8595ZM751.017 43.672C751.017 47.9497 750.589 51.4575 749.872 54.2076L751.807 54.7124C752.578 51.7585 753.017 48.0743 753.017 43.672H751.017ZM749.877 54.188C749.105 56.9206 747.934 59.0569 746.461 60.5864L747.902 61.9736C749.653 60.1551 750.962 57.7034 751.802 54.732L749.877 54.188ZM746.449 60.5995C744.986 62.1745 743.054 63.2679 740.66 63.9102L741.178 65.8418C743.869 65.1201 746.153 63.8575 747.914 61.9605L746.449 60.5995ZM740.645 63.9145C738.163 64.6236 735.226 64.93 731.743 64.93V66.93C735.329 66.93 738.468 66.6164 741.194 65.8375L740.645 63.9145Z" fill="url(#paint2_linear_24_552)" mask="url(#path-5-outside-3_24_552)"/>
<path d="M41.2661 100.33C40.1001 100.33 39.1981 100.044 38.5381 99.428C37.8781 98.812 37.5481 97.954 37.5481 96.854C37.5481 96.392 37.6141 95.952 37.7681 95.534C37.9001 95.138 38.1421 94.786 38.4721 94.478C38.8021 94.192 39.2421 93.972 39.7701 93.796C40.2981 93.62 40.9361 93.532 41.7281 93.532C42.1681 93.532 42.5421 93.554 42.8721 93.554C43.2021 93.554 43.5101 93.576 43.7741 93.576C44.0381 93.598 44.3021 93.62 44.5661 93.642C44.8081 93.664 45.0721 93.686 45.3361 93.686V92.85C45.3361 92.366 45.1821 92.014 44.8741 91.794C44.5661 91.596 44.1041 91.486 43.4441 91.486C42.8281 91.486 42.3881 91.596 42.0801 91.772C41.7721 91.948 41.5741 92.3 41.5301 92.806H37.8561C37.9001 92.036 38.0321 91.376 38.2961 90.848C38.5601 90.32 38.9121 89.902 39.3961 89.572C39.8581 89.264 40.4301 89.022 41.1341 88.89C41.8161 88.758 42.6081 88.67 43.5321 88.67C45.2701 88.67 46.6121 89 47.5801 89.638C48.5481 90.276 49.0321 91.332 49.0321 92.806V100H45.3361V97.91H44.9621C44.7201 98.702 44.2801 99.318 43.6421 99.714C43.0041 100.132 42.2121 100.33 41.2661 100.33ZM43.0921 97.712C43.6641 97.712 44.1921 97.602 44.6321 97.338C45.0721 97.074 45.2921 96.634 45.3361 96.018V95.446C44.8961 95.424 44.5221 95.402 44.1921 95.38C43.8401 95.38 43.5321 95.358 43.2461 95.358C42.8281 95.358 42.4981 95.402 42.2561 95.468C42.0141 95.556 41.8381 95.644 41.7061 95.754C41.5741 95.864 41.4861 95.996 41.4421 96.128C41.3981 96.26 41.3981 96.414 41.3981 96.546C41.3981 96.986 41.5301 97.272 41.8161 97.448C42.1021 97.624 42.5201 97.712 43.0921 97.712ZM58.2278 93.07C58.2278 92.454 58.0518 92.036 57.7438 91.816C57.4138 91.596 56.9298 91.486 56.3138 91.486C55.7198 91.486 55.2578 91.618 54.9058 91.882C54.5538 92.146 54.3778 92.52 54.3558 93.048V100H50.6598V89H54.3558V91.266H54.7298C54.9058 90.43 55.3018 89.792 55.8738 89.352C56.4458 88.912 57.1718 88.67 58.0518 88.67C58.6238 88.67 59.1518 88.736 59.6358 88.868C60.1198 89 60.5158 89.198 60.8678 89.484C61.1978 89.792 61.4618 90.188 61.6378 90.672C61.8138 91.156 61.9238 91.772 61.9238 92.52V100H58.2278V93.07ZM69.3804 97.514C70.1724 97.514 70.7444 97.316 71.1404 96.876C71.5144 96.436 71.7124 95.666 71.7124 94.566C71.7124 93.422 71.5144 92.608 71.1184 92.168C70.7224 91.728 70.1504 91.486 69.3804 91.486C68.5884 91.486 67.9944 91.706 67.6204 92.146C67.2464 92.586 67.0704 93.4 67.0704 94.566C67.0704 95.666 67.2464 96.436 67.6204 96.876C67.9944 97.316 68.5884 97.514 69.3804 97.514ZM69.3804 88.67C70.3924 88.67 71.2724 88.78 72.0204 88.956C72.7684 89.154 73.4064 89.484 73.9124 89.924C74.3964 90.386 74.7704 91.002 75.0344 91.75C75.2764 92.498 75.4084 93.444 75.4084 94.566C75.4084 95.666 75.2764 96.59 75.0344 97.316C74.7704 98.064 74.3964 98.658 73.9124 99.098C73.4064 99.538 72.7684 99.868 72.0204 100.044C71.2724 100.242 70.3924 100.33 69.3804 100.33C68.3684 100.33 67.4884 100.242 66.7404 100.044C65.9924 99.868 65.3544 99.538 64.8704 99.098C64.3644 98.658 63.9904 98.064 63.7484 97.316C63.4844 96.59 63.3744 95.666 63.3744 94.566C63.3744 93.444 63.4844 92.498 63.7484 91.75C63.9904 91.002 64.3644 90.386 64.8704 89.924C65.3544 89.484 65.9924 89.154 66.7404 88.956C67.4884 88.78 68.3684 88.67 69.3804 88.67ZM81.9946 91.2C81.3346 91.2 80.8726 91.288 80.6086 91.464C80.3446 91.64 80.2346 91.86 80.2346 92.124C80.2346 92.388 80.3226 92.564 80.5426 92.674C80.7626 92.806 81.0486 92.894 81.4226 92.96L84.3926 93.51C85.4486 93.73 86.2186 94.06 86.7466 94.544C87.2526 95.028 87.5166 95.732 87.5166 96.634C87.5166 97.206 87.4066 97.734 87.2306 98.196C87.0546 98.658 86.7466 99.054 86.3286 99.362C85.8886 99.67 85.3386 99.912 84.6566 100.088C83.9526 100.264 83.1166 100.33 82.1046 100.33C81.1366 100.33 80.3006 100.264 79.6186 100.132C78.9366 100 78.3646 99.78 77.9246 99.45C77.4846 99.142 77.1546 98.724 76.9346 98.196C76.7146 97.668 76.5826 97.03 76.5606 96.238H80.1026C80.1246 96.854 80.3226 97.25 80.6966 97.47C81.0706 97.69 81.5766 97.8 82.1926 97.8C82.9406 97.8 83.4246 97.712 83.6886 97.514C83.9526 97.338 84.0846 97.074 84.0846 96.744C84.0846 96.48 83.9746 96.282 83.7546 96.172C83.5346 96.062 83.2266 95.974 82.8526 95.886L79.7506 95.292C78.8266 95.116 78.1006 94.786 77.5726 94.302C77.0446 93.818 76.8026 93.07 76.8026 92.102C76.8026 91.618 76.8686 91.178 77.0446 90.76C77.2206 90.342 77.5066 89.968 77.9026 89.66C78.2986 89.352 78.8486 89.11 79.5086 88.934C80.1686 88.758 80.9826 88.67 81.9726 88.67C82.8526 88.67 83.6226 88.736 84.2826 88.868C84.9426 89 85.4926 89.22 85.9326 89.528C86.3726 89.836 86.7246 90.254 86.9666 90.738C87.2086 91.244 87.3406 91.86 87.3846 92.586H83.9086C83.8646 92.058 83.6666 91.684 83.2706 91.486C82.8746 91.31 82.4566 91.2 81.9946 91.2ZM97.787 100.33C97.061 100.33 96.423 100.242 95.895 100.066C95.345 99.89 94.883 99.56 94.531 99.12C94.157 98.68 93.871 98.108 93.695 97.36C93.519 96.612 93.431 95.688 93.431 94.544C93.431 93.422 93.519 92.476 93.695 91.728C93.871 90.98 94.157 90.364 94.531 89.902C94.883 89.462 95.345 89.132 95.895 88.956C96.423 88.78 97.061 88.67 97.787 88.67C98.755 88.67 99.525 88.912 100.119 89.352C100.713 89.814 101.109 90.452 101.329 91.266H101.703V84.82H105.399V100H101.703V97.734H101.329C101.109 98.57 100.713 99.23 100.119 99.67C99.525 100.11 98.755 100.33 97.787 100.33ZM99.503 97.514C100.119 97.514 100.625 97.36 101.065 97.052C101.483 96.744 101.703 96.216 101.703 95.424V93.576C101.703 92.806 101.483 92.256 101.065 91.948C100.625 91.64 100.119 91.486 99.503 91.486C99.063 91.486 98.689 91.53 98.381 91.618C98.073 91.706 97.809 91.86 97.633 92.08C97.457 92.3 97.325 92.608 97.237 93.004C97.149 93.4 97.105 93.928 97.105 94.544C97.105 95.16 97.127 95.666 97.215 96.062C97.303 96.458 97.435 96.744 97.633 96.964C97.809 97.184 98.073 97.316 98.381 97.404C98.689 97.492 99.063 97.514 99.503 97.514ZM118.671 94.984H110.641V95.028C110.641 95.974 110.839 96.634 111.235 96.986C111.631 97.338 112.181 97.514 112.929 97.514C113.501 97.514 113.963 97.426 114.337 97.206C114.689 96.986 114.909 96.612 114.975 96.04H118.671C118.627 96.854 118.451 97.536 118.187 98.086C117.923 98.636 117.549 99.076 117.065 99.406C116.581 99.758 116.009 100 115.327 100.132C114.623 100.264 113.831 100.33 112.929 100.33C111.917 100.33 111.037 100.242 110.289 100.044C109.541 99.868 108.903 99.538 108.419 99.098C107.935 98.658 107.561 98.064 107.319 97.316C107.055 96.59 106.945 95.666 106.945 94.566C106.945 93.444 107.055 92.498 107.319 91.75C107.561 91.002 107.935 90.386 108.419 89.924C108.903 89.484 109.541 89.154 110.289 88.956C111.037 88.78 111.895 88.67 112.907 88.67C114.777 88.67 116.207 89.066 117.197 89.814C118.165 90.562 118.671 91.86 118.671 93.664V94.984ZM110.641 93.84H114.953C114.953 92.96 114.755 92.344 114.403 91.992C114.051 91.662 113.545 91.486 112.885 91.486C112.225 91.486 111.675 91.64 111.279 91.948C110.883 92.256 110.663 92.828 110.641 93.664V93.84ZM28.243 118.984H20.213V119.028C20.213 119.974 20.411 120.634 20.807 120.986C21.203 121.338 21.753 121.514 22.501 121.514C23.073 121.514 23.535 121.426 23.909 121.206C24.261 120.986 24.481 120.612 24.547 120.04H28.243C28.199 120.854 28.023 121.536 27.759 122.086C27.495 122.636 27.121 123.076 26.637 123.406C26.153 123.758 25.581 124 24.899 124.132C24.195 124.264 23.403 124.33 22.501 124.33C21.489 124.33 20.609 124.242 19.861 124.044C19.113 123.868 18.475 123.538 17.991 123.098C17.507 122.658 17.133 122.064 16.891 121.316C16.627 120.59 16.517 119.666 16.517 118.566C16.517 117.444 16.627 116.498 16.891 115.75C17.133 115.002 17.507 114.386 17.991 113.924C18.475 113.484 19.113 113.154 19.861 112.956C20.609 112.78 21.467 112.67 22.479 112.67C24.349 112.67 25.779 113.066 26.769 113.814C27.737 114.562 28.243 115.86 28.243 117.664V118.984ZM20.213 117.84H24.525C24.525 116.96 24.327 116.344 23.975 115.992C23.623 115.662 23.117 115.486 22.457 115.486C21.797 115.486 21.247 115.64 20.851 115.948C20.455 116.256 20.235 116.828 20.213 117.664V117.84ZM34.6723 120.392L32.6703 124H28.4463L32.2303 118.412L28.6003 113H32.8903L34.6943 116.41L36.4763 113H40.7443L37.1143 118.412L40.8983 124H36.6523L34.6723 120.392ZM49.3772 124.33C48.4092 124.33 47.6172 124.11 47.0232 123.67C46.4292 123.23 46.0332 122.57 45.8352 121.734H45.4612V127.96H41.7652V113H45.4612V115.266H45.8352C46.0332 114.452 46.4292 113.814 47.0232 113.352C47.6172 112.912 48.4092 112.67 49.3772 112.67C50.0812 112.67 50.7192 112.78 51.2692 112.956C51.7972 113.132 52.2592 113.462 52.6332 113.902C52.9852 114.364 53.2712 114.98 53.4472 115.728C53.6232 116.476 53.7332 117.422 53.7332 118.544C53.7332 119.688 53.6232 120.612 53.4472 121.36C53.2712 122.108 52.9852 122.68 52.6332 123.12C52.2592 123.56 51.7972 123.89 51.2692 124.066C50.7192 124.242 50.0812 124.33 49.3772 124.33ZM47.6612 115.486C47.0452 115.486 46.5172 115.64 46.1212 115.926C45.7032 116.212 45.4832 116.718 45.4612 117.466V119.424C45.4612 120.216 45.6592 120.744 46.0992 121.052C46.5172 121.36 47.0452 121.514 47.6612 121.514C48.1012 121.514 48.4752 121.492 48.7832 121.404C49.0912 121.316 49.3332 121.184 49.5312 120.964C49.7072 120.744 49.8392 120.458 49.9272 120.062C50.0152 119.666 50.0592 119.16 50.0592 118.544C50.0592 117.928 50.0152 117.4 49.9272 117.004C49.8392 116.608 49.6852 116.3 49.5092 116.08C49.3332 115.86 49.0912 115.706 48.7832 115.618C48.4752 115.53 48.1012 115.486 47.6612 115.486ZM66.8289 118.984H58.7989V119.028C58.7989 119.974 58.9969 120.634 59.3929 120.986C59.7889 121.338 60.3389 121.514 61.0869 121.514C61.6589 121.514 62.1209 121.426 62.4949 121.206C62.8469 120.986 63.0669 120.612 63.1329 120.04H66.8289C66.7849 120.854 66.6089 121.536 66.3449 122.086C66.0809 122.636 65.7069 123.076 65.2229 123.406C64.7389 123.758 64.1669 124 63.4849 124.132C62.7809 124.264 61.9889 124.33 61.0869 124.33C60.0749 124.33 59.1949 124.242 58.4469 124.044C57.6989 123.868 57.0609 123.538 56.5769 123.098C56.0929 122.658 55.7189 122.064 55.4769 121.316C55.2129 120.59 55.1029 119.666 55.1029 118.566C55.1029 117.444 55.2129 116.498 55.4769 115.75C55.7189 115.002 56.0929 114.386 56.5769 113.924C57.0609 113.484 57.6989 113.154 58.4469 112.956C59.1949 112.78 60.0529 112.67 61.0649 112.67C62.9349 112.67 64.3649 113.066 65.3549 113.814C66.3229 114.562 66.8289 115.86 66.8289 117.664V118.984ZM58.7989 117.84H63.1109C63.1109 116.96 62.9129 116.344 62.5609 115.992C62.2089 115.662 61.7029 115.486 61.0429 115.486C60.3829 115.486 59.8329 115.64 59.4369 115.948C59.0409 116.256 58.8209 116.828 58.7989 117.664V117.84ZM76.9439 113V116.3H74.4139C73.5559 116.278 72.9399 116.432 72.5879 116.784C72.2359 117.136 72.0379 117.62 72.0159 118.28V124H68.3199V113H72.0159V116.058H72.3899C72.4779 115.596 72.5879 115.178 72.7419 114.804C72.8739 114.43 73.0719 114.1 73.3359 113.836C73.5779 113.572 73.8859 113.374 74.2599 113.22C74.6119 113.088 75.0739 113 75.6019 113H76.9439ZM81.8363 113V124H78.1403V113H81.8363ZM78.0523 111.57V108.842H81.9243V111.57H78.0523ZM95.2098 118.984H87.1798V119.028C87.1798 119.974 87.3778 120.634 87.7738 120.986C88.1698 121.338 88.7198 121.514 89.4678 121.514C90.0398 121.514 90.5018 121.426 90.8758 121.206C91.2278 120.986 91.4478 120.612 91.5138 120.04H95.2098C95.1658 120.854 94.9898 121.536 94.7258 122.086C94.4618 122.636 94.0878 123.076 93.6038 123.406C93.1198 123.758 92.5478 124 91.8658 124.132C91.1618 124.264 90.3698 124.33 89.4678 124.33C88.4558 124.33 87.5758 124.242 86.8278 124.044C86.0798 123.868 85.4418 123.538 84.9578 123.098C84.4738 122.658 84.0998 122.064 83.8578 121.316C83.5938 120.59 83.4838 119.666 83.4838 118.566C83.4838 117.444 83.5938 116.498 83.8578 115.75C84.0998 115.002 84.4738 114.386 84.9578 113.924C85.4418 113.484 86.0798 113.154 86.8278 112.956C87.5758 112.78 88.4338 112.67 89.4458 112.67C91.3158 112.67 92.7458 113.066 93.7358 113.814C94.7038 114.562 95.2098 115.86 95.2098 117.664V118.984ZM87.1798 117.84H91.4918C91.4918 116.96 91.2938 116.344 90.9418 115.992C90.5898 115.662 90.0838 115.486 89.4238 115.486C88.7638 115.486 88.2138 115.64 87.8178 115.948C87.4218 116.256 87.2018 116.828 87.1798 117.664V117.84ZM88.1478 111.57H85.2218L89.2698 107.72L93.4498 111.57H90.5238L89.2918 110.14L88.1478 111.57ZM104.269 117.07C104.269 116.454 104.093 116.036 103.785 115.816C103.455 115.596 102.971 115.486 102.355 115.486C101.761 115.486 101.299 115.618 100.947 115.882C100.595 116.146 100.419 116.52 100.397 117.048V124H96.7008V113H100.397V115.266H100.771C100.947 114.43 101.343 113.792 101.915 113.352C102.487 112.912 103.213 112.67 104.093 112.67C104.665 112.67 105.193 112.736 105.677 112.868C106.161 113 106.557 113.198 106.909 113.484C107.239 113.792 107.503 114.188 107.679 114.672C107.855 115.156 107.965 115.772 107.965 116.52V124H104.269V117.07ZM121.141 119.468C121.097 120.392 120.921 121.184 120.657 121.8C120.393 122.416 120.019 122.922 119.535 123.296C119.051 123.67 118.479 123.934 117.797 124.088C117.093 124.264 116.301 124.33 115.399 124.33C114.387 124.33 113.507 124.242 112.759 124.044C112.011 123.868 111.373 123.538 110.889 123.098C110.405 122.658 110.031 122.064 109.789 121.316C109.525 120.59 109.415 119.666 109.415 118.566C109.415 117.444 109.525 116.498 109.789 115.75C110.031 115.002 110.405 114.386 110.889 113.924C111.373 113.484 112.011 113.154 112.759 112.956C113.507 112.78 114.387 112.67 115.399 112.67C116.279 112.67 117.071 112.758 117.775 112.912C118.457 113.066 119.029 113.33 119.513 113.682C119.997 114.056 120.371 114.54 120.635 115.156C120.899 115.772 121.075 116.52 121.119 117.4H117.423C117.335 116.674 117.115 116.168 116.763 115.904C116.411 115.64 115.949 115.486 115.399 115.486C114.607 115.486 114.035 115.706 113.661 116.146C113.287 116.586 113.111 117.4 113.111 118.566C113.111 119.666 113.287 120.436 113.661 120.876C114.013 121.316 114.607 121.514 115.399 121.514C115.971 121.514 116.433 121.382 116.807 121.074C117.159 120.766 117.379 120.238 117.445 119.468H121.141ZM126.352 113V124H122.656V113H126.352ZM122.568 111.57V108.842H126.44V111.57H122.568ZM131.629 124.33C130.463 124.33 129.561 124.044 128.901 123.428C128.241 122.812 127.911 121.954 127.911 120.854C127.911 120.392 127.977 119.952 128.131 119.534C128.263 119.138 128.505 118.786 128.835 118.478C129.165 118.192 129.605 117.972 130.133 117.796C130.661 117.62 131.299 117.532 132.091 117.532C132.531 117.532 132.905 117.554 133.235 117.554C133.565 117.554 133.873 117.576 134.137 117.576C134.401 117.598 134.665 117.62 134.929 117.642C135.171 117.664 135.435 117.686 135.699 117.686V116.85C135.699 116.366 135.545 116.014 135.237 115.794C134.929 115.596 134.467 115.486 133.807 115.486C133.191 115.486 132.751 115.596 132.443 115.772C132.135 115.948 131.937 116.3 131.893 116.806H128.219C128.263 116.036 128.395 115.376 128.659 114.848C128.923 114.32 129.275 113.902 129.759 113.572C130.221 113.264 130.793 113.022 131.497 112.89C132.179 112.758 132.971 112.67 133.895 112.67C135.633 112.67 136.975 113 137.943 113.638C138.911 114.276 139.395 115.332 139.395 116.806V124H135.699V121.91H135.325C135.083 122.702 134.643 123.318 134.005 123.714C133.367 124.132 132.575 124.33 131.629 124.33ZM133.455 121.712C134.027 121.712 134.555 121.602 134.995 121.338C135.435 121.074 135.655 120.634 135.699 120.018V119.446C135.259 119.424 134.885 119.402 134.555 119.38C134.203 119.38 133.895 119.358 133.609 119.358C133.191 119.358 132.861 119.402 132.619 119.468C132.377 119.556 132.201 119.644 132.069 119.754C131.937 119.864 131.849 119.996 131.805 120.128C131.761 120.26 131.761 120.414 131.761 120.546C131.761 120.986 131.893 121.272 132.179 121.448C132.465 121.624 132.883 121.712 133.455 121.712Z" fill="url(#paint3_linear_24_552)"/>
<path d="M303.026 90.562C303.026 92.674 302.586 94.236 301.706 95.226C300.826 96.216 299.506 96.7 297.724 96.7H293.104V100H289.034V84.82H297.68C298.604 84.82 299.418 84.93 300.1 85.15C300.76 85.37 301.31 85.7 301.75 86.14C302.19 86.602 302.498 87.196 302.718 87.922C302.916 88.648 303.026 89.528 303.026 90.562ZM293.104 88.076V93.444H296.69C297.438 93.444 297.988 93.246 298.362 92.828C298.736 92.432 298.934 91.706 298.934 90.672C298.934 90.166 298.89 89.748 298.824 89.396C298.736 89.066 298.626 88.802 298.45 88.604C298.274 88.406 298.032 88.274 297.746 88.186C297.438 88.12 297.086 88.076 296.646 88.076H293.104ZM313.123 89V92.3H310.593C309.735 92.278 309.119 92.432 308.767 92.784C308.415 93.136 308.217 93.62 308.195 94.28V100H304.499V89H308.195V92.058H308.569C308.657 91.596 308.767 91.178 308.921 90.804C309.053 90.43 309.251 90.1 309.515 89.836C309.757 89.572 310.065 89.374 310.439 89.22C310.791 89.088 311.253 89 311.781 89H313.123ZM319.997 97.514C320.789 97.514 321.361 97.316 321.757 96.876C322.131 96.436 322.329 95.666 322.329 94.566C322.329 93.422 322.131 92.608 321.735 92.168C321.339 91.728 320.767 91.486 319.997 91.486C319.205 91.486 318.611 91.706 318.237 92.146C317.863 92.586 317.687 93.4 317.687 94.566C317.687 95.666 317.863 96.436 318.237 96.876C318.611 97.316 319.205 97.514 319.997 97.514ZM319.997 88.67C321.009 88.67 321.889 88.78 322.637 88.956C323.385 89.154 324.023 89.484 324.529 89.924C325.013 90.386 325.387 91.002 325.651 91.75C325.893 92.498 326.025 93.444 326.025 94.566C326.025 95.666 325.893 96.59 325.651 97.316C325.387 98.064 325.013 98.658 324.529 99.098C324.023 99.538 323.385 99.868 322.637 100.044C321.889 100.242 321.009 100.33 319.997 100.33C318.985 100.33 318.105 100.242 317.357 100.044C316.609 99.868 315.971 99.538 315.487 99.098C314.981 98.658 314.607 98.064 314.365 97.316C314.101 96.59 313.991 95.666 313.991 94.566C313.991 93.444 314.101 92.498 314.365 91.75C314.607 91.002 314.981 90.386 315.487 89.924C315.971 89.484 316.609 89.154 317.357 88.956C318.105 88.78 318.985 88.67 319.997 88.67ZM326.825 101.1C327.133 101.1 327.331 100.99 327.463 100.77C327.573 100.55 327.639 100.154 327.639 99.582V89H331.335V99.802C331.335 100.462 331.247 101.056 331.115 101.584C330.983 102.112 330.741 102.552 330.433 102.926C330.125 103.3 329.707 103.586 329.201 103.784C328.695 103.982 328.079 104.07 327.375 104.07H326.715V101.1H326.825ZM327.551 87.57V84.842H331.423V87.57H327.551ZM344.644 94.984H336.614V95.028C336.614 95.974 336.812 96.634 337.208 96.986C337.604 97.338 338.154 97.514 338.902 97.514C339.474 97.514 339.936 97.426 340.31 97.206C340.662 96.986 340.882 96.612 340.948 96.04H344.644C344.6 96.854 344.424 97.536 344.16 98.086C343.896 98.636 343.522 99.076 343.038 99.406C342.554 99.758 341.982 100 341.3 100.132C340.596 100.264 339.804 100.33 338.902 100.33C337.89 100.33 337.01 100.242 336.262 100.044C335.514 99.868 334.876 99.538 334.392 99.098C333.908 98.658 333.534 98.064 333.292 97.316C333.028 96.59 332.918 95.666 332.918 94.566C332.918 93.444 333.028 92.498 333.292 91.75C333.534 91.002 333.908 90.386 334.392 89.924C334.876 89.484 335.514 89.154 336.262 88.956C337.01 88.78 337.868 88.67 338.88 88.67C340.75 88.67 342.18 89.066 343.17 89.814C344.138 90.562 344.644 91.86 344.644 93.664V94.984ZM336.614 93.84H340.926C340.926 92.96 340.728 92.344 340.376 91.992C340.024 91.662 339.518 91.486 338.858 91.486C338.198 91.486 337.648 91.64 337.252 91.948C336.856 92.256 336.636 92.828 336.614 93.664V93.84ZM354.033 100H351.393C349.897 100 348.819 99.648 348.159 98.944C347.499 98.24 347.169 97.228 347.169 95.93V91.816H345.409V89H347.169V84.82H350.865V89H354.033V91.816H350.865V95.71C350.865 96.238 350.975 96.59 351.217 96.766C351.437 96.942 351.789 97.03 352.273 97.03H354.033V100ZM361.053 97.514C361.845 97.514 362.417 97.316 362.813 96.876C363.187 96.436 363.385 95.666 363.385 94.566C363.385 93.422 363.187 92.608 362.791 92.168C362.395 91.728 361.823 91.486 361.053 91.486C360.261 91.486 359.667 91.706 359.293 92.146C358.919 92.586 358.743 93.4 358.743 94.566C358.743 95.666 358.919 96.436 359.293 96.876C359.667 97.316 360.261 97.514 361.053 97.514ZM361.053 88.67C362.065 88.67 362.945 88.78 363.693 88.956C364.441 89.154 365.079 89.484 365.585 89.924C366.069 90.386 366.443 91.002 366.707 91.75C366.949 92.498 367.081 93.444 367.081 94.566C367.081 95.666 366.949 96.59 366.707 97.316C366.443 98.064 366.069 98.658 365.585 99.098C365.079 99.538 364.441 99.868 363.693 100.044C362.945 100.242 362.065 100.33 361.053 100.33C360.041 100.33 359.161 100.242 358.413 100.044C357.665 99.868 357.027 99.538 356.543 99.098C356.037 98.658 355.663 98.064 355.421 97.316C355.157 96.59 355.047 95.666 355.047 94.566C355.047 93.444 355.157 92.498 355.421 91.75C355.663 91.002 356.037 90.386 356.543 89.924C357.027 89.484 357.665 89.154 358.413 88.956C359.161 88.78 360.041 88.67 361.053 88.67ZM373.667 91.2C373.007 91.2 372.545 91.288 372.281 91.464C372.017 91.64 371.907 91.86 371.907 92.124C371.907 92.388 371.995 92.564 372.215 92.674C372.435 92.806 372.721 92.894 373.095 92.96L376.065 93.51C377.121 93.73 377.891 94.06 378.419 94.544C378.925 95.028 379.189 95.732 379.189 96.634C379.189 97.206 379.079 97.734 378.903 98.196C378.727 98.658 378.419 99.054 378.001 99.362C377.561 99.67 377.011 99.912 376.329 100.088C375.625 100.264 374.789 100.33 373.777 100.33C372.809 100.33 371.973 100.264 371.291 100.132C370.609 100 370.037 99.78 369.597 99.45C369.157 99.142 368.827 98.724 368.607 98.196C368.387 97.668 368.255 97.03 368.233 96.238H371.775C371.797 96.854 371.995 97.25 372.369 97.47C372.743 97.69 373.249 97.8 373.865 97.8C374.613 97.8 375.097 97.712 375.361 97.514C375.625 97.338 375.757 97.074 375.757 96.744C375.757 96.48 375.647 96.282 375.427 96.172C375.207 96.062 374.899 95.974 374.525 95.886L371.423 95.292C370.499 95.116 369.773 94.786 369.245 94.302C368.717 93.818 368.475 93.07 368.475 92.102C368.475 91.618 368.541 91.178 368.717 90.76C368.893 90.342 369.179 89.968 369.575 89.66C369.971 89.352 370.521 89.11 371.181 88.934C371.841 88.758 372.655 88.67 373.645 88.67C374.525 88.67 375.295 88.736 375.955 88.868C376.615 89 377.165 89.22 377.605 89.528C378.045 89.836 378.397 90.254 378.639 90.738C378.881 91.244 379.013 91.86 379.057 92.586H375.581C375.537 92.058 375.339 91.684 374.943 91.486C374.547 91.31 374.129 91.2 373.667 91.2ZM396.83 95.468C396.786 96.392 396.61 97.184 396.346 97.8C396.082 98.416 395.708 98.922 395.224 99.296C394.74 99.67 394.168 99.934 393.486 100.088C392.782 100.264 391.99 100.33 391.088 100.33C390.076 100.33 389.196 100.242 388.448 100.044C387.7 99.868 387.062 99.538 386.578 99.098C386.094 98.658 385.72 98.064 385.478 97.316C385.214 96.59 385.104 95.666 385.104 94.566C385.104 93.444 385.214 92.498 385.478 91.75C385.72 91.002 386.094 90.386 386.578 89.924C387.062 89.484 387.7 89.154 388.448 88.956C389.196 88.78 390.076 88.67 391.088 88.67C391.968 88.67 392.76 88.758 393.464 88.912C394.146 89.066 394.718 89.33 395.202 89.682C395.686 90.056 396.06 90.54 396.324 91.156C396.588 91.772 396.764 92.52 396.808 93.4H393.112C393.024 92.674 392.804 92.168 392.452 91.904C392.1 91.64 391.638 91.486 391.088 91.486C390.296 91.486 389.724 91.706 389.35 92.146C388.976 92.586 388.8 93.4 388.8 94.566C388.8 95.666 388.976 96.436 389.35 96.876C389.702 97.316 390.296 97.514 391.088 97.514C391.66 97.514 392.122 97.382 392.496 97.074C392.848 96.766 393.068 96.238 393.134 95.468H396.83ZM406.88 89V92.3H404.35C403.492 92.278 402.876 92.432 402.524 92.784C402.172 93.136 401.974 93.62 401.952 94.28V100H398.256V89H401.952V92.058H402.326C402.414 91.596 402.524 91.178 402.678 90.804C402.81 90.43 403.008 90.1 403.272 89.836C403.514 89.572 403.822 89.374 404.196 89.22C404.548 89.088 405.01 89 405.538 89H406.88ZM411.773 89V100H408.077V89H411.773ZM407.989 87.57V84.842H411.861V87.57H407.989ZM417.05 100.33C415.884 100.33 414.982 100.044 414.322 99.428C413.662 98.812 413.332 97.954 413.332 96.854C413.332 96.392 413.398 95.952 413.552 95.534C413.684 95.138 413.926 94.786 414.256 94.478C414.586 94.192 415.026 93.972 415.554 93.796C416.082 93.62 416.72 93.532 417.512 93.532C417.952 93.532 418.326 93.554 418.656 93.554C418.986 93.554 419.294 93.576 419.558 93.576C419.822 93.598 420.086 93.62 420.35 93.642C420.592 93.664 420.856 93.686 421.12 93.686V92.85C421.12 92.366 420.966 92.014 420.658 91.794C420.35 91.596 419.888 91.486 419.228 91.486C418.612 91.486 418.172 91.596 417.864 91.772C417.556 91.948 417.358 92.3 417.314 92.806H413.64C413.684 92.036 413.816 91.376 414.08 90.848C414.344 90.32 414.696 89.902 415.18 89.572C415.642 89.264 416.214 89.022 416.918 88.89C417.6 88.758 418.392 88.67 419.316 88.67C421.054 88.67 422.396 89 423.364 89.638C424.332 90.276 424.816 91.332 424.816 92.806V100H421.12V97.91H420.746C420.504 98.702 420.064 99.318 419.426 99.714C418.788 100.132 417.996 100.33 417.05 100.33ZM418.876 97.712C419.448 97.712 419.976 97.602 420.416 97.338C420.856 97.074 421.076 96.634 421.12 96.018V95.446C420.68 95.424 420.306 95.402 419.976 95.38C419.624 95.38 419.316 95.358 419.03 95.358C418.612 95.358 418.282 95.402 418.04 95.468C417.798 95.556 417.622 95.644 417.49 95.754C417.358 95.864 417.27 95.996 417.226 96.128C417.182 96.26 417.182 96.414 417.182 96.546C417.182 96.986 417.314 97.272 417.6 97.448C417.886 97.624 418.304 97.712 418.876 97.712ZM430.624 100.33C429.898 100.33 429.26 100.242 428.732 100.066C428.182 99.89 427.72 99.56 427.368 99.12C426.994 98.68 426.708 98.108 426.532 97.36C426.356 96.612 426.268 95.688 426.268 94.544C426.268 93.422 426.356 92.476 426.532 91.728C426.708 90.98 426.994 90.364 427.368 89.902C427.72 89.462 428.182 89.132 428.732 88.956C429.26 88.78 429.898 88.67 430.624 88.67C431.592 88.67 432.362 88.912 432.956 89.352C433.55 89.814 433.946 90.452 434.166 91.266H434.54V84.82H438.236V100H434.54V97.734H434.166C433.946 98.57 433.55 99.23 432.956 99.67C432.362 100.11 431.592 100.33 430.624 100.33ZM432.34 97.514C432.956 97.514 433.462 97.36 433.902 97.052C434.32 96.744 434.54 96.216 434.54 95.424V93.576C434.54 92.806 434.32 92.256 433.902 91.948C433.462 91.64 432.956 91.486 432.34 91.486C431.9 91.486 431.526 91.53 431.218 91.618C430.91 91.706 430.646 91.86 430.47 92.08C430.294 92.3 430.162 92.608 430.074 93.004C429.986 93.4 429.942 93.928 429.942 94.544C429.942 95.16 429.964 95.666 430.052 96.062C430.14 96.458 430.272 96.744 430.47 96.964C430.646 97.184 430.91 97.316 431.218 97.404C431.526 97.492 431.9 97.514 432.34 97.514ZM445.788 97.514C446.58 97.514 447.152 97.316 447.548 96.876C447.922 96.436 448.12 95.666 448.12 94.566C448.12 93.422 447.922 92.608 447.526 92.168C447.13 91.728 446.558 91.486 445.788 91.486C444.996 91.486 444.402 91.706 444.028 92.146C443.654 92.586 443.478 93.4 443.478 94.566C443.478 95.666 443.654 96.436 444.028 96.876C444.402 97.316 444.996 97.514 445.788 97.514ZM445.788 88.67C446.8 88.67 447.68 88.78 448.428 88.956C449.176 89.154 449.814 89.484 450.32 89.924C450.804 90.386 451.178 91.002 451.442 91.75C451.684 92.498 451.816 93.444 451.816 94.566C451.816 95.666 451.684 96.59 451.442 97.316C451.178 98.064 450.804 98.658 450.32 99.098C449.814 99.538 449.176 99.868 448.428 100.044C447.68 100.242 446.8 100.33 445.788 100.33C444.776 100.33 443.896 100.242 443.148 100.044C442.4 99.868 441.762 99.538 441.278 99.098C440.772 98.658 440.398 98.064 440.156 97.316C439.892 96.59 439.782 95.666 439.782 94.566C439.782 93.444 439.892 92.498 440.156 91.75C440.398 91.002 440.772 90.386 441.278 89.924C441.762 89.484 442.4 89.154 443.148 88.956C443.896 88.78 444.776 88.67 445.788 88.67ZM458.402 91.2C457.742 91.2 457.28 91.288 457.016 91.464C456.752 91.64 456.642 91.86 456.642 92.124C456.642 92.388 456.73 92.564 456.95 92.674C457.17 92.806 457.456 92.894 457.83 92.96L460.8 93.51C461.856 93.73 462.626 94.06 463.154 94.544C463.66 95.028 463.924 95.732 463.924 96.634C463.924 97.206 463.814 97.734 463.638 98.196C463.462 98.658 463.154 99.054 462.736 99.362C462.296 99.67 461.746 99.912 461.064 100.088C460.36 100.264 459.524 100.33 458.512 100.33C457.544 100.33 456.708 100.264 456.026 100.132C455.344 100 454.772 99.78 454.332 99.45C453.892 99.142 453.562 98.724 453.342 98.196C453.122 97.668 452.99 97.03 452.968 96.238H456.51C456.532 96.854 456.73 97.25 457.104 97.47C457.478 97.69 457.984 97.8 458.6 97.8C459.348 97.8 459.832 97.712 460.096 97.514C460.36 97.338 460.492 97.074 460.492 96.744C460.492 96.48 460.382 96.282 460.162 96.172C459.942 96.062 459.634 95.974 459.26 95.886L456.158 95.292C455.234 95.116 454.508 94.786 453.98 94.302C453.452 93.818 453.21 93.07 453.21 92.102C453.21 91.618 453.276 91.178 453.452 90.76C453.628 90.342 453.914 89.968 454.31 89.66C454.706 89.352 455.256 89.11 455.916 88.934C456.576 88.758 457.39 88.67 458.38 88.67C459.26 88.67 460.03 88.736 460.69 88.868C461.35 89 461.9 89.22 462.34 89.528C462.78 89.836 463.132 90.254 463.374 90.738C463.616 91.244 463.748 91.86 463.792 92.586H460.316C460.272 92.058 460.074 91.684 459.678 91.486C459.282 91.31 458.864 91.2 458.402 91.2Z" fill="url(#paint4_linear_24_552)"/>
<path d="M594.408 95.468C594.364 96.392 594.188 97.184 593.924 97.8C593.66 98.416 593.286 98.922 592.802 99.296C592.318 99.67 591.746 99.934 591.064 100.088C590.36 100.264 589.568 100.33 588.666 100.33C587.654 100.33 586.774 100.242 586.026 100.044C585.278 99.868 584.64 99.538 584.156 99.098C583.672 98.658 583.298 98.064 583.056 97.316C582.792 96.59 582.682 95.666 582.682 94.566C582.682 93.444 582.792 92.498 583.056 91.75C583.298 91.002 583.672 90.386 584.156 89.924C584.64 89.484 585.278 89.154 586.026 88.956C586.774 88.78 587.654 88.67 588.666 88.67C589.546 88.67 590.338 88.758 591.042 88.912C591.724 89.066 592.296 89.33 592.78 89.682C593.264 90.056 593.638 90.54 593.902 91.156C594.166 91.772 594.342 92.52 594.386 93.4H590.69C590.602 92.674 590.382 92.168 590.03 91.904C589.678 91.64 589.216 91.486 588.666 91.486C587.874 91.486 587.302 91.706 586.928 92.146C586.554 92.586 586.378 93.4 586.378 94.566C586.378 95.666 586.554 96.436 586.928 96.876C587.28 97.316 587.874 97.514 588.666 97.514C589.238 97.514 589.7 97.382 590.074 97.074C590.426 96.766 590.646 96.238 590.712 95.468H594.408ZM599.575 100H595.879V84.82H599.575V100ZM605.097 89V100H601.401V89H605.097ZM601.313 87.57V84.842H605.185V87.57H601.313ZM618.471 94.984H610.441V95.028C610.441 95.974 610.639 96.634 611.035 96.986C611.431 97.338 611.981 97.514 612.729 97.514C613.301 97.514 613.763 97.426 614.137 97.206C614.489 96.986 614.709 96.612 614.775 96.04H618.471C618.427 96.854 618.251 97.536 617.987 98.086C617.723 98.636 617.349 99.076 616.865 99.406C616.381 99.758 615.809 100 615.127 100.132C614.423 100.264 613.631 100.33 612.729 100.33C611.716 100.33 610.837 100.242 610.089 100.044C609.341 99.868 608.703 99.538 608.219 99.098C607.735 98.658 607.361 98.064 607.119 97.316C606.855 96.59 606.745 95.666 606.745 94.566C606.745 93.444 606.855 92.498 607.119 91.75C607.361 91.002 607.735 90.386 608.219 89.924C608.703 89.484 609.341 89.154 610.089 88.956C610.837 88.78 611.695 88.67 612.707 88.67C614.577 88.67 616.007 89.066 616.997 89.814C617.965 90.562 618.471 91.86 618.471 93.664V94.984ZM610.441 93.84H614.753C614.753 92.96 614.555 92.344 614.203 91.992C613.851 91.662 613.345 91.486 612.685 91.486C612.025 91.486 611.475 91.64 611.079 91.948C610.683 92.256 610.463 92.828 610.441 93.664V93.84ZM627.53 93.07C627.53 92.454 627.354 92.036 627.046 91.816C626.716 91.596 626.232 91.486 625.616 91.486C625.022 91.486 624.56 91.618 624.208 91.882C623.856 92.146 623.68 92.52 623.658 93.048V100H619.962V89H623.658V91.266H624.032C624.208 90.43 624.604 89.792 625.176 89.352C625.748 88.912 626.474 88.67 627.354 88.67C627.926 88.67 628.454 88.736 628.938 88.868C629.422 89 629.818 89.198 630.17 89.484C630.5 89.792 630.764 90.188 630.94 90.672C631.116 91.156 631.226 91.772 631.226 92.52V100H627.53V93.07ZM640.75 100H638.11C636.614 100 635.536 99.648 634.876 98.944C634.216 98.24 633.886 97.228 633.886 95.93V91.816H632.126V89H633.886V84.82H637.582V89H640.75V91.816H637.582V95.71C637.582 96.238 637.692 96.59 637.934 96.766C638.154 96.942 638.506 97.03 638.99 97.03H640.75V100ZM653.49 94.984H645.46V95.028C645.46 95.974 645.658 96.634 646.054 96.986C646.45 97.338 647 97.514 647.748 97.514C648.32 97.514 648.782 97.426 649.156 97.206C649.508 96.986 649.728 96.612 649.794 96.04H653.49C653.446 96.854 653.27 97.536 653.006 98.086C652.742 98.636 652.368 99.076 651.884 99.406C651.4 99.758 650.828 100 650.146 100.132C649.442 100.264 648.65 100.33 647.748 100.33C646.736 100.33 645.856 100.242 645.108 100.044C644.36 99.868 643.722 99.538 643.238 99.098C642.754 98.658 642.38 98.064 642.138 97.316C641.874 96.59 641.764 95.666 641.764 94.566C641.764 93.444 641.874 92.498 642.138 91.75C642.38 91.002 642.754 90.386 643.238 89.924C643.722 89.484 644.36 89.154 645.108 88.956C645.856 88.78 646.714 88.67 647.726 88.67C649.596 88.67 651.026 89.066 652.016 89.814C652.984 90.562 653.49 91.86 653.49 93.664V94.984ZM645.46 93.84H649.772C649.772 92.96 649.574 92.344 649.222 91.992C648.87 91.662 648.364 91.486 647.704 91.486C647.044 91.486 646.494 91.64 646.098 91.948C645.702 92.256 645.482 92.828 645.46 93.664V93.84ZM660.019 91.2C659.359 91.2 658.897 91.288 658.633 91.464C658.369 91.64 658.259 91.86 658.259 92.124C658.259 92.388 658.347 92.564 658.567 92.674C658.787 92.806 659.073 92.894 659.447 92.96L662.417 93.51C663.473 93.73 664.243 94.06 664.771 94.544C665.277 95.028 665.541 95.732 665.541 96.634C665.541 97.206 665.431 97.734 665.255 98.196C665.079 98.658 664.771 99.054 664.353 99.362C663.913 99.67 663.363 99.912 662.681 100.088C661.977 100.264 661.141 100.33 660.129 100.33C659.161 100.33 658.325 100.264 657.643 100.132C656.961 100 656.389 99.78 655.949 99.45C655.509 99.142 655.179 98.724 654.959 98.196C654.739 97.668 654.607 97.03 654.585 96.238H658.127C658.149 96.854 658.347 97.25 658.721 97.47C659.095 97.69 659.601 97.8 660.217 97.8C660.965 97.8 661.449 97.712 661.713 97.514C661.977 97.338 662.109 97.074 662.109 96.744C662.109 96.48 661.999 96.282 661.779 96.172C661.559 96.062 661.251 95.974 660.877 95.886L657.775 95.292C656.851 95.116 656.125 94.786 655.597 94.302C655.069 93.818 654.827 93.07 654.827 92.102C654.827 91.618 654.893 91.178 655.069 90.76C655.245 90.342 655.531 89.968 655.927 89.66C656.323 89.352 656.873 89.11 657.533 88.934C658.193 88.758 659.007 88.67 659.997 88.67C660.877 88.67 661.647 88.736 662.307 88.868C662.967 89 663.517 89.22 663.957 89.528C664.397 89.836 664.749 90.254 664.991 90.738C665.233 91.244 665.365 91.86 665.409 92.586H661.933C661.889 92.058 661.691 91.684 661.295 91.486C660.899 91.31 660.481 91.2 660.019 91.2ZM676.927 91.2C676.267 91.2 675.805 91.288 675.541 91.464C675.277 91.64 675.167 91.86 675.167 92.124C675.167 92.388 675.255 92.564 675.475 92.674C675.695 92.806 675.981 92.894 676.355 92.96L679.325 93.51C680.381 93.73 681.151 94.06 681.679 94.544C682.185 95.028 682.449 95.732 682.449 96.634C682.449 97.206 682.339 97.734 682.163 98.196C681.987 98.658 681.679 99.054 681.261 99.362C680.821 99.67 680.271 99.912 679.589 100.088C678.885 100.264 678.049 100.33 677.037 100.33C676.069 100.33 675.233 100.264 674.551 100.132C673.869 100 673.297 99.78 672.857 99.45C672.417 99.142 672.087 98.724 671.867 98.196C671.647 97.668 671.515 97.03 671.493 96.238H675.035C675.057 96.854 675.255 97.25 675.629 97.47C676.003 97.69 676.509 97.8 677.125 97.8C677.873 97.8 678.357 97.712 678.621 97.514C678.885 97.338 679.017 97.074 679.017 96.744C679.017 96.48 678.907 96.282 678.687 96.172C678.467 96.062 678.159 95.974 677.785 95.886L674.683 95.292C673.759 95.116 673.033 94.786 672.505 94.302C671.977 93.818 671.735 93.07 671.735 92.102C671.735 91.618 671.801 91.178 671.977 90.76C672.153 90.342 672.439 89.968 672.835 89.66C673.231 89.352 673.781 89.11 674.441 88.934C675.101 88.758 675.915 88.67 676.905 88.67C677.785 88.67 678.555 88.736 679.215 88.868C679.875 89 680.425 89.22 680.865 89.528C681.305 89.836 681.657 90.254 681.899 90.738C682.141 91.244 682.273 91.86 682.317 92.586H678.841C678.797 92.058 678.599 91.684 678.203 91.486C677.807 91.31 677.389 91.2 676.927 91.2ZM687.267 100.33C686.101 100.33 685.199 100.044 684.539 99.428C683.879 98.812 683.549 97.954 683.549 96.854C683.549 96.392 683.615 95.952 683.769 95.534C683.901 95.138 684.143 94.786 684.473 94.478C684.803 94.192 685.243 93.972 685.771 93.796C686.299 93.62 686.937 93.532 687.729 93.532C688.169 93.532 688.543 93.554 688.873 93.554C689.203 93.554 689.511 93.576 689.775 93.576C690.039 93.598 690.303 93.62 690.567 93.642C690.809 93.664 691.073 93.686 691.337 93.686V92.85C691.337 92.366 691.183 92.014 690.875 91.794C690.567 91.596 690.105 91.486 689.445 91.486C688.829 91.486 688.389 91.596 688.081 91.772C687.773 91.948 687.575 92.3 687.531 92.806H683.857C683.901 92.036 684.033 91.376 684.297 90.848C684.561 90.32 684.913 89.902 685.397 89.572C685.859 89.264 686.431 89.022 687.135 88.89C687.817 88.758 688.609 88.67 689.533 88.67C691.271 88.67 692.613 89 693.581 89.638C694.549 90.276 695.033 91.332 695.033 92.806V100H691.337V97.91H690.963C690.721 98.702 690.281 99.318 689.643 99.714C689.005 100.132 688.213 100.33 687.267 100.33ZM689.093 97.712C689.665 97.712 690.193 97.602 690.633 97.338C691.073 97.074 691.293 96.634 691.337 96.018V95.446C690.897 95.424 690.523 95.402 690.193 95.38C689.841 95.38 689.533 95.358 689.247 95.358C688.829 95.358 688.499 95.402 688.257 95.468C688.015 95.556 687.839 95.644 687.707 95.754C687.575 95.864 687.487 95.996 687.443 96.128C687.399 96.26 687.399 96.414 687.399 96.546C687.399 96.986 687.531 97.272 687.817 97.448C688.103 97.624 688.521 97.712 689.093 97.712ZM704.559 100H701.919C700.423 100 699.345 99.648 698.685 98.944C698.025 98.24 697.695 97.228 697.695 95.93V91.816H695.935V89H697.695V84.82H701.391V89H704.559V91.816H701.391V95.71C701.391 96.238 701.501 96.59 701.743 96.766C701.963 96.942 702.315 97.03 702.799 97.03H704.559V100ZM709.533 89V100H705.837V89H709.533ZM705.749 87.57V84.842H709.621V87.57H705.749ZM716.394 91.2C715.734 91.2 715.272 91.288 715.008 91.464C714.744 91.64 714.634 91.86 714.634 92.124C714.634 92.388 714.722 92.564 714.942 92.674C715.162 92.806 715.448 92.894 715.822 92.96L718.792 93.51C719.848 93.73 720.618 94.06 721.146 94.544C721.652 95.028 721.916 95.732 721.916 96.634C721.916 97.206 721.806 97.734 721.63 98.196C721.454 98.658 721.146 99.054 720.728 99.362C720.288 99.67 719.738 99.912 719.056 100.088C718.352 100.264 717.516 100.33 716.504 100.33C715.536 100.33 714.7 100.264 714.018 100.132C713.336 100 712.764 99.78 712.324 99.45C711.884 99.142 711.554 98.724 711.334 98.196C711.114 97.668 710.982 97.03 710.96 96.238H714.502C714.524 96.854 714.722 97.25 715.096 97.47C715.47 97.69 715.976 97.8 716.592 97.8C717.34 97.8 717.824 97.712 718.088 97.514C718.352 97.338 718.484 97.074 718.484 96.744C718.484 96.48 718.374 96.282 718.154 96.172C717.934 96.062 717.626 95.974 717.252 95.886L714.15 95.292C713.226 95.116 712.5 94.786 711.972 94.302C711.444 93.818 711.202 93.07 711.202 92.102C711.202 91.618 711.268 91.178 711.444 90.76C711.62 90.342 711.906 89.968 712.302 89.66C712.698 89.352 713.248 89.11 713.908 88.934C714.568 88.758 715.382 88.67 716.372 88.67C717.252 88.67 718.022 88.736 718.682 88.868C719.342 89 719.892 89.22 720.332 89.528C720.772 89.836 721.124 90.254 721.366 90.738C721.608 91.244 721.74 91.86 721.784 92.586H718.308C718.264 92.058 718.066 91.684 717.67 91.486C717.274 91.31 716.856 91.2 716.394 91.2ZM729.044 87.636C728.34 87.636 728.01 88.01 728.01 88.736V89H731.156V91.816H728.01V100H724.314V91.816H722.554V89H724.314V88.736C724.314 88.186 724.38 87.68 724.534 87.196C724.666 86.712 724.908 86.294 725.26 85.942C725.59 85.59 726.03 85.326 726.58 85.128C727.108 84.93 727.79 84.82 728.582 84.82H731.156V87.636H729.044ZM743.531 94.984H735.501V95.028C735.501 95.974 735.699 96.634 736.095 96.986C736.491 97.338 737.041 97.514 737.789 97.514C738.361 97.514 738.823 97.426 739.197 97.206C739.549 96.986 739.769 96.612 739.835 96.04H743.531C743.487 96.854 743.311 97.536 743.047 98.086C742.783 98.636 742.409 99.076 741.925 99.406C741.441 99.758 740.869 100 740.187 100.132C739.483 100.264 738.691 100.33 737.789 100.33C736.777 100.33 735.897 100.242 735.149 100.044C734.401 99.868 733.763 99.538 733.279 99.098C732.795 98.658 732.421 98.064 732.179 97.316C731.915 96.59 731.805 95.666 731.805 94.566C731.805 93.444 731.915 92.498 732.179 91.75C732.421 91.002 732.795 90.386 733.279 89.924C733.763 89.484 734.401 89.154 735.149 88.956C735.897 88.78 736.755 88.67 737.767 88.67C739.637 88.67 741.067 89.066 742.057 89.814C743.025 90.562 743.531 91.86 743.531 93.664V94.984ZM735.501 93.84H739.813C739.813 92.96 739.615 92.344 739.263 91.992C738.911 91.662 738.405 91.486 737.745 91.486C737.085 91.486 736.535 91.64 736.139 91.948C735.743 92.256 735.523 92.828 735.501 93.664V93.84ZM748.806 89V100H745.11V89H748.806ZM745.022 87.57V84.842H748.894V87.57H745.022ZM758.527 100H755.887C754.391 100 753.313 99.648 752.653 98.944C751.993 98.24 751.663 97.228 751.663 95.93V91.816H749.903V89H751.663V84.82H755.359V89H758.527V91.816H755.359V95.71C755.359 96.238 755.469 96.59 755.711 96.766C755.931 96.942 756.283 97.03 756.767 97.03H758.527V100ZM765.547 97.514C766.339 97.514 766.911 97.316 767.307 96.876C767.681 96.436 767.879 95.666 767.879 94.566C767.879 93.422 767.681 92.608 767.285 92.168C766.889 91.728 766.317 91.486 765.547 91.486C764.755 91.486 764.161 91.706 763.787 92.146C763.413 92.586 763.237 93.4 763.237 94.566C763.237 95.666 763.413 96.436 763.787 96.876C764.161 97.316 764.755 97.514 765.547 97.514ZM765.547 88.67C766.559 88.67 767.439 88.78 768.187 88.956C768.935 89.154 769.573 89.484 770.079 89.924C770.563 90.386 770.937 91.002 771.201 91.75C771.443 92.498 771.575 93.444 771.575 94.566C771.575 95.666 771.443 96.59 771.201 97.316C770.937 98.064 770.563 98.658 770.079 99.098C769.573 99.538 768.935 99.868 768.187 100.044C767.439 100.242 766.559 100.33 765.547 100.33C764.535 100.33 763.655 100.242 762.907 100.044C762.159 99.868 761.521 99.538 761.037 99.098C760.531 98.658 760.157 98.064 759.915 97.316C759.651 96.59 759.541 95.666 759.541 94.566C759.541 93.444 759.651 92.498 759.915 91.75C760.157 91.002 760.531 90.386 761.037 89.924C761.521 89.484 762.159 89.154 762.907 88.956C763.655 88.78 764.535 88.67 765.547 88.67ZM778.162 91.2C777.502 91.2 777.04 91.288 776.776 91.464C776.512 91.64 776.402 91.86 776.402 92.124C776.402 92.388 776.49 92.564 776.71 92.674C776.93 92.806 777.216 92.894 777.59 92.96L780.56 93.51C781.616 93.73 782.386 94.06 782.914 94.544C783.42 95.028 783.684 95.732 783.684 96.634C783.684 97.206 783.574 97.734 783.398 98.196C783.222 98.658 782.914 99.054 782.496 99.362C782.056 99.67 781.506 99.912 780.824 100.088C780.12 100.264 779.284 100.33 778.272 100.33C777.304 100.33 776.468 100.264 775.786 100.132C775.104 100 774.532 99.78 774.092 99.45C773.652 99.142 773.322 98.724 773.102 98.196C772.882 97.668 772.75 97.03 772.728 96.238H776.27C776.292 96.854 776.49 97.25 776.864 97.47C777.238 97.69 777.744 97.8 778.36 97.8C779.108 97.8 779.592 97.712 779.856 97.514C780.12 97.338 780.252 97.074 780.252 96.744C780.252 96.48 780.142 96.282 779.922 96.172C779.702 96.062 779.394 95.974 779.02 95.886L775.918 95.292C774.994 95.116 774.268 94.786 773.74 94.302C773.212 93.818 772.97 93.07 772.97 92.102C772.97 91.618 773.036 91.178 773.212 90.76C773.388 90.342 773.674 89.968 774.07 89.66C774.466 89.352 775.016 89.11 775.676 88.934C776.336 88.758 777.15 88.67 778.14 88.67C779.02 88.67 779.79 88.736 780.45 88.868C781.11 89 781.66 89.22 782.1 89.528C782.54 89.836 782.892 90.254 783.134 90.738C783.376 91.244 783.508 91.86 783.552 92.586H780.076C780.032 92.058 779.834 91.684 779.438 91.486C779.042 91.31 778.624 91.2 778.162 91.2Z" fill="url(#paint5_linear_24_552)"/>
<line x1="217.5" x2="217.5" y2="114" stroke="url(#paint6_linear_24_552)"/>
<line x1="530.5" x2="530.5" y2="114" stroke="url(#paint7_linear_24_552)"/>
<defs>
<linearGradient id="paint0_linear_24_552" x1="48.6418" y1="33" x2="65.6405" y2="68.2374" gradientUnits="userSpaceOnUse">
<stop stop-color="#574487"/>
<stop offset="1" stop-color="#151121"/>
</linearGradient>
<linearGradient id="paint1_linear_24_552" x1="322.596" y1="33" x2="336.026" y2="71.7876" gradientUnits="userSpaceOnUse">
<stop stop-color="#574487"/>
<stop offset="1" stop-color="#151121"/>
</linearGradient>
<linearGradient id="paint2_linear_24_552" x1="630.02" y1="33" x2="641.511" y2="73.1485" gradientUnits="userSpaceOnUse">
<stop stop-color="#574487"/>
<stop offset="1" stop-color="#151121"/>
</linearGradient>
<linearGradient id="paint3_linear_24_552" x1="-0.876405" y1="69.75" x2="131.125" y2="148.319" gradientUnits="userSpaceOnUse">
<stop stop-color="#8776B2"/>
<stop offset="1" stop-color="#161222"/>
</linearGradient>
<linearGradient id="paint4_linear_24_552" x1="287.006" y1="69.75" x2="426.306" y2="163.824" gradientUnits="userSpaceOnUse">
<stop stop-color="#8776B2"/>
<stop offset="1" stop-color="#161222"/>
</linearGradient>
<linearGradient id="paint5_linear_24_552" x1="580.815" y1="69.75" x2="727.523" y2="187.859" gradientUnits="userSpaceOnUse">
<stop stop-color="#8776B2"/>
<stop offset="1" stop-color="#161222"/>
</linearGradient>
<linearGradient id="paint6_linear_24_552" x1="217" y1="19.3951" x2="215.191" y2="19.4235" gradientUnits="userSpaceOnUse">
<stop stop-color="#574487"/>
<stop offset="1" stop-color="#151121"/>
</linearGradient>
<linearGradient id="paint7_linear_24_552" x1="530" y1="19.3951" x2="528.191" y2="19.4235" gradientUnits="userSpaceOnUse">
<stop stop-color="#574487"/>
<stop offset="1" stop-color="#151121"/>
</linearGradient>
</defs>
</svg>
