<svg width="1440" height="127" viewBox="0 0 1440 127" fill="none" xmlns="http://www.w3.org/2000/svg">
<rect x="-29.5641" y="35.6852" width="1484.83" height="56.5067" transform="rotate(-0.0392426 -29.5641 35.6852)" fill="url(#paint0_linear_47_61)"/>
<rect x="-30.0507" y="70.287" width="1484.83" height="56.5067" transform="rotate(-2.70819 -30.0507 70.287)" fill="#D9D9D9"/>
<path d="M72.1553 99.3134L68.0349 99.5083L67.4851 87.885L71.6395 87.6884C72.8087 87.6331 73.8261 87.8182 74.6919 88.2437C75.5575 88.6654 76.2378 89.2987 76.7328 90.1437C77.2316 90.9885 77.5096 92.0144 77.5666 93.2214C77.6239 94.4322 77.4442 95.4835 77.0276 96.3754C76.6147 97.2671 75.9936 97.9658 75.1643 98.4714C74.3388 98.9769 73.3358 99.2576 72.1553 99.3134ZM70.3927 97.2865L71.9535 97.2127C72.68 97.1783 73.2849 97.0207 73.7684 96.74C74.2555 96.4553 74.611 96.0346 74.835 95.478C75.0625 94.9174 75.1558 94.2038 75.1148 93.3374C75.0742 92.4785 74.9143 91.7826 74.635 91.2498C74.3595 90.7167 73.9678 90.3333 73.46 90.0994C72.9522 89.8656 72.335 89.7659 71.6086 89.8002L70.0421 89.8743L70.3927 97.2865ZM83.598 98.9428C82.7012 98.9852 81.9208 98.8401 81.2566 98.5075C80.596 98.1709 80.0759 97.676 79.6961 97.0228C79.3161 96.3657 79.1044 95.5775 79.0609 94.6581C79.0185 93.7614 79.1553 92.9661 79.4714 92.2724C79.7874 91.5786 80.2524 91.0276 80.8664 90.6194C81.4842 90.211 82.2206 89.9865 83.0757 89.9461C83.6508 89.9189 84.1906 89.9862 84.695 90.1482C85.2031 90.3062 85.6512 90.5599 86.0393 90.9094C86.4313 91.2587 86.7444 91.7065 86.9788 92.2529C87.2131 92.7954 87.3477 93.4375 87.3828 94.1791L87.4142 94.8431L80.0531 95.1913L79.9823 93.693L85.0675 93.4525C85.051 93.1044 84.9607 92.7996 84.7967 92.5381C84.6326 92.2766 84.4127 92.0766 84.1369 91.9379C83.8647 91.7953 83.5527 91.7323 83.2008 91.749C82.8338 91.7664 82.5124 91.8669 82.2367 92.0506C81.9646 92.2303 81.7558 92.4658 81.6103 92.7571C81.4646 93.0446 81.398 93.3606 81.4106 93.7051L81.4779 95.1296C81.4983 95.561 81.5954 95.9299 81.7692 96.2364C81.9467 96.5428 82.1871 96.7741 82.4903 96.9304C82.7935 97.0867 83.1475 97.1553 83.5523 97.1361C83.821 97.1234 84.0651 97.074 84.2848 96.9877C84.5044 96.9015 84.6901 96.7789 84.8419 96.6201C84.9936 96.4612 85.1059 96.2701 85.1788 96.0467L87.4219 96.0885C87.3338 96.6311 87.1233 97.1113 86.7904 97.529C86.4611 97.9428 86.0255 98.2743 85.4837 98.5237C84.9454 98.7691 84.3169 98.9088 83.598 98.9428ZM96.1274 91.9339L93.9204 92.1748C93.8736 91.9874 93.7842 91.821 93.6522 91.6755C93.52 91.5263 93.3496 91.4111 93.141 91.33C92.936 91.2449 92.6935 91.209 92.4135 91.2222C92.0389 91.2399 91.7267 91.3343 91.477 91.5054C91.227 91.6727 91.1082 91.8869 91.1206 92.148C91.1304 92.3561 91.222 92.5281 91.3952 92.664C91.5685 92.7999 91.8596 92.9018 92.2686 92.9696L93.8614 93.2128C94.7172 93.3468 95.3623 93.5969 95.7968 93.9631C96.2312 94.3294 96.4633 94.8265 96.493 95.4546C96.52 96.026 96.3754 96.5353 96.059 96.9825C95.7465 97.4296 95.3046 97.788 94.7334 98.0577C94.1657 98.3235 93.5036 98.4743 92.7468 98.51C91.5928 98.5646 90.662 98.3679 89.9545 97.9197C89.2505 97.4676 88.8202 96.8282 88.6635 96.0013L91.0356 95.764C91.1242 96.1125 91.3109 96.3729 91.5959 96.5452C91.8807 96.7137 92.2388 96.7878 92.6701 96.7674C93.0939 96.7474 93.4305 96.6499 93.6801 96.475C93.9333 96.2962 94.0556 96.0762 94.0471 95.8149C94.0329 95.5956 93.9317 95.4203 93.7435 95.2889C93.5551 95.1537 93.2699 95.0572 92.8879 94.9995L91.364 94.7701C90.5047 94.6401 89.8569 94.3749 89.4209 93.9746C88.9886 93.5742 88.7571 93.0485 88.7263 92.3977C88.6998 91.8378 88.8283 91.3482 89.1119 90.929C89.3992 90.5097 89.8139 90.1772 90.3559 89.9316C90.9017 89.6859 91.5473 89.5454 92.2927 89.5101C93.3937 89.458 94.2712 89.6497 94.9251 90.0852C95.5827 90.5205 95.9835 91.1368 96.1274 91.9339ZM102.124 98.0665C101.227 98.1089 100.447 97.9638 99.7828 97.6312C99.1222 97.2946 98.602 96.7997 98.2222 96.1464C97.8423 95.4894 97.6306 94.7012 97.5871 93.7818C97.5447 92.885 97.6815 92.0898 97.9975 91.3961C98.3136 90.7023 98.7786 90.1513 99.3926 89.7431C100.01 89.3346 100.747 89.1102 101.602 89.0697C102.177 89.0425 102.717 89.1099 103.221 89.2719C103.729 89.4299 104.177 89.6836 104.565 90.0331C104.957 90.3824 105.271 90.8302 105.505 91.3765C105.739 91.9191 105.874 92.5612 105.909 93.3028L105.94 93.9668L98.5793 94.315L98.5084 92.8167L103.594 92.5761C103.577 92.2281 103.487 91.9233 103.323 91.6618C103.159 91.4003 102.939 91.2002 102.663 91.0616C102.391 90.919 102.079 90.856 101.727 90.8727C101.36 90.89 101.039 90.9906 100.763 91.1742C100.491 91.354 100.282 91.5895 100.136 91.8808C99.9908 92.1683 99.9242 92.4843 99.9367 92.8288L100.004 94.2533C100.025 94.6846 100.122 95.0536 100.295 95.3601C100.473 95.6664 100.713 95.8978 101.016 96.0541C101.32 96.2104 101.674 96.279 102.078 96.2598C102.347 96.2471 102.591 96.1976 102.811 96.1114C103.031 96.0252 103.216 95.9026 103.368 95.7438C103.52 95.5849 103.632 95.3938 103.705 95.1704L105.948 95.2122C105.86 95.7548 105.649 96.235 105.317 96.6527C104.987 97.0665 104.552 97.398 104.01 97.6474C103.472 97.8928 102.843 98.0325 102.124 98.0665ZM109.874 92.4781L110.113 97.518L107.695 97.6323L107.283 88.9148L109.587 88.8058L109.66 90.3439L109.762 90.339C109.931 89.8229 110.235 89.4065 110.675 89.0899C111.115 88.7695 111.659 88.594 112.306 88.5634C112.911 88.5348 113.445 88.6423 113.908 88.8858C114.371 89.1294 114.739 89.4912 115.012 89.9712C115.285 90.4475 115.437 91.0243 115.469 91.7016L115.732 97.2522L113.314 97.3665L113.072 92.2473C113.05 91.7136 112.894 91.3038 112.604 91.018C112.313 90.7284 111.926 90.595 111.442 90.6179C111.116 90.6333 110.832 90.7169 110.589 90.8687C110.35 91.0203 110.166 91.2338 110.039 91.5091C109.915 91.7804 109.86 92.1034 109.874 92.4781ZM125.04 88.0749L122.404 96.9365L119.68 97.0654L116.22 88.492L118.774 88.3712L120.88 94.5229L120.97 94.5186L122.48 88.1959L125.04 88.0749ZM130.355 96.7311C129.474 96.7728 128.702 96.6216 128.042 96.2774C127.384 95.9293 126.866 95.4267 126.486 94.7697C126.105 94.1089 125.894 93.332 125.852 92.4391C125.809 91.5386 125.946 90.7433 126.263 90.0534C126.579 89.3596 127.047 88.8104 127.669 88.4055C128.295 87.9967 129.048 87.7715 129.93 87.7298C130.811 87.6881 131.581 87.8413 132.238 88.1894C132.899 88.5336 133.419 89.0361 133.8 89.6969C134.18 90.3539 134.391 91.1327 134.433 92.0332C134.476 92.9261 134.339 93.7194 134.023 94.4132C133.706 95.1031 133.236 95.6525 132.61 96.0613C131.989 96.4661 131.237 96.6894 130.355 96.7311ZM130.278 94.8577C130.679 94.8387 131.009 94.7093 131.267 94.4696C131.524 94.2261 131.712 93.9025 131.829 93.4988C131.95 93.0948 131.999 92.6394 131.975 92.1324C131.951 91.6254 131.86 91.1765 131.701 90.7859C131.546 90.395 131.329 90.0906 131.049 89.8725C130.77 89.6544 130.429 89.5548 130.028 89.5738C129.623 89.5929 129.288 89.7244 129.023 89.9683C128.761 90.212 128.57 90.5358 128.449 90.9397C128.331 91.3434 128.285 91.7988 128.309 92.3058C128.333 92.8128 128.422 93.2617 128.577 93.6526C128.736 94.0432 128.957 94.3475 129.24 94.5654C129.527 94.7794 129.873 94.8768 130.278 94.8577ZM138.078 84.5458L138.628 96.1691L136.21 96.2835L135.66 84.6601L138.078 84.5458ZM148.279 86.9756L145.644 95.8373L142.92 95.9661L139.46 87.3928L142.014 87.272L144.119 93.4237L144.21 93.4194L145.72 87.0966L148.279 86.9756ZM153.629 95.6302C152.732 95.6726 151.952 95.5275 151.288 95.1949C150.627 94.8583 150.107 94.3634 149.727 93.7101C149.347 93.0531 149.135 92.2649 149.092 91.3455C149.05 90.4487 149.186 89.6535 149.502 88.9598C149.819 88.266 150.284 87.715 150.897 87.3068C151.515 86.8984 152.252 86.6739 153.107 86.6335C153.682 86.6063 154.222 86.6736 154.726 86.8356C155.234 86.9936 155.682 87.2473 156.07 87.5968C156.462 87.9461 156.775 88.3939 157.01 88.9403C157.244 89.4828 157.379 90.1249 157.414 90.8665L157.445 91.5305L150.084 91.8787L150.013 90.3804L155.099 90.1399C155.082 89.7918 154.992 89.487 154.828 89.2255C154.664 88.964 154.444 88.764 154.168 88.6253C153.896 88.4827 153.584 88.4197 153.232 88.4364C152.865 88.4537 152.544 88.5543 152.268 88.738C151.996 88.9177 151.787 89.1532 151.641 89.4445C151.496 89.732 151.429 90.048 151.442 90.3925L151.509 91.817C151.529 92.2484 151.626 92.6173 151.8 92.9238C151.978 93.2302 152.218 93.4615 152.521 93.6178C152.825 93.7741 153.179 93.8427 153.583 93.8235C153.852 93.8108 154.096 93.7613 154.316 93.6751C154.536 93.5889 154.721 93.4663 154.873 93.3075C155.025 93.1486 155.137 92.9575 155.21 92.7341L157.453 92.7759C157.365 93.3185 157.154 93.7987 156.821 94.2164C156.492 94.6302 156.057 94.9617 155.515 95.2111C154.977 95.4565 154.348 95.5962 153.629 95.6302ZM162.419 95.186C161.757 95.2173 161.149 95.0754 160.596 94.7603C160.046 94.4412 159.598 93.9561 159.253 93.3051C158.911 92.65 158.717 91.8363 158.671 90.8639C158.624 89.865 158.745 89.0269 159.035 88.3496C159.326 87.6684 159.73 87.1507 160.247 86.7963C160.769 86.4379 161.349 86.2436 161.989 86.2133C162.477 86.1902 162.888 86.2542 163.221 86.4053C163.558 86.5525 163.832 86.7442 164.044 86.9807C164.26 87.2132 164.427 87.4442 164.544 87.6738L164.617 87.6703L164.411 83.3002L166.823 83.1861L167.373 94.8095L164.989 94.9222L164.923 93.526L164.821 93.5309C164.719 93.7784 164.569 94.0263 164.372 94.2745C164.179 94.5187 163.922 94.7262 163.6 94.8969C163.282 95.0674 162.888 95.1638 162.419 95.186ZM163.094 93.2258C163.484 93.2073 163.808 93.0858 164.067 92.8612C164.329 92.6327 164.523 92.322 164.648 91.9293C164.778 91.5364 164.83 91.0807 164.805 90.5624C164.781 90.044 164.688 89.5972 164.526 89.2218C164.364 88.8465 164.142 88.5612 163.86 88.366C163.577 88.1708 163.241 88.0824 162.852 88.1008C162.454 88.1196 162.125 88.2433 161.863 88.4718C161.6 88.7004 161.408 89.009 161.286 89.3978C161.164 89.7866 161.115 90.2326 161.139 90.7358C161.163 91.2428 161.254 91.6879 161.413 92.071C161.575 92.4501 161.795 92.743 162.074 92.9498C162.357 93.1525 162.697 93.2445 163.094 93.2258ZM173.307 94.6994C172.426 94.7411 171.654 94.5899 170.994 94.2457C170.336 93.8976 169.818 93.395 169.438 92.738C169.057 92.0772 168.846 91.3003 168.804 90.4074C168.761 89.5069 168.898 88.7116 169.215 88.0217C169.531 87.3279 169.999 86.7786 170.621 86.3738C171.247 85.965 172 85.7398 172.882 85.6981C173.763 85.6564 174.533 85.8096 175.19 86.1577C175.851 86.5019 176.371 87.0043 176.752 87.6652C177.131 88.3222 177.343 89.1009 177.385 90.0015C177.428 90.8944 177.291 91.6877 176.975 92.3815C176.658 93.0714 176.188 93.6208 175.562 94.0296C174.941 94.4344 174.189 94.6577 173.307 94.6994ZM173.23 92.8259C173.631 92.807 173.961 92.6776 174.219 92.4379C174.476 92.1944 174.664 91.8708 174.781 91.467C174.902 91.0631 174.951 90.6077 174.927 90.1007C174.903 89.5937 174.812 89.1448 174.653 88.7542C174.498 88.3633 174.281 88.0589 174.001 87.8408C173.722 87.6227 173.381 87.5231 172.98 87.5421C172.575 87.5612 172.24 87.6927 171.975 87.9366C171.713 88.1803 171.522 88.5041 171.401 88.908C171.283 89.3117 171.237 89.7671 171.261 90.2741C171.285 90.7811 171.374 91.23 171.529 91.6209C171.688 92.0115 171.909 92.3158 172.192 92.5337C172.479 92.7477 172.825 92.8451 173.23 92.8259ZM179.162 94.2518L178.75 85.5343L181.094 85.4234L181.166 86.9444L181.256 86.9401C181.39 86.3915 181.637 85.9703 181.999 85.6764C182.36 85.3787 182.785 85.2183 183.273 85.1952C183.394 85.1895 183.525 85.1908 183.665 85.1994C183.806 85.2079 183.93 85.2229 184.037 85.2443L184.139 87.3897C184.024 87.361 183.865 87.3381 183.663 87.3211C183.462 87.3041 183.278 87.2996 183.111 87.3075C182.755 87.3243 182.441 87.4169 182.169 87.5852C181.9 87.7497 181.69 87.9719 181.54 88.252C181.394 88.532 181.33 88.8498 181.346 89.2054L181.58 94.1374L179.162 94.2518ZM192.062 93.6416L188.187 82.1755L190.871 82.0486L193.177 90.0337L193.274 90.0292L195.014 81.8526L197.313 81.7439L199.813 89.7369L199.915 89.7321L201.456 81.5479L204.141 81.4209L201.364 93.2016L198.969 93.3149L196.397 85.8201L196.306 85.8244L194.457 93.5283L192.062 93.6416ZM209.005 93.0108C208.108 93.0532 207.327 92.9081 206.663 92.5755C206.003 92.2389 205.483 91.744 205.103 91.0908C204.723 90.4337 204.511 89.6455 204.468 88.7261C204.425 87.8294 204.562 87.0341 204.878 86.3404C205.194 85.6467 205.659 85.0957 206.273 84.6874C206.891 84.279 207.627 84.0545 208.482 84.0141C209.057 83.9869 209.597 84.0543 210.102 84.2162C210.61 84.3742 211.058 84.6279 211.446 84.9774C211.838 85.3267 212.151 85.7745 212.385 86.3209C212.62 86.8635 212.754 87.5055 212.789 88.2471L212.821 88.9112L205.46 89.2594L205.389 87.761L210.474 87.5205C210.458 87.1724 210.367 86.8676 210.203 86.6061C210.039 86.3446 209.819 86.1446 209.544 86.006C209.271 85.8633 208.959 85.8004 208.607 85.817C208.24 85.8344 207.919 85.9349 207.643 86.1186C207.371 86.2983 207.162 86.5338 207.017 86.8251C206.871 87.1126 206.805 87.4286 206.817 87.7731L206.885 89.1976C206.905 89.629 207.002 89.9979 207.176 90.3044C207.353 90.6108 207.594 90.8421 207.897 90.9984C208.2 91.1547 208.554 91.2233 208.959 91.2042C209.228 91.1914 209.472 91.142 209.691 91.0557C209.911 90.9695 210.097 90.847 210.249 90.6881C210.4 90.5292 210.513 90.3381 210.585 90.1147L212.829 90.1565C212.74 90.6992 212.53 91.1793 212.197 91.597C211.868 92.0108 211.432 92.3424 210.89 92.5917C210.352 92.8371 209.724 92.9768 209.005 93.0108ZM214.621 92.5745L214.071 80.9512L216.489 80.8368L216.696 85.2069L216.769 85.2034C216.864 84.9638 217.006 84.7182 217.195 84.4666C217.388 84.211 217.643 83.9941 217.961 83.816C218.282 83.634 218.687 83.5314 219.175 83.5083C219.811 83.4782 220.405 83.617 220.958 83.9245C221.511 84.2283 221.964 84.7055 222.317 85.3562C222.67 86.0032 222.87 86.8261 222.917 87.825C222.963 88.7974 222.845 89.6258 222.563 90.3104C222.284 90.991 221.884 91.5162 221.363 91.8859C220.846 92.2516 220.256 92.4502 219.594 92.4815C219.125 92.5037 218.722 92.445 218.385 92.3055C218.052 92.1657 217.776 91.9835 217.557 91.7587C217.338 91.5302 217.168 91.2975 217.046 91.0605L216.939 91.0656L217.005 92.4618L214.621 92.5745ZM216.781 88.1038C216.806 88.6222 216.899 89.0709 217.061 89.45C217.223 89.8292 217.446 90.1201 217.728 90.3229C218.011 90.5219 218.347 90.6122 218.737 90.5938C219.13 90.5751 219.458 90.4516 219.72 90.223C219.982 89.9907 220.174 89.6782 220.296 89.2857C220.421 88.8892 220.472 88.4374 220.448 87.9304C220.424 87.4272 220.333 86.9878 220.175 86.6123C220.017 86.2367 219.797 85.9476 219.514 85.7448C219.231 85.542 218.891 85.45 218.494 85.4688C218.101 85.4874 217.773 85.6072 217.51 85.8282C217.251 86.049 217.059 86.3539 216.933 86.7428C216.808 87.1318 216.757 87.5854 216.781 88.1038Z" fill="#301F5D"/>
<path d="M784.359 65.6248L780.239 65.8197L779.689 54.1963L783.843 53.9998C785.012 53.9445 786.03 54.1296 786.896 54.5551C787.761 54.9768 788.441 55.6101 788.936 56.4551C789.435 57.2999 789.713 58.3258 789.77 59.5328C789.828 60.7435 789.648 61.7949 789.231 62.6868C788.818 63.5785 788.197 64.2772 787.368 64.7828C786.542 65.2883 785.539 65.569 784.359 65.6248ZM782.596 63.5979L784.157 63.524C784.884 63.4897 785.489 63.3321 785.972 63.0514C786.459 62.7667 786.815 62.346 787.039 61.7894C787.266 61.2287 787.359 60.5152 787.319 59.6487C787.278 58.7899 787.118 58.094 786.839 57.5611C786.563 57.0281 786.172 56.6447 785.664 56.4108C785.156 56.177 784.539 56.0772 783.812 56.1116L782.246 56.1857L782.596 63.5979ZM795.802 65.2542C794.905 65.2966 794.124 65.1515 793.46 64.8189C792.8 64.4823 792.28 63.9874 791.9 63.3341C791.52 62.6771 791.308 61.8889 791.265 60.9694C791.222 60.0727 791.359 59.2775 791.675 58.5838C791.991 57.89 792.456 57.339 793.07 56.9308C793.688 56.5223 794.424 56.2979 795.279 56.2574C795.855 56.2302 796.394 56.2976 796.899 56.4596C797.407 56.6176 797.855 56.8713 798.243 57.2208C798.635 57.5701 798.948 58.0179 799.183 58.5642C799.417 59.1068 799.551 59.7489 799.586 60.4905L799.618 61.1545L792.257 61.5027L792.186 60.0044L797.271 59.7638C797.255 59.4157 797.164 59.111 797 58.8495C796.836 58.588 796.616 58.3879 796.341 58.2493C796.068 58.1067 795.756 58.0437 795.404 58.0604C795.037 58.0777 794.716 58.1782 794.44 58.3619C794.168 58.5417 793.959 58.7772 793.814 59.0685C793.668 59.356 793.602 59.672 793.614 60.0165L793.682 61.441C793.702 61.8723 793.799 62.2413 793.973 62.5478C794.15 62.8541 794.391 63.0855 794.694 63.2418C794.997 63.3981 795.351 63.4667 795.756 63.4475C796.025 63.4348 796.269 63.3853 796.488 63.2991C796.708 63.2129 796.894 63.0903 797.046 62.9314C797.197 62.7726 797.31 62.5815 797.382 62.3581L799.626 62.3999C799.538 62.9425 799.327 63.4227 798.994 63.8404C798.665 64.2541 798.229 64.5857 797.687 64.8351C797.149 65.0805 796.521 65.2202 795.802 65.2542ZM808.331 58.2453L806.124 58.4862C806.077 58.2988 805.988 58.1324 805.856 57.9869C805.724 57.8377 805.553 57.7225 805.345 57.6414C805.14 57.5563 804.897 57.5203 804.617 57.5336C804.243 57.5513 803.93 57.6457 803.681 57.8168C803.431 57.9841 803.312 58.1983 803.324 58.4593C803.334 58.6674 803.426 58.8394 803.599 58.9753C803.772 59.1112 804.063 59.2131 804.472 59.281L806.065 59.5242C806.921 59.6582 807.566 59.9083 808 60.2745C808.435 60.6408 808.667 61.1379 808.697 61.766C808.724 62.3373 808.579 62.8466 808.263 63.2939C807.95 63.741 807.508 64.0994 806.937 64.3691C806.369 64.6349 805.707 64.7856 804.951 64.8214C803.796 64.876 802.866 64.6792 802.158 64.2311C801.454 63.779 801.024 63.1395 800.867 62.3127L803.239 62.0753C803.328 62.4238 803.515 62.6842 803.8 62.8566C804.084 63.0251 804.442 63.0992 804.874 63.0788C805.298 63.0587 805.634 62.9613 805.884 62.7864C806.137 62.6076 806.259 62.3875 806.251 62.1263C806.237 61.907 806.135 61.7317 805.947 61.6003C805.759 61.4651 805.474 61.3686 805.092 61.3108L803.568 61.0814C802.708 60.9514 802.061 60.6863 801.625 60.286C801.192 59.8855 800.961 59.3599 800.93 58.7091C800.903 58.1491 801.032 57.6596 801.316 57.2404C801.603 56.821 802.018 56.4886 802.56 56.243C803.105 55.9972 803.751 55.8567 804.496 55.8215C805.597 55.7694 806.475 55.9611 807.129 56.3966C807.786 56.8319 808.187 57.4481 808.331 58.2453ZM814.328 64.3779C813.431 64.4203 812.651 64.2752 811.986 63.9425C811.326 63.606 810.806 63.111 810.426 62.4578C810.046 61.8008 809.834 61.0126 809.791 60.0931C809.748 59.1964 809.885 58.4012 810.201 57.7074C810.517 57.0137 810.982 56.4627 811.596 56.0544C812.214 55.646 812.95 55.4216 813.806 55.3811C814.381 55.3539 814.92 55.4213 815.425 55.5832C815.933 55.7412 816.381 55.995 816.769 56.3444C817.161 56.6937 817.474 57.1416 817.709 57.6879C817.943 58.2305 818.078 58.8726 818.113 59.6142L818.144 60.2782L810.783 60.6264L810.712 59.1281L815.797 58.8875C815.781 58.5394 815.691 58.2346 815.527 57.9732C815.362 57.7117 815.143 57.5116 814.867 57.373C814.595 57.2304 814.283 57.1674 813.931 57.184C813.564 57.2014 813.242 57.3019 812.967 57.4856C812.694 57.6653 812.486 57.9008 812.34 58.1921C812.194 58.4796 812.128 58.7956 812.14 59.1401L812.208 60.5647C812.228 60.996 812.325 61.3649 812.499 61.6715C812.677 61.9778 812.917 62.2091 813.22 62.3654C813.523 62.5217 813.877 62.5903 814.282 62.5712C814.551 62.5585 814.795 62.509 815.015 62.4228C815.234 62.3365 815.42 62.214 815.572 62.0551C815.723 61.8963 815.836 61.7051 815.909 61.4817L818.152 61.5235C818.064 62.0662 817.853 62.5464 817.52 62.9641C817.191 63.3778 816.755 63.7094 816.214 63.9587C815.675 64.2041 815.047 64.3439 814.328 64.3779ZM822.078 58.7895L822.316 63.8293L819.899 63.9437L819.486 55.2262L821.791 55.1172L821.863 56.6552L821.966 56.6504C822.135 56.1343 822.439 55.7179 822.879 55.4013C823.319 55.0809 823.862 54.9054 824.509 54.8748C825.115 54.8462 825.649 54.9536 826.112 55.1972C826.575 55.4407 826.942 55.8026 827.215 56.2826C827.488 56.7589 827.641 57.3357 827.673 58.0129L827.935 63.5636L825.517 63.6779L825.275 58.5586C825.254 58.025 825.098 57.6152 824.808 57.3294C824.517 57.0397 824.13 56.9064 823.645 56.9293C823.32 56.9447 823.036 57.0283 822.793 57.1801C822.553 57.3317 822.37 57.5452 822.243 57.8204C822.119 58.0917 822.064 58.4148 822.078 58.7895ZM837.244 54.3862L834.608 63.2479L831.884 63.3768L828.424 54.8034L830.978 54.6826L833.083 60.8343L833.174 60.83L834.684 54.5073L837.244 54.3862ZM842.559 63.0425C841.677 63.0842 840.906 62.9329 840.245 62.5888C839.588 62.2407 839.069 61.7381 838.689 61.0811C838.309 60.4203 838.098 59.6434 838.056 58.7504C838.013 57.8499 838.15 57.0547 838.466 56.3648C838.782 55.671 839.251 55.1217 839.873 54.7169C840.498 54.3081 841.252 54.0829 842.133 54.0412C843.015 53.9995 843.784 54.1527 844.442 54.5008C845.103 54.8449 845.623 55.3474 846.003 56.0082C846.383 56.6653 846.594 57.444 846.637 58.3445C846.679 59.2375 846.542 60.0308 846.226 60.7246C845.91 61.4145 845.439 61.9639 844.814 62.3727C844.192 62.7775 843.441 63.0008 842.559 63.0425ZM842.482 61.169C842.883 61.1501 843.212 61.0207 843.47 60.781C843.728 60.5375 843.916 60.2138 844.033 59.8101C844.154 59.4062 844.203 58.9508 844.179 58.4438C844.155 57.9367 844.063 57.4879 843.905 57.0972C843.75 56.7064 843.532 56.4019 843.253 56.1838C842.973 55.9657 842.633 55.8662 842.232 55.8852C841.827 55.9043 841.492 56.0358 841.227 56.2797C840.965 56.5234 840.774 56.8472 840.653 57.2511C840.535 57.6548 840.488 58.1102 840.512 58.6172C840.536 59.1242 840.626 59.5731 840.781 59.9639C840.94 60.3546 841.161 60.6589 841.444 60.8768C841.731 61.0908 842.077 61.1882 842.482 61.169ZM850.282 50.8571L850.831 62.4805L848.414 62.5949L847.864 50.9715L850.282 50.8571ZM860.483 53.2869L857.848 62.1486L855.124 62.2775L851.663 53.7041L854.217 53.5833L856.323 59.735L856.414 59.7307L857.924 53.408L860.483 53.2869ZM865.833 61.9416C864.936 61.984 864.156 61.8389 863.491 61.5063C862.831 61.1697 862.311 60.6748 861.931 60.0215C861.551 59.3645 861.339 58.5763 861.296 57.6568C861.253 56.7601 861.39 55.9649 861.706 55.2711C862.022 54.5774 862.487 54.0264 863.101 53.6182C863.719 53.2097 864.455 52.9853 865.31 52.9448C865.886 52.9176 866.425 52.985 866.93 53.147C867.438 53.305 867.886 53.5587 868.274 53.9082C868.666 54.2575 868.979 54.7053 869.214 55.2516C869.448 55.7942 869.582 56.4363 869.618 57.1779L869.649 57.8419L862.288 58.1901L862.217 56.6918L867.302 56.4512C867.286 56.1031 867.195 55.7984 867.031 55.5369C866.867 55.2754 866.647 55.0753 866.372 54.9367C866.099 54.7941 865.787 54.7311 865.436 54.7478C865.069 54.7651 864.747 54.8656 864.471 55.0493C864.199 55.2291 863.991 55.4646 863.845 55.7559C863.699 56.0434 863.633 56.3594 863.645 56.7038L863.713 58.1284C863.733 58.5597 863.83 58.9287 864.004 59.2352C864.181 59.5415 864.422 59.7729 864.725 59.9292C865.028 60.0855 865.382 60.154 865.787 60.1349C866.056 60.1222 866.3 60.0727 866.52 59.9865C866.739 59.9003 866.925 59.7777 867.077 59.6188C867.228 59.46 867.341 59.2689 867.414 59.0455L869.657 59.0873C869.569 59.6299 869.358 60.1101 869.025 60.5278C868.696 60.9415 868.26 61.2731 867.718 61.5225C867.18 61.7679 866.552 61.9076 865.833 61.9416ZM874.623 61.4974C873.961 61.5287 873.353 61.3868 872.799 61.0717C872.25 60.7526 871.802 60.2675 871.456 59.6164C871.114 58.9614 870.921 58.1477 870.875 57.1753C870.827 56.1764 870.949 55.3383 871.239 54.661C871.529 53.9798 871.933 53.462 872.451 53.1076C872.973 52.7493 873.553 52.5549 874.193 52.5247C874.681 52.5016 875.091 52.5656 875.425 52.7167C875.761 52.8638 876.036 53.0556 876.248 53.2921C876.464 53.5246 876.63 53.7556 876.747 53.9852L876.821 53.9817L876.614 49.6116L879.027 49.4975L879.576 61.1208L877.193 61.2336L877.127 59.8374L877.024 59.8422C876.922 60.0898 876.773 60.3376 876.576 60.5859C876.383 60.8301 876.125 61.0376 875.804 61.2083C875.485 61.3788 875.092 61.4752 874.623 61.4974ZM875.298 59.5371C875.688 59.5187 876.012 59.3972 876.27 59.1726C876.533 58.944 876.726 58.6334 876.852 58.2407C876.981 57.8477 877.034 57.3921 877.009 56.8737C876.985 56.3554 876.891 55.9085 876.73 55.5332C876.568 55.1578 876.346 54.8726 876.063 54.6773C875.781 54.4821 875.445 54.3937 875.055 54.4122C874.658 54.431 874.328 54.5546 874.066 54.7832C873.804 55.0117 873.612 55.3204 873.49 55.7092C873.368 56.0979 873.319 56.5439 873.343 57.0472C873.367 57.5542 873.458 57.9992 873.616 58.3823C873.778 58.7615 873.999 59.0544 874.278 59.2611C874.561 59.4639 874.901 59.5559 875.298 59.5371ZM885.511 61.0108C884.629 61.0525 883.858 60.9012 883.197 60.5571C882.54 60.209 882.021 59.7064 881.641 59.0494C881.261 58.3885 881.05 57.6117 881.008 56.7187C880.965 55.8182 881.102 55.023 881.418 54.333C881.734 53.6393 882.203 53.09 882.825 52.6852C883.45 52.2764 884.204 52.0512 885.085 52.0095C885.967 51.9678 886.736 52.121 887.394 52.4691C888.055 52.8132 888.575 53.3157 888.955 53.9765C889.335 54.6335 889.546 55.4123 889.589 56.3128C889.631 57.2058 889.494 57.9991 889.178 58.6928C888.862 59.3828 888.391 59.9322 887.766 60.341C887.144 60.7458 886.393 60.9691 885.511 61.0108ZM885.434 59.1373C885.835 59.1183 886.164 58.989 886.422 58.7493C886.68 58.5058 886.868 58.1821 886.985 57.7784C887.106 57.3745 887.155 56.919 887.131 56.412C887.107 55.905 887.015 55.4562 886.857 55.0655C886.702 54.6747 886.484 54.3702 886.205 54.1521C885.925 53.934 885.585 53.8345 885.184 53.8534C884.779 53.8726 884.444 54.0041 884.179 54.248C883.917 54.4917 883.726 54.8155 883.605 55.2194C883.487 55.6231 883.44 56.0785 883.464 56.5855C883.488 57.0925 883.578 57.5414 883.733 57.9322C883.892 58.3229 884.113 58.6272 884.396 58.8451C884.683 59.0591 885.029 59.1565 885.434 59.1373ZM891.366 60.5632L890.953 51.8456L893.297 51.7348L893.369 53.2558L893.46 53.2515C893.593 52.7029 893.841 52.2817 894.202 51.9877C894.564 51.69 894.988 51.5296 895.476 51.5066C895.598 51.5008 895.728 51.5022 895.869 51.5107C896.01 51.5192 896.134 51.5342 896.241 51.5557L896.342 53.701C896.227 53.6724 896.069 53.6495 895.867 53.6325C895.665 53.6155 895.481 53.6109 895.315 53.6188C894.959 53.6356 894.645 53.7282 894.372 53.8966C894.103 54.061 893.894 54.2833 893.744 54.5634C893.598 54.8434 893.533 55.1612 893.55 55.5168L893.783 60.4488L891.366 60.5632ZM904.266 59.953L900.39 48.4869L903.075 48.3599L905.381 56.3451L905.477 56.3406L907.218 48.1639L909.517 48.0552L912.016 56.0483L912.119 56.0435L913.66 47.8592L916.344 47.7323L913.568 59.5129L911.173 59.6262L908.6 52.1315L908.509 52.1358L906.661 59.8397L904.266 59.953ZM921.208 59.3222C920.312 59.3646 919.531 59.2195 918.867 58.8869C918.206 58.5503 917.686 58.0554 917.306 57.4021C916.926 56.7451 916.715 55.9569 916.671 55.0375C916.629 54.1407 916.766 53.3455 917.082 52.6518C917.398 51.958 917.863 51.407 918.477 50.9988C919.095 50.5904 919.831 50.3659 920.686 50.3255C921.261 50.2983 921.801 50.3656 922.305 50.5276C922.813 50.6856 923.261 50.9393 923.65 51.2888C924.042 51.6381 924.355 52.0859 924.589 52.6323C924.823 53.1748 924.958 53.8169 924.993 54.5585L925.025 55.2225L917.663 55.5707L917.593 54.0724L922.678 53.8319C922.661 53.4838 922.571 53.179 922.407 52.9175C922.243 52.656 922.023 52.456 921.747 52.3173C921.475 52.1747 921.163 52.1117 920.811 52.1284C920.444 52.1457 920.123 52.2463 919.847 52.43C919.575 52.6097 919.366 52.8452 919.221 53.1365C919.075 53.424 919.008 53.74 919.021 54.0845L919.088 55.509C919.109 55.9404 919.206 56.3093 919.38 56.6158C919.557 56.9222 919.797 57.1535 920.101 57.3098C920.404 57.4661 920.758 57.5347 921.163 57.5155C921.431 57.5028 921.675 57.4533 921.895 57.3671C922.115 57.2809 922.3 57.1583 922.452 56.9995C922.604 56.8406 922.716 56.6495 922.789 56.4261L925.032 56.4679C924.944 57.0105 924.734 57.4907 924.401 57.9084C924.071 58.3222 923.636 58.6537 923.094 58.9031C922.556 59.1485 921.927 59.2882 921.208 59.3222ZM926.825 58.8859L926.275 47.2625L928.693 47.1482L928.899 51.5183L928.973 51.5148C929.068 51.2752 929.21 51.0296 929.399 50.7779C929.592 50.5223 929.847 50.3055 930.165 50.1274C930.486 49.9453 930.891 49.8428 931.379 49.8197C932.014 49.7896 932.609 49.9284 933.162 50.2359C933.715 50.5397 934.167 51.0169 934.521 51.6676C934.874 52.3145 935.074 53.1374 935.121 54.1363C935.167 55.1087 935.049 55.9372 934.766 56.6218C934.488 57.3024 934.088 57.8275 933.567 58.1972C933.049 58.563 932.46 58.7616 931.797 58.7929C931.328 58.8151 930.925 58.7564 930.589 58.6168C930.256 58.4771 929.98 58.2948 929.761 58.0701C929.542 57.8416 929.371 57.6088 929.25 57.3719L929.142 57.377L929.208 58.7731L926.825 58.8859ZM928.985 54.4152C929.01 54.9335 929.103 55.3823 929.265 55.7614C929.427 56.1405 929.649 56.4315 929.932 56.6343C930.214 56.8333 930.55 56.9236 930.94 56.9051C931.334 56.8865 931.662 56.7629 931.924 56.5344C932.186 56.302 932.378 55.9896 932.499 55.597C932.625 55.2005 932.675 54.7488 932.651 54.2418C932.628 53.7385 932.537 53.2992 932.379 52.9236C932.221 52.5481 932 52.2589 931.718 52.0562C931.435 51.8534 931.095 51.7614 930.698 51.7802C930.304 51.7988 929.976 51.9186 929.714 52.1396C929.455 52.3604 929.263 52.6653 929.137 53.0542C929.011 53.4432 928.961 53.8968 928.985 54.4152Z" fill="#301F5D"/>
<path d="M304.13 88.3406L300.01 88.5355L299.46 76.9121L303.615 76.7156C304.784 76.6603 305.801 76.8454 306.667 77.2708C307.532 77.6925 308.213 78.3259 308.708 79.1709C309.207 80.0157 309.485 81.0415 309.542 82.2485C309.599 83.4593 309.419 84.5106 309.003 85.4025C308.59 86.2942 307.969 86.9929 307.139 87.4986C306.314 88.0041 305.311 88.2847 304.13 88.3406ZM302.368 86.3136L303.929 86.2398C304.655 86.2054 305.26 86.0479 305.743 85.7671C306.231 85.4825 306.586 85.0618 306.81 84.5051C307.038 83.9445 307.131 83.231 307.09 82.3645C307.049 81.5056 306.889 80.8097 306.61 80.2769C306.335 79.7439 305.943 79.3604 305.435 79.1266C304.927 78.8927 304.31 78.793 303.584 78.8274L302.017 78.9015L302.368 86.3136ZM315.573 87.9699C314.676 88.0124 313.896 87.8673 313.232 87.5346C312.571 87.198 312.051 86.7031 311.671 86.0499C311.291 85.3929 311.079 84.6046 311.036 83.6852C310.994 82.7885 311.13 81.9933 311.446 81.2995C311.762 80.6058 312.227 80.0548 312.841 79.6465C313.459 79.2381 314.196 79.0137 315.051 78.9732C315.626 78.946 316.166 79.0134 316.67 79.1753C317.178 79.3333 317.626 79.5871 318.014 79.9365C318.406 80.2858 318.719 80.7336 318.954 81.28C319.188 81.8226 319.323 82.4647 319.358 83.2062L319.389 83.8703L312.028 84.2185L311.957 82.7201L317.042 82.4796C317.026 82.1315 316.936 81.8267 316.772 81.5652C316.608 81.3038 316.388 81.1037 316.112 80.9651C315.84 80.8225 315.528 80.7595 315.176 80.7761C314.809 80.7935 314.487 80.894 314.212 81.0777C313.94 81.2574 313.731 81.4929 313.585 81.7842C313.44 82.0717 313.373 82.3877 313.386 82.7322L313.453 84.1568C313.473 84.5881 313.57 84.957 313.744 85.2636C313.922 85.5699 314.162 85.8012 314.465 85.9575C314.768 86.1138 315.122 86.1824 315.527 86.1633C315.796 86.1506 316.04 86.1011 316.26 86.0149C316.479 85.9286 316.665 85.8061 316.817 85.6472C316.969 85.4883 317.081 85.2972 317.154 85.0738L319.397 85.1156C319.309 85.6583 319.098 86.1384 318.765 86.5562C318.436 86.9699 318.001 87.3015 317.459 87.5508C316.92 87.7962 316.292 87.9359 315.573 87.9699ZM328.102 80.961L325.895 81.2019C325.849 81.0145 325.759 80.8481 325.627 80.7027C325.495 80.5535 325.325 80.4383 325.116 80.3571C324.911 80.272 324.668 80.2361 324.389 80.2493C324.014 80.2671 323.702 80.3615 323.452 80.5325C323.202 80.6998 323.083 80.914 323.096 81.1751C323.105 81.3832 323.197 81.5552 323.37 81.6911C323.544 81.827 323.835 81.9289 324.244 81.9968L325.836 82.24C326.692 82.3739 327.337 82.624 327.772 82.9903C328.206 83.3565 328.438 83.8537 328.468 84.4818C328.495 85.0531 328.35 85.5624 328.034 86.0097C327.722 86.4567 327.28 86.8151 326.708 87.0849C326.141 87.3506 325.479 87.5014 324.722 87.5372C323.568 87.5918 322.637 87.395 321.929 86.9469C321.226 86.4948 320.795 85.8553 320.639 85.0285L323.011 84.7911C323.099 85.1396 323.286 85.4 323.571 85.5723C323.856 85.7409 324.214 85.8149 324.645 85.7945C325.069 85.7745 325.406 85.677 325.655 85.5022C325.908 85.3233 326.031 85.1033 326.022 84.8421C326.008 84.6228 325.907 84.4474 325.718 84.316C325.53 84.1809 325.245 84.0844 324.863 84.0266L323.339 83.7972C322.48 83.6672 321.832 83.4021 321.396 83.0018C320.964 82.6013 320.732 82.0757 320.701 81.4249C320.675 80.8649 320.803 80.3753 321.087 79.9561C321.374 79.5368 321.789 79.2043 322.331 78.9588C322.877 78.713 323.522 78.5725 324.268 78.5372C325.369 78.4851 326.246 78.6769 326.9 79.1124C327.558 79.5477 327.959 80.1639 328.102 80.961ZM334.099 87.0936C333.202 87.136 332.422 86.9909 331.758 86.6583C331.097 86.3217 330.577 85.8268 330.197 85.1736C329.817 84.5165 329.606 83.7283 329.562 82.8089C329.52 81.9122 329.656 81.1169 329.973 80.4232C330.289 79.7295 330.754 79.1785 331.368 78.7702C331.985 78.3618 332.722 78.1373 333.577 78.0969C334.152 78.0697 334.692 78.1371 335.196 78.299C335.704 78.457 336.152 78.7107 336.54 79.0602C336.932 79.4095 337.246 79.8573 337.48 80.4037C337.714 80.9462 337.849 81.5883 337.884 82.3299L337.915 82.994L330.554 83.3421L330.483 81.8438L335.569 81.6033C335.552 81.2552 335.462 80.9504 335.298 80.6889C335.134 80.4274 334.914 80.2274 334.638 80.0887C334.366 79.9461 334.054 79.8832 333.702 79.8998C333.335 79.9172 333.014 80.0177 332.738 80.2014C332.466 80.3811 332.257 80.6166 332.111 80.9079C331.966 81.1954 331.899 81.5114 331.912 81.8559L331.979 83.2804C332 83.7118 332.097 84.0807 332.27 84.3872C332.448 84.6936 332.688 84.9249 332.991 85.0812C333.295 85.2375 333.649 85.3061 334.054 85.2869C334.322 85.2742 334.566 85.2248 334.786 85.1385C335.006 85.0523 335.191 84.9298 335.343 84.7709C335.495 84.612 335.607 84.4209 335.68 84.1975L337.923 84.2393C337.835 84.7819 337.625 85.2621 337.292 85.6798C336.962 86.0936 336.527 86.4251 335.985 86.6745C335.447 86.9199 334.818 87.0596 334.099 87.0936ZM341.849 81.5053L342.088 86.5451L339.67 86.6595L339.258 77.9419L341.562 77.8329L341.635 79.371L341.737 79.3662C341.906 78.85 342.21 78.4337 342.65 78.1171C343.09 77.7967 343.634 77.6212 344.281 77.5906C344.886 77.5619 345.42 77.6694 345.883 77.9129C346.346 78.1565 346.714 78.5183 346.987 78.9984C347.26 79.4747 347.412 80.0514 347.444 80.7287L347.707 86.2793L345.289 86.3937L345.047 81.2744C345.025 80.7407 344.869 80.331 344.579 80.0451C344.288 79.7555 343.901 79.6221 343.417 79.6451C343.091 79.6604 342.807 79.744 342.564 79.8959C342.325 80.0475 342.141 80.2609 342.014 80.5362C341.89 80.8075 341.836 81.1305 341.849 81.5053ZM357.015 77.102L354.379 85.9637L351.655 86.0925L348.195 77.5192L350.749 77.3984L352.855 83.5501L352.945 83.5458L354.455 77.2231L357.015 77.102ZM362.33 85.7582C361.449 85.7999 360.678 85.6487 360.017 85.3045C359.359 84.9564 358.841 84.4539 358.461 83.7968C358.081 83.136 357.869 82.3592 357.827 81.4662C357.784 80.5657 357.921 79.7705 358.238 79.0805C358.554 78.3868 359.023 77.8375 359.644 77.4327C360.27 77.0239 361.023 76.7986 361.905 76.7569C362.786 76.7152 363.556 76.8684 364.213 77.2166C364.874 77.5607 365.394 78.0632 365.775 78.724C366.155 79.381 366.366 80.1598 366.408 81.0603C366.451 81.9532 366.314 82.7466 365.998 83.4403C365.681 84.1303 365.211 84.6796 364.585 85.0884C363.964 85.4933 363.212 85.7165 362.33 85.7582ZM362.253 83.8848C362.654 83.8658 362.984 83.7365 363.242 83.4967C363.499 83.2532 363.687 82.9296 363.804 82.5259C363.925 82.122 363.974 81.6665 363.95 81.1595C363.926 80.6525 363.835 80.2037 363.676 79.813C363.521 79.4222 363.304 79.1177 363.024 78.8996C362.745 78.6815 362.404 78.5819 362.003 78.6009C361.598 78.6201 361.263 78.7516 360.998 78.9954C360.736 79.2391 360.545 79.5629 360.424 79.9668C360.307 80.3706 360.26 80.8259 360.284 81.3329C360.308 81.8399 360.397 82.2889 360.552 82.6797C360.711 83.0704 360.932 83.3747 361.215 83.5926C361.502 83.8065 361.848 83.9039 362.253 83.8848ZM370.053 73.5729L370.603 85.1963L368.185 85.3106L367.635 73.6873L370.053 73.5729ZM380.255 76.0027L377.619 84.8644L374.895 84.9933L371.435 76.4199L373.989 76.2991L376.094 82.4508L376.185 82.4465L377.695 76.1238L380.255 76.0027ZM385.604 84.6573C384.707 84.6998 383.927 84.5546 383.263 84.222C382.602 83.8854 382.082 83.3905 381.702 82.7373C381.322 82.0803 381.11 81.292 381.067 80.3726C381.025 79.4759 381.161 78.6806 381.477 77.9869C381.794 77.2932 382.259 76.7422 382.873 76.3339C383.49 75.9255 384.227 75.701 385.082 75.6606C385.657 75.6334 386.197 75.7008 386.701 75.8627C387.209 76.0207 387.657 76.2744 388.045 76.6239C388.437 76.9732 388.751 77.421 388.985 77.9674C389.219 78.51 389.354 79.152 389.389 79.8936L389.42 80.5577L382.059 80.9059L381.988 79.4075L387.074 79.167C387.057 78.8189 386.967 78.5141 386.803 78.2526C386.639 77.9912 386.419 77.7911 386.143 77.6525C385.871 77.5099 385.559 77.4469 385.207 77.4635C384.84 77.4809 384.519 77.5814 384.243 77.7651C383.971 77.9448 383.762 78.1803 383.616 78.4716C383.471 78.7591 383.404 79.0751 383.417 79.4196L383.484 80.8442C383.504 81.2755 383.602 81.6444 383.775 81.9509C383.953 82.2573 384.193 82.4886 384.496 82.6449C384.8 82.8012 385.154 82.8698 385.558 82.8507C385.827 82.8379 386.071 82.7885 386.291 82.7022C386.511 82.616 386.696 82.4935 386.848 82.3346C387 82.1757 387.112 81.9846 387.185 81.7612L389.428 81.803C389.34 82.3457 389.129 82.8258 388.797 83.2436C388.467 83.6573 388.032 83.9889 387.49 84.2382C386.952 84.4836 386.323 84.6233 385.604 84.6573ZM394.394 84.2131C393.732 84.2444 393.124 84.1025 392.571 83.7874C392.021 83.4683 391.573 82.9833 391.228 82.3322C390.886 81.6772 390.692 80.8635 390.646 79.8911C390.599 78.8922 390.72 78.0541 391.01 77.3767C391.301 76.6956 391.705 76.1778 392.222 75.8234C392.744 75.465 393.324 75.2707 393.964 75.2405C394.452 75.2174 394.863 75.2814 395.196 75.4325C395.533 75.5796 395.807 75.7714 396.02 76.0078C396.235 76.2403 396.402 76.4713 396.519 76.7009L396.593 76.6974L396.386 72.3273L398.798 72.2132L399.348 83.8366L396.964 83.9493L396.898 82.5532L396.796 82.558C396.694 82.8055 396.544 83.0534 396.347 83.3016C396.154 83.5459 395.897 83.7533 395.575 83.924C395.257 84.0946 394.863 84.1909 394.394 84.2131ZM395.069 82.2529C395.459 82.2345 395.783 82.1129 396.042 81.8883C396.304 81.6598 396.498 81.3491 396.623 80.9564C396.753 80.5635 396.805 80.1079 396.781 79.5895C396.756 79.0711 396.663 78.6243 396.501 78.2489C396.339 77.8736 396.117 77.5883 395.835 77.3931C395.552 77.1979 395.217 77.1095 394.827 77.1279C394.43 77.1467 394.1 77.2704 393.838 77.499C393.575 77.7275 393.383 78.0362 393.261 78.4249C393.139 78.8137 393.09 79.2597 393.114 79.7629C393.138 80.2699 393.229 80.715 393.388 81.0981C393.55 81.4772 393.77 81.7702 394.049 81.9769C394.332 82.1797 394.672 82.2717 395.069 82.2529ZM405.282 83.7265C404.401 83.7682 403.629 83.617 402.969 83.2728C402.311 82.9247 401.793 82.4221 401.413 81.7651C401.032 81.1043 400.821 80.3274 400.779 79.4345C400.736 78.534 400.873 77.7388 401.19 77.0488C401.506 76.3551 401.974 75.8058 402.596 75.401C403.222 74.9922 403.975 74.7669 404.857 74.7252C405.738 74.6835 406.508 74.8367 407.165 75.1848C407.826 75.529 408.346 76.0315 408.727 76.6923C409.107 77.3493 409.318 78.1281 409.36 79.0286C409.403 79.9215 409.266 80.7149 408.95 81.4086C408.633 82.0986 408.163 82.6479 407.537 83.0567C406.916 83.4616 406.164 83.6848 405.282 83.7265ZM405.205 81.8531C405.606 81.8341 405.936 81.7048 406.194 81.465C406.451 81.2215 406.639 80.8979 406.756 80.4942C406.877 80.0903 406.926 79.6348 406.902 79.1278C406.878 78.6208 406.787 78.172 406.628 77.7813C406.473 77.3905 406.256 77.086 405.976 76.8679C405.697 76.6498 405.356 76.5502 404.955 76.5692C404.55 76.5884 404.215 76.7199 403.95 76.9637C403.688 77.2074 403.497 77.5312 403.376 77.9351C403.258 78.3389 403.212 78.7942 403.236 79.3012C403.26 79.8082 403.349 80.2572 403.504 80.648C403.663 81.0387 403.884 81.343 404.167 81.5609C404.454 81.7748 404.8 81.8722 405.205 81.8531ZM411.137 83.2789L410.725 74.5614L413.069 74.4505L413.141 75.9716L413.231 75.9673C413.365 75.4187 413.612 74.9974 413.974 74.7035C414.335 74.4058 414.76 74.2454 415.248 74.2223C415.369 74.2166 415.5 74.218 415.641 74.2265C415.781 74.235 415.905 74.25 416.012 74.2715L416.114 76.4168C415.999 76.3881 415.84 76.3653 415.638 76.3483C415.437 76.3313 415.253 76.3267 415.086 76.3346C414.73 76.3514 414.416 76.444 414.144 76.6124C413.875 76.7768 413.665 76.9991 413.515 77.2792C413.369 77.5591 413.305 77.8769 413.322 78.2326L413.555 83.1646L411.137 83.2789ZM420.871 71.1691L423.902 71.0258L427.472 78.6838L427.608 78.6773L430.44 70.7165L433.471 70.5731L434.021 82.1965L431.637 82.3093L431.279 74.7438L431.183 74.7484L428.53 82.3993L426.907 82.4761L423.542 75.0814L423.446 75.0859L423.805 82.6797L421.421 82.7925L420.871 71.1691ZM439.947 82.0868C439.065 82.1285 438.294 81.9773 437.633 81.6331C436.976 81.285 436.457 80.7825 436.077 80.1254C435.697 79.4646 435.486 78.6877 435.443 77.7948C435.401 76.8943 435.538 76.0991 435.854 75.4091C436.17 74.7154 436.639 74.1661 437.261 73.7613C437.886 73.3525 438.639 73.1272 439.521 73.0855C440.403 73.0438 441.172 73.197 441.829 73.5451C442.49 73.8893 443.011 74.3918 443.391 75.0526C443.771 75.7096 443.982 76.4884 444.025 77.3889C444.067 78.2818 443.93 79.0752 443.614 79.7689C443.298 80.4589 442.827 81.0082 442.202 81.417C441.58 81.8219 440.828 82.0451 439.947 82.0868ZM439.869 80.2134C440.271 80.1944 440.6 80.0651 440.858 79.8253C441.116 79.5818 441.303 79.2582 441.421 78.8545C441.542 78.4506 441.59 77.9951 441.566 77.4881C441.542 76.9811 441.451 76.5323 441.292 76.1416C441.137 75.7508 440.92 75.4463 440.64 75.2282C440.361 75.0101 440.021 74.9105 439.62 74.9295C439.215 74.9487 438.88 75.0802 438.614 75.324C438.353 75.5677 438.161 75.8915 438.04 76.2954C437.923 76.6992 437.876 77.1545 437.9 77.6615C437.924 78.1685 438.014 78.6175 438.169 79.0083C438.327 79.399 438.548 79.7033 438.832 79.9212C439.119 80.1351 439.465 80.2325 439.869 80.2134ZM445.847 81.6371L445.297 70.0137L447.715 69.8994L447.921 74.2695L447.995 74.266C448.09 74.0264 448.232 73.7808 448.421 73.5291C448.614 73.2735 448.869 73.0567 449.187 72.8786C449.508 72.6965 449.913 72.594 450.401 72.5709C451.036 72.5408 451.631 72.6796 452.184 72.9871C452.737 73.2909 453.19 73.7681 453.543 74.4188C453.896 75.0657 454.096 75.8886 454.143 76.8875C454.189 77.8599 454.071 78.6884 453.788 79.373C453.51 80.0536 453.11 80.5787 452.589 80.9484C452.071 81.3142 451.482 81.5128 450.82 81.5441C450.35 81.5663 449.948 81.5076 449.611 81.368C449.278 81.2283 449.002 81.046 448.783 80.8213C448.564 80.5928 448.393 80.36 448.272 80.1231L448.164 80.1282L448.231 81.5243L445.847 81.6371ZM448.007 77.1664C448.032 77.6847 448.125 78.1335 448.287 78.5126C448.449 78.8917 448.672 79.1827 448.954 79.3855C449.237 79.5845 449.573 79.6748 449.962 79.6563C450.356 79.6377 450.684 79.5141 450.946 79.2856C451.208 79.0532 451.4 78.7408 451.522 78.3482C451.647 77.9517 451.698 77.5 451.674 76.993C451.65 76.4897 451.559 76.0504 451.401 75.6748C451.243 75.2993 451.022 75.0101 450.74 74.8074C450.457 74.6046 450.117 74.5126 449.72 74.5314C449.326 74.55 448.998 74.6698 448.736 74.8908C448.477 75.1116 448.285 75.4165 448.159 75.8054C448.033 76.1944 447.983 76.648 448.007 77.1664ZM455.962 81.1586L455.55 72.4411L457.967 72.3267L458.38 81.0443L455.962 81.1586ZM456.711 71.2599C456.352 71.2769 456.038 71.1723 455.769 70.9461C455.504 70.7159 455.364 70.4325 455.348 70.0958C455.332 69.7628 455.445 69.4711 455.687 69.2208C455.933 68.9664 456.236 68.8308 456.595 68.8138C456.955 68.7968 457.267 68.9034 457.532 69.1335C457.8 69.3597 457.943 69.6393 457.958 69.9723C457.974 70.309 457.859 70.6045 457.613 70.8589C457.371 71.1092 457.07 71.2429 456.711 71.2599ZM462.184 69.2149L462.734 80.8383L460.316 80.9527L459.767 69.3293L462.184 69.2149ZM468.652 80.729C467.755 80.7714 466.975 80.6263 466.31 80.2937C465.65 79.9571 465.13 79.4622 464.75 78.809C464.37 78.1519 464.158 77.3637 464.115 76.4443C464.072 75.5476 464.209 74.7523 464.525 74.0586C464.841 73.3649 465.306 72.8139 465.92 72.4056C466.538 71.9972 467.274 71.7727 468.13 71.7323C468.705 71.7051 469.244 71.7725 469.749 71.9344C470.257 72.0924 470.705 72.3461 471.093 72.6956C471.485 73.0449 471.798 73.4927 472.033 74.0391C472.267 74.5816 472.402 75.2237 472.437 75.9653L472.468 76.6294L465.107 76.9775L465.036 75.4792L470.121 75.2387C470.105 74.8906 470.015 74.5858 469.851 74.3243C469.687 74.0628 469.467 73.8628 469.191 73.7241C468.919 73.5815 468.607 73.5186 468.255 73.5352C467.888 73.5526 467.566 73.6531 467.291 73.8368C467.018 74.0165 466.81 74.252 466.664 74.5433C466.518 74.8308 466.452 75.1468 466.464 75.4913L466.532 76.9158C466.552 77.3472 466.649 77.7161 466.823 78.0226C467.001 78.329 467.241 78.5603 467.544 78.7166C467.847 78.8729 468.201 78.9415 468.606 78.9223C468.875 78.9096 469.119 78.8602 469.339 78.7739C469.558 78.6877 469.744 78.5651 469.896 78.4063C470.048 78.2474 470.16 78.0563 470.233 77.8329L472.476 77.8747C472.388 78.4173 472.177 78.8975 471.844 79.3152C471.515 79.729 471.079 80.0605 470.538 80.3099C469.999 80.5553 469.371 80.695 468.652 80.729Z" fill="#301F5D"/>
<path d="M1016.33 54.6519L1012.21 54.8468L1011.66 43.2235L1015.82 43.027C1016.99 42.9716 1018 43.1567 1018.87 43.5822C1019.74 44.0039 1020.42 44.6372 1020.91 45.4822C1021.41 46.327 1021.69 47.3529 1021.75 48.5599C1021.8 49.7707 1021.62 50.822 1021.21 51.7139C1020.79 52.6056 1020.17 53.3043 1019.34 53.81C1018.52 54.3154 1017.51 54.5961 1016.33 54.6519ZM1014.57 52.625L1016.13 52.5512C1016.86 52.5168 1017.46 52.3593 1017.95 52.0785C1018.43 51.7938 1018.79 51.3731 1019.01 50.8165C1019.24 50.2559 1019.33 49.5423 1019.29 48.6759C1019.25 47.817 1019.09 47.1211 1018.81 46.5883C1018.54 46.0552 1018.15 45.6718 1017.64 45.4379C1017.13 45.2041 1016.51 45.1044 1015.79 45.1387L1014.22 45.2128L1014.57 52.625ZM1027.78 54.2813C1026.88 54.3237 1026.1 54.1786 1025.44 53.846C1024.77 53.5094 1024.25 53.0145 1023.87 52.3613C1023.49 51.7042 1023.28 50.916 1023.24 49.9966C1023.2 49.0999 1023.33 48.3046 1023.65 47.6109C1023.97 46.9171 1024.43 46.3662 1025.05 45.9579C1025.66 45.5495 1026.4 45.325 1027.25 45.2846C1027.83 45.2574 1028.37 45.3247 1028.87 45.4867C1029.38 45.6447 1029.83 45.8984 1030.22 46.2479C1030.61 46.5972 1030.92 47.045 1031.16 47.5914C1031.39 48.1339 1031.53 48.776 1031.56 49.5176L1031.59 50.1816L1024.23 50.5298L1024.16 49.0315L1029.25 48.791C1029.23 48.4429 1029.14 48.1381 1028.98 47.8766C1028.81 47.6151 1028.59 47.4151 1028.32 47.2764C1028.04 47.1338 1027.73 47.0709 1027.38 47.0875C1027.01 47.1049 1026.69 47.2054 1026.42 47.3891C1026.14 47.5688 1025.93 47.8043 1025.79 48.0956C1025.64 48.3831 1025.58 48.6991 1025.59 49.0436L1025.66 50.4681C1025.68 50.8995 1025.77 51.2684 1025.95 51.5749C1026.13 51.8813 1026.37 52.1126 1026.67 52.2689C1026.97 52.4252 1027.33 52.4938 1027.73 52.4746C1028 52.4619 1028.24 52.4125 1028.46 52.3262C1028.68 52.24 1028.87 52.1174 1029.02 51.9586C1029.17 51.7997 1029.28 51.6086 1029.36 51.3852L1031.6 51.427C1031.51 51.9696 1031.3 52.4498 1030.97 52.8675C1030.64 53.2813 1030.2 53.6128 1029.66 53.8622C1029.12 54.1076 1028.5 54.2473 1027.78 54.2813ZM1040.31 47.2724L1038.1 47.5133C1038.05 47.3259 1037.96 47.1595 1037.83 47.0141C1037.7 46.8648 1037.53 46.7496 1037.32 46.6685C1037.11 46.5834 1036.87 46.5475 1036.59 46.5607C1036.22 46.5784 1035.91 46.6728 1035.66 46.8439C1035.41 47.0112 1035.29 47.2254 1035.3 47.4865C1035.31 47.6946 1035.4 47.8666 1035.57 48.0025C1035.75 48.1384 1036.04 48.2403 1036.45 48.3081L1038.04 48.5513C1038.9 48.6853 1039.54 48.9354 1039.98 49.3016C1040.41 49.6679 1040.64 50.1651 1040.67 50.7931C1040.7 51.3645 1040.55 51.8738 1040.24 52.321C1039.93 52.7681 1039.48 53.1265 1038.91 53.3962C1038.34 53.662 1037.68 53.8128 1036.93 53.8486C1035.77 53.9031 1034.84 53.7064 1034.13 53.2582C1033.43 52.8061 1033 52.1667 1032.84 51.3398L1035.21 51.1025C1035.3 51.451 1035.49 51.7114 1035.77 51.8837C1036.06 52.0522 1036.42 52.1263 1036.85 52.1059C1037.27 52.0859 1037.61 51.9884 1037.86 51.8135C1038.11 51.6347 1038.23 51.4147 1038.23 51.1534C1038.21 50.9342 1038.11 50.7588 1037.92 50.6274C1037.73 50.4922 1037.45 50.3957 1037.07 50.338L1035.54 50.1086C1034.68 49.9786 1034.04 49.7134 1033.6 49.3131C1033.17 48.9127 1032.94 48.387 1032.9 47.7362C1032.88 47.1763 1033.01 46.6867 1033.29 46.2675C1033.58 45.8482 1033.99 45.5157 1034.53 45.2701C1035.08 45.0244 1035.73 44.8839 1036.47 44.8486C1037.57 44.7965 1038.45 44.9882 1039.1 45.4237C1039.76 45.859 1040.16 46.4753 1040.31 47.2724ZM1046.3 53.405C1045.41 53.4474 1044.63 53.3023 1043.96 52.9697C1043.3 52.6331 1042.78 52.1382 1042.4 51.4849C1042.02 50.8279 1041.81 50.0397 1041.77 49.1203C1041.72 48.2235 1041.86 47.4283 1042.18 46.7346C1042.49 46.0408 1042.96 45.4898 1043.57 45.0816C1044.19 44.6731 1044.93 44.4487 1045.78 44.4083C1046.36 44.3811 1046.9 44.4484 1047.4 44.6104C1047.91 44.7684 1048.36 45.0221 1048.74 45.3716C1049.14 45.7209 1049.45 46.1687 1049.68 46.715C1049.92 47.2576 1050.05 47.8997 1050.09 48.6413L1050.12 49.3053L1042.76 49.6535L1042.69 48.1552L1047.77 47.9147C1047.76 47.5666 1047.67 47.2618 1047.5 47.0003C1047.34 46.7388 1047.12 46.5387 1046.84 46.4001C1046.57 46.2575 1046.26 46.1945 1045.91 46.2112C1045.54 46.2285 1045.22 46.3291 1044.94 46.5127C1044.67 46.6925 1044.46 46.928 1044.32 47.2193C1044.17 47.5068 1044.1 47.8228 1044.12 48.1673L1044.18 49.5918C1044.2 50.0231 1044.3 50.3921 1044.47 50.6986C1044.65 51.0049 1044.89 51.2363 1045.2 51.3926C1045.5 51.5489 1045.85 51.6175 1046.26 51.5983C1046.53 51.5856 1046.77 51.5361 1046.99 51.4499C1047.21 51.3637 1047.39 51.2411 1047.55 51.0823C1047.7 50.9234 1047.81 50.7323 1047.88 50.5089L1050.13 50.5507C1050.04 51.0933 1049.83 51.5735 1049.5 51.9912C1049.17 52.405 1048.73 52.7365 1048.19 52.9859C1047.65 53.2313 1047.02 53.371 1046.3 53.405ZM1054.05 47.8166L1054.29 52.8565L1051.87 52.9708L1051.46 44.2533L1053.77 44.1443L1053.84 45.6824L1053.94 45.6775C1054.11 45.1614 1054.41 44.745 1054.85 44.4284C1055.29 44.108 1055.84 43.9325 1056.48 43.9019C1057.09 43.8733 1057.62 43.9808 1058.09 44.2243C1058.55 44.4679 1058.92 44.8297 1059.19 45.3097C1059.46 45.786 1059.62 46.3628 1059.65 47.0401L1059.91 52.5907L1057.49 52.7051L1057.25 47.5858C1057.23 47.0521 1057.07 46.6423 1056.78 46.3565C1056.49 46.0669 1056.1 45.9335 1055.62 45.9564C1055.29 45.9718 1055.01 46.0554 1054.77 46.2072C1054.53 46.3589 1054.35 46.5723 1054.22 46.8476C1054.09 47.1189 1054.04 47.4419 1054.05 47.8166ZM1069.22 43.4134L1066.58 52.275L1063.86 52.4039L1060.4 43.8305L1062.95 43.7097L1065.06 49.8614L1065.15 49.8571L1066.66 43.5344L1069.22 43.4134ZM1074.53 52.0696C1073.65 52.1113 1072.88 51.9601 1072.22 51.6159C1071.56 51.2678 1071.04 50.7652 1070.66 50.1082C1070.28 49.4474 1070.07 48.6705 1070.03 47.7776C1069.99 46.8771 1070.12 46.0818 1070.44 45.3919C1070.76 44.6981 1071.23 44.1489 1071.85 43.744C1072.47 43.3352 1073.23 43.11 1074.11 43.0683C1074.99 43.0266 1075.76 43.1798 1076.42 43.5279C1077.08 43.8721 1077.6 44.3746 1077.98 45.0354C1078.36 45.6924 1078.57 46.4712 1078.61 47.3717C1078.65 48.2646 1078.52 49.0579 1078.2 49.7517C1077.89 50.4416 1077.41 50.991 1076.79 51.3998C1076.17 51.8046 1075.42 52.0279 1074.53 52.0696ZM1074.46 50.1962C1074.86 50.1772 1075.19 50.0478 1075.45 49.8081C1075.7 49.5646 1075.89 49.241 1076.01 48.8373C1076.13 48.4334 1076.18 47.9779 1076.15 47.4709C1076.13 46.9639 1076.04 46.515 1075.88 46.1244C1075.72 45.7335 1075.51 45.4291 1075.23 45.211C1074.95 44.9929 1074.61 44.8933 1074.21 44.9123C1073.8 44.9314 1073.47 45.0629 1073.2 45.3068C1072.94 45.5505 1072.75 45.8743 1072.63 46.2782C1072.51 46.6819 1072.46 47.1373 1072.49 47.6443C1072.51 48.1513 1072.6 48.6002 1072.76 48.9911C1072.91 49.3817 1073.14 49.686 1073.42 49.904C1073.71 50.1179 1074.05 50.2153 1074.46 50.1962ZM1082.26 39.8843L1082.81 51.5076L1080.39 51.622L1079.84 39.9986L1082.26 39.8843ZM1092.46 42.3141L1089.82 51.1758L1087.1 51.3046L1083.64 42.7313L1086.19 42.6105L1088.3 48.7622L1088.39 48.7579L1089.9 42.4352L1092.46 42.3141ZM1097.81 50.9687C1096.91 51.0111 1096.13 50.866 1095.47 50.5334C1094.81 50.1968 1094.29 49.7019 1093.91 49.0487C1093.53 48.3916 1093.31 47.6034 1093.27 46.684C1093.23 45.7873 1093.37 44.992 1093.68 44.2983C1094 43.6045 1094.46 43.0535 1095.08 42.6453C1095.69 42.2369 1096.43 42.0124 1097.29 41.972C1097.86 41.9448 1098.4 42.0121 1098.9 42.1741C1099.41 42.3321 1099.86 42.5858 1100.25 42.9353C1100.64 43.2846 1100.95 43.7324 1101.19 44.2788C1101.42 44.8213 1101.56 45.4634 1101.59 46.205L1101.62 46.869L1094.26 47.2172L1094.19 45.7189L1099.28 45.4784C1099.26 45.1303 1099.17 44.8255 1099.01 44.564C1098.84 44.3025 1098.62 44.1025 1098.35 43.9638C1098.07 43.8212 1097.76 43.7582 1097.41 43.7749C1097.04 43.7923 1096.72 43.8928 1096.45 44.0765C1096.17 44.2562 1095.97 44.4917 1095.82 44.783C1095.67 45.0705 1095.61 45.3865 1095.62 45.731L1095.69 47.1555C1095.71 47.5869 1095.81 47.9558 1095.98 48.2623C1096.16 48.5687 1096.4 48.8 1096.7 48.9563C1097 49.1126 1097.36 49.1812 1097.76 49.162C1098.03 49.1493 1098.27 49.0999 1098.49 49.0136C1098.71 48.9274 1098.9 48.8048 1099.05 48.646C1099.2 48.4871 1099.32 48.296 1099.39 48.0726L1101.63 48.1144C1101.54 48.657 1101.33 49.1372 1101 49.5549C1100.67 49.9687 1100.24 50.3002 1099.69 50.5496C1099.16 50.795 1098.53 50.9347 1097.81 50.9687ZM1106.6 50.5245C1105.94 50.5558 1105.33 50.4139 1104.77 50.0988C1104.22 49.7797 1103.78 49.2946 1103.43 48.6436C1103.09 47.9885 1102.9 47.1748 1102.85 46.2024C1102.8 45.2036 1102.92 44.3654 1103.21 43.6881C1103.5 43.007 1103.91 42.4892 1104.43 42.1348C1104.95 41.7764 1105.53 41.5821 1106.17 41.5518C1106.66 41.5287 1107.07 41.5927 1107.4 41.7438C1107.74 41.891 1108.01 42.0827 1108.22 42.3192C1108.44 42.5517 1108.61 42.7827 1108.72 43.0123L1108.8 43.0088L1108.59 38.6387L1111 38.5246L1111.55 50.148L1109.17 50.2607L1109.1 48.8645L1109 48.8694C1108.9 49.1169 1108.75 49.3648 1108.55 49.613C1108.36 49.8572 1108.1 50.0647 1107.78 50.2354C1107.46 50.4059 1107.07 50.5023 1106.6 50.5245ZM1107.27 48.5643C1107.66 48.5458 1107.99 48.4243 1108.25 48.1997C1108.51 47.9712 1108.7 47.6605 1108.83 47.2678C1108.96 46.8749 1109.01 46.4192 1108.98 45.9009C1108.96 45.3825 1108.87 44.9357 1108.7 44.5603C1108.54 44.185 1108.32 43.8997 1108.04 43.7045C1107.76 43.5093 1107.42 43.4209 1107.03 43.4393C1106.63 43.4581 1106.3 43.5818 1106.04 43.8103C1105.78 44.0389 1105.59 44.3475 1105.46 44.7363C1105.34 45.1251 1105.29 45.5711 1105.32 46.0743C1105.34 46.5813 1105.43 47.0264 1105.59 47.4095C1105.75 47.7886 1105.97 48.0815 1106.25 48.2883C1106.54 48.4911 1106.88 48.583 1107.27 48.5643ZM1117.49 50.0379C1116.6 50.0796 1115.83 49.9284 1115.17 49.5842C1114.51 49.2361 1114 48.7335 1113.62 48.0765C1113.24 47.4157 1113.02 46.6388 1112.98 45.7459C1112.94 44.8454 1113.08 44.0501 1113.39 43.3602C1113.71 42.6664 1114.18 42.1172 1114.8 41.7123C1115.43 41.3035 1116.18 41.0783 1117.06 41.0366C1117.94 40.9949 1118.71 41.1481 1119.37 41.4962C1120.03 41.8404 1120.55 42.3429 1120.93 43.0037C1121.31 43.6607 1121.52 44.4394 1121.56 45.34C1121.61 46.2329 1121.47 47.0262 1121.15 47.72C1120.84 48.4099 1120.37 48.9593 1119.74 49.3681C1119.12 49.7729 1118.37 49.9962 1117.49 50.0379ZM1117.41 48.1644C1117.81 48.1455 1118.14 48.0161 1118.4 47.7764C1118.65 47.5329 1118.84 47.2093 1118.96 46.8055C1119.08 46.4016 1119.13 45.9462 1119.11 45.4392C1119.08 44.9322 1118.99 44.4833 1118.83 44.0927C1118.68 43.7018 1118.46 43.3974 1118.18 43.1793C1117.9 42.9612 1117.56 42.8616 1117.16 42.8806C1116.75 42.8997 1116.42 43.0312 1116.15 43.2751C1115.89 43.5188 1115.7 43.8426 1115.58 44.2465C1115.46 44.6502 1115.42 45.1056 1115.44 45.6126C1115.46 46.1196 1115.55 46.5685 1115.71 46.9594C1115.87 47.35 1116.09 47.6543 1116.37 47.8722C1116.66 48.0862 1117 48.1836 1117.41 48.1644ZM1123.34 49.5903L1122.93 40.8728L1125.27 40.7619L1125.34 42.2829L1125.44 42.2786C1125.57 41.7301 1125.82 41.3088 1126.18 41.0149C1126.54 40.7172 1126.96 40.5568 1127.45 40.5337C1127.57 40.528 1127.7 40.5293 1127.84 40.5379C1127.98 40.5464 1128.11 40.5614 1128.22 40.5828L1128.32 42.7282C1128.2 42.6995 1128.04 42.6766 1127.84 42.6596C1127.64 42.6426 1127.46 42.6381 1127.29 42.646C1126.93 42.6628 1126.62 42.7554 1126.35 42.9238C1126.08 43.0882 1125.87 43.3104 1125.72 43.5905C1125.57 43.8705 1125.51 44.1883 1125.53 44.544L1125.76 49.4759L1123.34 49.5903ZM1133.07 37.4805L1136.11 37.3371L1139.68 44.9952L1139.81 44.9887L1142.64 37.0279L1145.67 36.8845L1146.22 48.5079L1143.84 48.6206L1143.48 41.0552L1143.39 41.0598L1140.73 48.7107L1139.11 48.7875L1135.75 41.3928L1135.65 41.3973L1136.01 48.9911L1133.62 49.1039L1133.07 37.4805ZM1152.15 48.3982C1151.27 48.4399 1150.5 48.2887 1149.84 47.9445C1149.18 47.5964 1148.66 47.0938 1148.28 46.4368C1147.9 45.776 1147.69 44.9991 1147.65 44.1062C1147.6 43.2057 1147.74 42.4104 1148.06 41.7205C1148.37 41.0267 1148.84 40.4775 1149.46 40.0726C1150.09 39.6638 1150.84 39.4386 1151.72 39.3969C1152.61 39.3552 1153.38 39.5084 1154.03 39.8565C1154.69 40.2007 1155.21 40.7032 1155.59 41.364C1155.97 42.021 1156.19 42.7998 1156.23 43.7003C1156.27 44.5932 1156.13 45.3865 1155.82 46.0803C1155.5 46.7702 1155.03 47.3196 1154.41 47.7284C1153.78 48.1332 1153.03 48.3565 1152.15 48.3982ZM1152.07 46.5248C1152.47 46.5058 1152.8 46.3764 1153.06 46.1367C1153.32 45.8932 1153.51 45.5696 1153.62 45.1659C1153.75 44.7619 1153.79 44.3065 1153.77 43.7995C1153.75 43.2925 1153.65 42.8436 1153.5 42.453C1153.34 42.0621 1153.12 41.7577 1152.84 41.5396C1152.56 41.3215 1152.22 41.2219 1151.82 41.2409C1151.42 41.26 1151.08 41.3915 1150.82 41.6354C1150.56 41.8791 1150.37 42.2029 1150.24 42.6068C1150.13 43.0105 1150.08 43.4659 1150.1 43.9729C1150.13 44.4799 1150.22 44.9288 1150.37 45.3197C1150.53 45.7103 1150.75 46.0146 1151.04 46.2325C1151.32 46.4465 1151.67 46.5439 1152.07 46.5248ZM1158.05 47.9485L1157.5 36.3251L1159.92 36.2107L1160.13 40.5808L1160.2 40.5774C1160.29 40.3378 1160.44 40.0921 1160.62 39.8405C1160.82 39.5849 1161.07 39.3681 1161.39 39.19C1161.71 39.0079 1162.12 38.9053 1162.6 38.8823C1163.24 38.8522 1163.83 38.9909 1164.39 39.2985C1164.94 39.6022 1165.39 40.0795 1165.75 40.7302C1166.1 41.3771 1166.3 42.2 1166.35 43.1989C1166.39 44.1713 1166.27 44.9998 1165.99 45.6843C1165.71 46.3649 1165.31 46.8901 1164.79 47.2598C1164.28 47.6256 1163.69 47.8241 1163.02 47.8554C1162.55 47.8776 1162.15 47.819 1161.81 47.6794C1161.48 47.5397 1161.21 47.3574 1160.99 47.1327C1160.77 46.9041 1160.6 46.6714 1160.48 46.4344L1160.37 46.4395L1160.43 47.8357L1158.05 47.9485ZM1160.21 43.4778C1160.24 43.9961 1160.33 44.4449 1160.49 44.824C1160.65 45.2031 1160.88 45.4941 1161.16 45.6969C1161.44 45.8959 1161.78 45.9861 1162.17 45.9677C1162.56 45.9491 1162.89 45.8255 1163.15 45.597C1163.41 45.3646 1163.6 45.0522 1163.73 44.6596C1163.85 44.2631 1163.9 43.8113 1163.88 43.3043C1163.85 42.8011 1163.76 42.3617 1163.6 41.9862C1163.45 41.6107 1163.23 41.3215 1162.94 41.1187C1162.66 40.916 1162.32 40.824 1161.92 40.8428C1161.53 40.8614 1161.2 40.9812 1160.94 41.2022C1160.68 41.423 1160.49 41.7278 1160.36 42.1168C1160.24 42.5057 1160.19 42.9594 1160.21 43.4778ZM1168.17 47.47L1167.75 38.7525L1170.17 38.6381L1170.58 47.3556L1168.17 47.47ZM1168.91 37.5713C1168.56 37.5883 1168.24 37.4837 1167.97 37.2575C1167.71 37.0273 1167.57 36.7439 1167.55 36.4071C1167.54 36.0742 1167.65 35.7825 1167.89 35.5321C1168.14 35.2778 1168.44 35.1422 1168.8 35.1251C1169.16 35.1081 1169.47 35.2147 1169.74 35.4449C1170 35.6711 1170.15 35.9507 1170.16 36.2836C1170.18 36.6204 1170.06 36.9159 1169.82 37.1702C1169.57 37.4206 1169.27 37.5543 1168.91 37.5713ZM1174.39 35.5263L1174.94 47.1497L1172.52 47.264L1171.97 35.6407L1174.39 35.5263ZM1180.86 47.0404C1179.96 47.0828 1179.18 46.9377 1178.51 46.6051C1177.85 46.2685 1177.33 45.7736 1176.95 45.1203C1176.57 44.4633 1176.36 43.6751 1176.32 42.7557C1176.28 41.8589 1176.41 41.0637 1176.73 40.37C1177.04 39.6762 1177.51 39.1252 1178.12 38.717C1178.74 38.3085 1179.48 38.0841 1180.33 38.0437C1180.91 38.0164 1181.45 38.0838 1181.95 38.2458C1182.46 38.4038 1182.91 38.6575 1183.3 39.007C1183.69 39.3563 1184 39.8041 1184.24 40.3504C1184.47 40.893 1184.61 41.5351 1184.64 42.2767L1184.67 42.9407L1177.31 43.2889L1177.24 41.7906L1182.32 41.55C1182.31 41.202 1182.22 40.8972 1182.05 40.6357C1181.89 40.3742 1181.67 40.1741 1181.39 40.0355C1181.12 39.8929 1180.81 39.8299 1180.46 39.8466C1180.09 39.8639 1179.77 39.9645 1179.49 40.1481C1179.22 40.3279 1179.01 40.5634 1178.87 40.8547C1178.72 41.1422 1178.66 41.4582 1178.67 41.8027L1178.74 43.2272C1178.76 43.6585 1178.85 44.0275 1179.03 44.334C1179.2 44.6403 1179.44 44.8717 1179.75 45.028C1180.05 45.1843 1180.4 45.2529 1180.81 45.2337C1181.08 45.221 1181.32 45.1715 1181.54 45.0853C1181.76 44.9991 1181.95 44.8765 1182.1 44.7177C1182.25 44.5588 1182.36 44.3677 1182.44 44.1443L1184.68 44.1861C1184.59 44.7287 1184.38 45.2089 1184.05 45.6266C1183.72 46.0404 1183.28 46.3719 1182.74 46.6213C1182.2 46.8667 1181.57 47.0064 1180.86 47.0404Z" fill="#301F5D"/>
<path d="M571.589 75.6893L567.469 75.8842L566.919 64.2608L571.073 64.0643C572.242 64.009 573.26 64.1941 574.126 64.6195C574.991 65.0412 575.672 65.6746 576.167 66.5195C576.665 67.3643 576.943 68.3902 577 69.5972C577.058 70.808 576.878 71.8593 576.461 72.7512C576.048 73.6429 575.427 74.3416 574.598 74.8473C573.773 75.3528 572.77 75.6334 571.589 75.6893ZM569.827 73.6623L571.387 73.5885C572.114 73.5541 572.719 73.3966 573.202 73.1158C573.689 72.8311 574.045 72.4105 574.269 71.8538C574.496 71.2932 574.59 70.5797 574.549 69.7132C574.508 68.8543 574.348 68.1584 574.069 67.6256C573.793 67.0925 573.402 66.7091 572.894 66.4753C572.386 66.2414 571.769 66.1417 571.042 66.176L569.476 66.2501L569.827 73.6623ZM583.032 75.3186C582.135 75.3611 581.355 75.2159 580.69 74.8833C580.03 74.5467 579.51 74.0518 579.13 73.3986C578.75 72.7416 578.538 71.9533 578.495 71.0339C578.452 70.1372 578.589 69.3419 578.905 68.6482C579.221 67.9545 579.686 67.4035 580.3 66.9952C580.918 66.5868 581.654 66.3623 582.509 66.3219C583.085 66.2947 583.624 66.3621 584.129 66.524C584.637 66.682 585.085 66.9357 585.473 67.2852C585.865 67.6345 586.178 68.0823 586.413 68.6287C586.647 69.1713 586.781 69.8133 586.817 70.5549L586.848 71.219L579.487 71.5672L579.416 70.0688L584.501 69.8283C584.485 69.4802 584.395 69.1754 584.23 68.9139C584.066 68.6525 583.846 68.4524 583.571 68.3138C583.298 68.1712 582.986 68.1082 582.635 68.1248C582.268 68.1422 581.946 68.2427 581.67 68.4264C581.398 68.6061 581.19 68.8416 581.044 69.1329C580.898 69.4204 580.832 69.7364 580.844 70.0809L580.912 71.5055C580.932 71.9368 581.029 72.3057 581.203 72.6122C581.38 72.9186 581.621 73.1499 581.924 73.3062C582.227 73.4625 582.581 73.5311 582.986 73.512C583.255 73.4992 583.499 73.4498 583.719 73.3635C583.938 73.2773 584.124 73.1548 584.276 72.9959C584.427 72.837 584.54 72.6459 584.613 72.4225L586.856 72.4643C586.768 73.007 586.557 73.4871 586.224 73.9049C585.895 74.3186 585.459 74.6502 584.917 74.8995C584.379 75.1449 583.751 75.2846 583.032 75.3186ZM595.561 68.3097L593.354 68.5506C593.307 68.3632 593.218 68.1968 593.086 68.0514C592.954 67.9022 592.783 67.787 592.575 67.7058C592.37 67.6207 592.127 67.5848 591.847 67.598C591.473 67.6158 591.16 67.7102 590.911 67.8812C590.661 68.0485 590.542 68.2627 590.554 68.5238C590.564 68.7319 590.656 68.9039 590.829 69.0398C591.002 69.1757 591.293 69.2776 591.702 69.3455L593.295 69.5887C594.151 69.7226 594.796 69.9727 595.231 70.339C595.665 70.7052 595.897 71.2024 595.927 71.8305C595.954 72.4018 595.809 72.9111 595.493 73.3584C595.18 73.8054 594.738 74.1638 594.167 74.4336C593.599 74.6993 592.937 74.8501 592.181 74.8859C591.027 74.9405 590.096 74.7437 589.388 74.2956C588.684 73.8435 588.254 73.204 588.097 72.3771L590.469 72.1398C590.558 72.4883 590.745 72.7487 591.03 72.921C591.314 73.0896 591.673 73.1636 592.104 73.1432C592.528 73.1232 592.864 73.0257 593.114 72.8509C593.367 72.672 593.489 72.452 593.481 72.1907C593.467 71.9715 593.365 71.7961 593.177 71.6647C592.989 71.5295 592.704 71.4331 592.322 71.3753L590.798 71.1459C589.938 71.0159 589.291 70.7508 588.855 70.3505C588.422 69.95 588.191 69.4244 588.16 68.7736C588.134 68.2136 588.262 67.724 588.546 67.3048C588.833 66.8855 589.248 66.553 589.79 66.3074C590.335 66.0617 590.981 65.9212 591.726 65.8859C592.827 65.8338 593.705 66.0255 594.359 66.461C595.016 66.8964 595.417 67.5126 595.561 68.3097ZM597.577 74.46L597.165 65.7424L599.582 65.6281L599.995 74.3456L597.577 74.46ZM598.326 64.5613C597.967 64.5783 597.653 64.4737 597.384 64.2475C597.119 64.0173 596.979 63.7338 596.963 63.3971C596.947 63.0641 597.06 62.7725 597.302 62.5221C597.548 62.2678 597.851 62.1321 598.21 62.1151C598.57 62.0981 598.882 62.2047 599.147 62.4349C599.416 62.6611 599.558 62.9406 599.573 63.2736C599.589 63.6103 599.474 63.9059 599.229 64.1602C598.986 64.4106 598.685 64.5442 598.326 64.5613ZM606.022 77.5189C605.239 77.556 604.562 77.4799 603.992 77.2907C603.426 77.1051 602.969 76.8366 602.623 76.4852C602.276 76.1337 602.043 75.7314 601.923 75.2783L604.145 74.8717C604.221 75.0425 604.337 75.2001 604.492 75.3445C604.646 75.4888 604.847 75.6007 605.093 75.6801C605.344 75.763 605.645 75.7962 605.997 75.7795C606.523 75.7546 606.95 75.6055 607.278 75.3321C607.611 75.0623 607.763 74.6285 607.734 74.0307L607.659 72.4359L607.557 72.4407C607.462 72.6879 607.314 72.9243 607.112 73.15C606.911 73.3757 606.647 73.5645 606.32 73.7165C605.994 73.8685 605.6 73.9553 605.138 73.9772C604.483 74.0081 603.88 73.885 603.329 73.6077C602.781 73.3265 602.333 72.8793 601.985 72.2663C601.641 71.6493 601.447 70.8583 601.401 69.8935C601.354 68.906 601.476 68.0735 601.766 67.3962C602.057 66.7188 602.461 66.2029 602.979 65.8485C603.5 65.4939 604.081 65.3015 604.72 65.2713C605.209 65.2482 605.621 65.3121 605.958 65.463C606.295 65.6101 606.57 65.8019 606.782 66.0384C606.997 66.2709 607.166 66.5018 607.287 66.7312L607.377 66.7269L607.308 65.2626L609.709 65.1491L610.125 73.9517C610.16 74.6933 610.008 75.3224 609.668 75.8391C609.329 76.3557 608.843 76.7541 608.212 77.0342C607.584 77.318 606.855 77.4795 606.022 77.5189ZM605.818 72.1248C606.208 72.1064 606.533 71.9943 606.792 71.7886C607.055 71.579 607.25 71.2892 607.377 70.9191C607.507 70.5451 607.56 70.1027 607.536 69.5919C607.512 69.0812 607.419 68.6419 607.257 68.2741C607.096 67.9025 606.874 67.6191 606.591 67.4239C606.309 67.2287 605.973 67.1403 605.583 67.1588C605.186 67.1775 604.856 67.3012 604.594 67.5298C604.332 67.7545 604.139 68.0594 604.017 68.4444C603.895 68.8294 603.846 69.2697 603.869 69.7654C603.893 70.2686 603.984 70.7004 604.141 71.0608C604.302 71.4172 604.522 71.6894 604.8 71.8772C605.081 72.061 605.421 72.1436 605.818 72.1248ZM614.225 68.6214L614.463 73.6612L612.045 73.7756L611.633 65.0581L613.937 64.9491L614.01 66.4871L614.112 66.4823C614.281 65.9662 614.586 65.5498 615.026 65.2332C615.465 64.9128 616.009 64.7373 616.656 64.7067C617.261 64.6781 617.795 64.7855 618.258 65.0291C618.721 65.2726 619.089 65.6345 619.362 66.1145C619.635 66.5908 619.787 67.1676 619.819 67.8448L620.082 73.3955L617.664 73.5098L617.422 68.3905C617.4 67.8569 617.244 67.4471 616.954 67.1613C616.664 66.8716 616.276 66.7383 615.792 66.7612C615.466 66.7766 615.182 66.8602 614.939 67.012C614.7 67.1636 614.516 67.3771 614.389 67.6523C614.265 67.9236 614.211 68.2467 614.225 68.6214ZM625.968 73.2877C625.071 73.3301 624.291 73.185 623.627 72.8523C622.966 72.5158 622.446 72.0208 622.066 71.3676C621.686 70.7106 621.475 69.9224 621.431 69.0029C621.389 68.1062 621.525 67.311 621.841 66.6172C622.158 65.9235 622.623 65.3725 623.237 64.9642C623.854 64.5558 624.591 64.3314 625.446 64.2909C626.021 64.2637 626.561 64.3311 627.065 64.4931C627.573 64.651 628.021 64.9048 628.409 65.2542C628.801 65.6035 629.115 66.0514 629.349 66.5977C629.583 67.1403 629.718 67.7824 629.753 68.524L629.784 69.188L622.423 69.5362L622.352 68.0379L627.438 67.7973C627.421 67.4492 627.331 67.1444 627.167 66.883C627.003 66.6215 626.783 66.4214 626.507 66.2828C626.235 66.1402 625.923 66.0772 625.571 66.0938C625.204 66.1112 624.883 66.2117 624.607 66.3954C624.335 66.5751 624.126 66.8107 623.98 67.1019C623.835 67.3894 623.768 67.7054 623.781 68.0499L623.848 69.4745C623.868 69.9058 623.966 70.2747 624.139 70.5813C624.317 70.8876 624.557 71.1189 624.86 71.2753C625.164 71.4316 625.518 71.5001 625.922 71.481C626.191 71.4683 626.435 71.4188 626.655 71.3326C626.875 71.2463 627.06 71.1238 627.212 70.9649C627.364 70.8061 627.476 70.6149 627.549 70.3916L629.792 70.4333C629.704 70.976 629.493 71.4562 629.161 71.8739C628.831 72.2876 628.396 72.6192 627.854 72.8685C627.316 73.114 626.687 73.2537 625.968 73.2877ZM631.539 72.8535L631.127 64.136L633.471 64.0251L633.543 65.5461L633.633 65.5418C633.767 64.9933 634.014 64.572 634.376 64.2781C634.737 63.9804 635.162 63.82 635.65 63.7969C635.771 63.7912 635.902 63.7925 636.042 63.8011C636.183 63.8096 636.307 63.8246 636.414 63.846L636.516 65.9914C636.401 65.9627 636.242 65.9398 636.04 65.9228C635.839 65.9058 635.655 65.9013 635.488 65.9092C635.132 65.926 634.818 66.0186 634.546 66.187C634.277 66.3514 634.067 66.5736 633.917 66.8537C633.771 67.1337 633.707 67.4515 633.723 67.8072L633.957 72.7391L631.539 72.8535ZM648.453 60.4041L650.91 60.2878L651.267 67.8362C651.307 68.6838 651.14 69.4349 650.765 70.0897C650.394 70.7443 649.856 71.2666 649.15 71.6564C648.444 72.0425 647.61 72.2583 646.649 72.3037C645.684 72.3494 644.832 72.2133 644.093 71.8956C643.354 71.5742 642.768 71.1051 642.337 70.4884C641.906 69.8717 641.67 69.1396 641.63 68.2921L641.273 60.7437L643.731 60.6274L644.078 67.9658C644.099 68.4085 644.214 68.7974 644.423 69.1326C644.636 69.4676 644.925 69.7251 645.29 69.905C645.655 70.085 646.074 70.1637 646.547 70.1414C647.024 70.1188 647.433 70.0008 647.776 69.7874C648.122 69.5739 648.384 69.2904 648.56 68.9369C648.741 68.5833 648.821 68.1852 648.8 67.7425L648.453 60.4041ZM655.389 60.076L655.939 71.6993L653.482 71.8156L652.932 60.1922L655.389 60.076ZM662.403 59.1981L659.315 73.2916L657.232 73.3901L660.32 59.2967L662.403 59.1981ZM670.818 59.3461L673.276 59.2299L673.633 66.7783C673.673 67.6258 673.506 68.377 673.131 69.0318C672.76 69.6864 672.221 70.2086 671.515 70.5985C670.809 70.9846 669.976 71.2003 669.015 71.2458C668.05 71.2914 667.198 71.1554 666.459 70.8377C665.719 70.5162 665.134 70.0471 664.703 69.4305C664.272 68.8138 664.036 68.0817 663.996 67.2341L663.639 59.6857L666.096 59.5695L666.443 66.9079C666.464 67.3506 666.579 67.7395 666.789 68.0747C667.002 68.4097 667.291 68.6672 667.656 68.8471C668.021 69.027 668.44 69.1058 668.913 69.0834C669.389 69.0609 669.799 68.9429 670.142 68.7295C670.488 68.5159 670.749 68.2324 670.926 67.879C671.107 67.5254 671.186 67.1272 671.165 66.6845L670.818 59.3461ZM677.602 59.0253L680.133 62.8759L680.224 62.8716L682.392 58.7987L685.167 58.6674L681.895 64.6469L685.797 70.287L682.97 70.4207L680.399 66.5663L680.308 66.5706L678.112 70.6505L675.297 70.7837L678.66 64.7999L674.815 59.1571L677.602 59.0253Z" fill="#301F5D"/>
<path d="M1283.79 42.0006L1279.67 42.1955L1279.12 30.5722L1283.28 30.3756C1284.45 30.3203 1285.46 30.5054 1286.33 30.9309C1287.19 31.3526 1287.88 31.9859 1288.37 32.8309C1288.87 33.6757 1289.15 34.7016 1289.2 35.9086C1289.26 37.1194 1289.08 38.1707 1288.66 39.0626C1288.25 39.9543 1287.63 40.653 1286.8 41.1586C1285.98 41.6641 1284.97 41.9448 1283.79 42.0006ZM1282.03 39.9737L1283.59 39.8999C1284.32 39.8655 1284.92 39.7079 1285.41 39.4272C1285.89 39.1425 1286.25 38.7218 1286.47 38.1652C1286.7 37.6046 1286.79 36.891 1286.75 36.0246C1286.71 35.1657 1286.55 34.4698 1286.27 33.937C1286 33.4039 1285.61 33.0205 1285.1 32.7866C1284.59 32.5528 1283.97 32.4531 1283.25 32.4874L1281.68 32.5615L1282.03 39.9737ZM1295.24 41.63C1294.34 41.6724 1293.56 41.5273 1292.89 41.1947C1292.23 40.8581 1291.71 40.3632 1291.33 39.71C1290.95 39.0529 1290.74 38.2647 1290.7 37.3453C1290.66 36.4486 1290.79 35.6533 1291.11 34.9596C1291.42 34.2658 1291.89 33.7148 1292.5 33.3066C1293.12 32.8982 1293.86 32.6737 1294.71 32.6333C1295.29 32.6061 1295.83 32.6734 1296.33 32.8354C1296.84 32.9934 1297.29 33.2471 1297.68 33.5966C1298.07 33.9459 1298.38 34.3937 1298.62 34.9401C1298.85 35.4826 1298.99 36.1247 1299.02 36.8663L1299.05 37.5303L1291.69 37.8785L1291.62 36.3802L1296.7 36.1397C1296.69 35.7916 1296.6 35.4868 1296.43 35.2253C1296.27 34.9638 1296.05 34.7638 1295.77 34.6251C1295.5 34.4825 1295.19 34.4195 1294.84 34.4362C1294.47 34.4536 1294.15 34.5541 1293.87 34.7378C1293.6 34.9175 1293.39 35.153 1293.25 35.4443C1293.1 35.7318 1293.04 36.0478 1293.05 36.3923L1293.12 37.8168C1293.14 38.2482 1293.23 38.6171 1293.41 38.9236C1293.58 39.23 1293.82 39.4613 1294.13 39.6176C1294.43 39.7739 1294.78 39.8425 1295.19 39.8233C1295.46 39.8106 1295.7 39.7611 1295.92 39.6749C1296.14 39.5887 1296.33 39.4661 1296.48 39.3073C1296.63 39.1484 1296.74 38.9573 1296.82 38.7339L1299.06 38.7757C1298.97 39.3183 1298.76 39.7985 1298.43 40.2162C1298.1 40.63 1297.66 40.9615 1297.12 41.2109C1296.58 41.4563 1295.95 41.596 1295.24 41.63ZM1307.76 34.6211L1305.56 34.862C1305.51 34.6746 1305.42 34.5082 1305.29 34.3627C1305.16 34.2135 1304.99 34.0983 1304.78 34.0172C1304.57 33.9321 1304.33 33.8962 1304.05 33.9094C1303.68 33.9271 1303.36 34.0215 1303.11 34.1926C1302.86 34.3599 1302.75 34.5741 1302.76 34.8352C1302.77 35.0433 1302.86 35.2153 1303.03 35.3512C1303.21 35.4871 1303.5 35.589 1303.91 35.6568L1305.5 35.9C1306.35 36.034 1307 36.2841 1307.43 36.6503C1307.87 37.0166 1308.1 37.5137 1308.13 38.1418C1308.16 38.7132 1308.01 39.2225 1307.7 39.6697C1307.38 40.1168 1306.94 40.4752 1306.37 40.7449C1305.8 41.0107 1305.14 41.1615 1304.38 41.1972C1303.23 41.2518 1302.3 41.0551 1301.59 40.6069C1300.89 40.1548 1300.46 39.5154 1300.3 38.6885L1302.67 38.4512C1302.76 38.7996 1302.95 39.0601 1303.23 39.2324C1303.52 39.4009 1303.88 39.475 1304.31 39.4546C1304.73 39.4346 1305.07 39.3371 1305.32 39.1622C1305.57 38.9834 1305.69 38.7634 1305.68 38.5021C1305.67 38.2828 1305.57 38.1075 1305.38 37.9761C1305.19 37.8409 1304.91 37.7444 1304.53 37.6867L1303 37.4573C1302.14 37.3273 1301.49 37.0621 1301.06 36.6618C1300.63 36.2614 1300.39 35.7357 1300.36 35.0849C1300.34 34.525 1300.47 34.0354 1300.75 33.6162C1301.04 33.1969 1301.45 32.8644 1301.99 32.6188C1302.54 32.3731 1303.18 32.2325 1303.93 32.1973C1305.03 32.1452 1305.91 32.3369 1306.56 32.7724C1307.22 33.2077 1307.62 33.824 1307.76 34.6211ZM1309.78 40.7713L1309.37 32.0538L1311.79 31.9395L1312.2 40.657L1309.78 40.7713ZM1310.53 30.8726C1310.17 30.8896 1309.86 30.785 1309.59 30.5588C1309.32 30.3287 1309.18 30.0452 1309.17 29.7085C1309.15 29.3755 1309.26 29.0838 1309.51 28.8335C1309.75 28.5792 1310.05 28.4435 1310.41 28.4265C1310.77 28.4095 1311.09 28.5161 1311.35 28.7462C1311.62 28.9724 1311.76 29.252 1311.78 29.585C1311.79 29.9217 1311.68 30.2173 1311.43 30.4716C1311.19 30.7219 1310.89 30.8556 1310.53 30.8726ZM1318.23 43.8303C1317.44 43.8673 1316.77 43.7913 1316.2 43.6021C1315.63 43.4165 1315.17 43.148 1314.83 42.7966C1314.48 42.4451 1314.25 42.0428 1314.13 41.5896L1316.35 41.1831C1316.42 41.3539 1316.54 41.5115 1316.7 41.6558C1316.85 41.8002 1317.05 41.9121 1317.3 41.9914C1317.55 42.0744 1317.85 42.1075 1318.2 42.0909C1318.73 42.066 1319.15 41.9169 1319.48 41.6435C1319.81 41.3737 1319.97 40.9399 1319.94 40.3421L1319.86 38.7473L1319.76 38.7521C1319.67 38.9993 1319.52 39.2357 1319.32 39.4614C1319.11 39.6871 1318.85 39.8759 1318.52 40.0279C1318.2 40.1798 1317.8 40.2667 1317.34 40.2886C1316.69 40.3195 1316.08 40.1964 1315.53 39.9191C1314.98 39.6378 1314.54 39.1907 1314.19 38.5776C1313.85 37.9606 1313.65 37.1697 1313.6 36.2049C1313.56 35.2173 1313.68 34.3849 1313.97 33.7076C1314.26 33.0302 1314.66 32.5143 1315.18 32.1599C1315.7 31.8053 1316.28 31.6129 1316.92 31.5826C1317.41 31.5596 1317.82 31.6235 1318.16 31.7744C1318.5 31.9215 1318.77 32.1133 1318.99 32.3497C1319.2 32.5822 1319.37 32.8132 1319.49 33.0426L1319.58 33.0383L1319.51 31.574L1321.91 31.4604L1322.33 40.2631C1322.36 41.0047 1322.21 41.6338 1321.87 42.1504C1321.53 42.6671 1321.05 43.0654 1320.42 43.3456C1319.79 43.6293 1319.06 43.7909 1318.23 43.8303ZM1318.02 38.4362C1318.41 38.4177 1318.74 38.3057 1319 38.1C1319.26 37.8904 1319.45 37.6005 1319.58 37.2305C1319.71 36.8565 1319.76 36.4141 1319.74 35.9033C1319.72 35.3925 1319.62 34.9532 1319.46 34.5855C1319.3 34.2139 1319.08 33.9305 1318.79 33.7353C1318.51 33.5401 1318.18 33.4517 1317.79 33.4701C1317.39 33.4889 1317.06 33.6126 1316.8 33.8411C1316.54 34.0659 1316.34 34.3708 1316.22 34.7558C1316.1 35.1408 1316.05 35.5811 1316.07 36.0767C1316.1 36.58 1316.19 37.0118 1316.34 37.3722C1316.51 37.7286 1316.73 38.0007 1317 38.1886C1317.29 38.3724 1317.62 38.455 1318.02 38.4362ZM1326.43 34.9328L1326.67 39.9726L1324.25 40.087L1323.84 31.3694L1326.14 31.2604L1326.21 32.7985L1326.32 32.7937C1326.48 32.2775 1326.79 31.8612 1327.23 31.5446C1327.67 31.2242 1328.21 31.0487 1328.86 31.0181C1329.47 30.9894 1330 31.0969 1330.46 31.3405C1330.92 31.584 1331.29 31.9458 1331.57 32.4259C1331.84 32.9022 1331.99 33.4789 1332.02 34.1562L1332.29 39.7068L1329.87 39.8212L1329.63 34.7019C1329.6 34.1682 1329.45 33.7585 1329.16 33.4726C1328.87 33.183 1328.48 33.0497 1328 33.0726C1327.67 33.088 1327.39 33.1716 1327.14 33.3234C1326.9 33.475 1326.72 33.6884 1326.59 33.9637C1326.47 34.235 1326.41 34.558 1326.43 34.9328ZM1338.17 39.599C1337.28 39.6414 1336.49 39.4963 1335.83 39.1637C1335.17 38.8271 1334.65 38.3322 1334.27 37.679C1333.89 37.022 1333.68 36.2337 1333.63 35.3143C1333.59 34.4176 1333.73 33.6223 1334.05 32.9286C1334.36 32.2349 1334.83 31.6839 1335.44 31.2756C1336.06 30.8672 1336.79 30.6427 1337.65 30.6023C1338.22 30.5751 1338.76 30.6425 1339.27 30.8044C1339.78 30.9624 1340.22 31.2161 1340.61 31.5656C1341.01 31.9149 1341.32 32.3627 1341.55 32.9091C1341.79 33.4517 1341.92 34.0937 1341.96 34.8353L1341.99 35.4994L1334.63 35.8476L1334.56 34.3492L1339.64 34.1087C1339.62 33.7606 1339.53 33.4558 1339.37 33.1943C1339.21 32.9329 1338.99 32.7328 1338.71 32.5942C1338.44 32.4516 1338.13 32.3886 1337.77 32.4052C1337.41 32.4226 1337.09 32.5231 1336.81 32.7068C1336.54 32.8865 1336.33 33.122 1336.18 33.4133C1336.04 33.7008 1335.97 34.0168 1335.98 34.3613L1336.05 35.7859C1336.07 36.2172 1336.17 36.5861 1336.34 36.8926C1336.52 37.199 1336.76 37.4303 1337.06 37.5866C1337.37 37.7429 1337.72 37.8115 1338.13 37.7924C1338.39 37.7796 1338.64 37.7302 1338.86 37.6439C1339.08 37.5577 1339.26 37.4352 1339.42 37.2763C1339.57 37.1174 1339.68 36.9263 1339.75 36.7029L1342 36.7447C1341.91 37.2874 1341.7 37.7675 1341.36 38.1852C1341.03 38.599 1340.6 38.9306 1340.06 39.1799C1339.52 39.4253 1338.89 39.565 1338.17 39.599ZM1343.74 39.1649L1343.33 30.4473L1345.67 30.3365L1345.75 31.8575L1345.84 31.8532C1345.97 31.3046 1346.22 30.8834 1346.58 30.5894C1346.94 30.2917 1347.37 30.1313 1347.85 30.1083C1347.97 30.1025 1348.11 30.1039 1348.25 30.1124C1348.39 30.1209 1348.51 30.1359 1348.62 30.1574L1348.72 32.3027C1348.6 32.2741 1348.45 32.2512 1348.24 32.2342C1348.04 32.2172 1347.86 32.2127 1347.69 32.2205C1347.34 32.2374 1347.02 32.3299 1346.75 32.4983C1346.48 32.6627 1346.27 32.885 1346.12 33.1651C1345.97 33.4451 1345.91 33.7629 1345.93 34.1185L1346.16 39.0505L1343.74 39.1649ZM1360.66 26.7154L1363.11 26.5992L1363.47 34.1476C1363.51 34.9951 1363.34 35.7463 1362.97 36.4011C1362.6 37.0557 1362.06 37.578 1361.35 37.9678C1360.65 38.3539 1359.81 38.5696 1358.85 38.6151C1357.89 38.6607 1357.04 38.5247 1356.3 38.207C1355.56 37.8855 1354.97 37.4164 1354.54 36.7998C1354.11 36.1831 1353.87 35.451 1353.83 34.6034L1353.48 27.0551L1355.93 26.9388L1356.28 34.2772C1356.3 34.7199 1356.42 35.1088 1356.63 35.444C1356.84 35.779 1357.13 36.0365 1357.49 36.2164C1357.86 36.3963 1358.28 36.4751 1358.75 36.4527C1359.23 36.4302 1359.64 36.3122 1359.98 36.0988C1360.33 35.8852 1360.59 35.6017 1360.76 35.2483C1360.94 34.8947 1361.02 34.4965 1361 34.0538L1360.66 26.7154ZM1367.59 26.3873L1368.14 38.0107L1365.69 38.1269L1365.14 26.5036L1367.59 26.3873ZM1374.61 25.5095L1371.52 39.603L1369.44 39.7015L1372.52 25.608L1374.61 25.5095ZM1383.02 25.6575L1385.48 25.5413L1385.84 33.0896C1385.88 33.9372 1385.71 34.6884 1385.33 35.3432C1384.96 35.9978 1384.43 36.52 1383.72 36.9099C1383.01 37.2959 1382.18 37.5117 1381.22 37.5571C1380.25 37.6028 1379.4 37.4668 1378.66 37.1491C1377.92 36.8276 1377.34 36.3585 1376.91 35.7418C1376.48 35.1251 1376.24 34.393 1376.2 33.5455L1375.84 25.9971L1378.3 25.8809L1378.65 33.2193C1378.67 33.6619 1378.78 34.0509 1378.99 34.3861C1379.21 34.7211 1379.49 34.9785 1379.86 35.1585C1380.22 35.3384 1380.64 35.4172 1381.12 35.3948C1381.59 35.3722 1382 35.2543 1382.35 35.0409C1382.69 34.8273 1382.95 34.5438 1383.13 34.1904C1383.31 33.8367 1383.39 33.4386 1383.37 32.9959L1383.02 25.6575ZM1389.81 25.3366L1392.34 29.1872L1392.43 29.1829L1394.6 25.1101L1397.37 24.9788L1394.1 30.9582L1398 36.5984L1395.17 36.7321L1392.6 32.8777L1392.51 32.882L1390.32 36.9619L1387.5 37.095L1390.86 31.1113L1387.02 25.4684L1389.81 25.3366Z" fill="#301F5D"/>
<path d="M272.931 84.4793L270.416 84.8548C266.652 85.4177 263.821 88.5811 263.68 92.3866L263.592 94.9312L263.217 92.4165C262.654 88.6524 259.491 85.8208 255.685 85.6803L253.14 85.5924L255.655 85.2169C259.419 84.6541 262.251 81.4906 262.391 77.6852L262.479 75.1405L262.855 77.6553C263.418 81.4194 266.581 84.251 270.387 84.3914L272.931 84.4793Z" fill="#301F5D"/>
<path d="M532.263 72.8115L529.749 73.187C525.985 73.7499 523.153 76.9133 523.013 80.7188L522.925 83.2635L522.549 80.7487C521.986 76.9846 518.823 74.153 515.017 74.0126L512.473 73.9246L514.987 73.5491C518.752 72.9863 521.583 69.8228 521.724 66.0174L521.812 63.4727L522.187 65.9875C522.75 69.7516 525.913 72.5832 529.719 72.7236L532.263 72.8115Z" fill="#301F5D"/>
<path d="M746.263 61.8115L743.749 62.187C739.985 62.7499 737.153 65.9133 737.013 69.7188L736.925 72.2635L736.549 69.7487C735.986 65.9846 732.823 63.153 729.017 63.0126L726.473 62.9246L728.987 62.5491C732.752 61.9863 735.583 58.8228 735.724 55.0174L735.812 52.4727L736.187 54.9875C736.75 58.7516 739.913 61.5832 743.719 61.7236L746.263 61.8115Z" fill="#301F5D"/>
<path d="M988.263 48.8115L985.749 49.187C981.985 49.7499 979.153 52.9133 979.013 56.7188L978.925 59.2635L978.549 56.7487C977.986 52.9846 974.823 50.153 971.017 50.0126L968.473 49.9246L970.987 49.5491C974.752 48.9863 977.583 45.8228 977.724 42.0174L977.812 39.4727L978.187 41.9875C978.75 45.7516 981.913 48.5832 985.719 48.7236L988.263 48.8115Z" fill="#301F5D"/>
<path d="M1247.26 37.8115L1244.75 38.187C1240.98 38.7499 1238.15 41.9133 1238.01 45.7188L1237.92 48.2635L1237.55 45.7487C1236.99 41.9846 1233.82 39.153 1230.02 39.0126L1227.47 38.9246L1229.99 38.5491C1233.75 37.9863 1236.58 34.8228 1236.72 31.0174L1236.81 28.4727L1237.19 30.9875C1237.75 34.7516 1240.91 37.5832 1244.72 37.7236L1247.26 37.8115Z" fill="#301F5D"/>
<defs>
<linearGradient id="paint0_linear_47_61" x1="-29.5641" y1="63.9386" x2="1455.27" y2="63.9386" gradientUnits="userSpaceOnUse">
<stop stop-color="#574487"/>
<stop offset="0.2" stop-color="#574487"/>
<stop offset="0.4" stop-color="#1D172E"/>
<stop offset="0.6" stop-color="#1F1830"/>
<stop offset="0.8" stop-color="#1D172E"/>
<stop offset="1" stop-color="#151121"/>
</linearGradient>
</defs>
</svg>
